<?xml version="1.0" standalone="no"?>
<!DOCTYPE svg PUBLIC "-//W3C//DTD SVG 1.1//EN" "http://www.w3.org/Graphics/SVG/1.1/DTD/svg11.dtd" >
<svg xmlns="http://www.w3.org/2000/svg" xmlns:xlink="http://www.w3.org/1999/xlink" version="1.1">
<metadata>
Created by FontForge 20170910 at Fri Nov 19 12:09:47 2010
 By Jimmy Wärting
Copyright 2009, 2010 Monotype Imaging Inc. All rights reserved.
</metadata>
<defs>
<font id="FelbridgePro-BoldItalic" horiz-adv-x="484" >
  <font-face 
    font-family="Felbridge Pro"
    font-weight="700"
    font-style="italic"
    font-stretch="normal"
    units-per-em="1000"
    panose-1="2 0 8 3 4 0 3 9 3 4"
    ascent="770"
    descent="-230"
    x-height="520"
    cap-height="727"
    bbox="-269 -237 1469 956"
    underline-thickness="50"
    underline-position="-100"
    slope="-11"
    stemh="112"
    stemv="129"
    unicode-range="U+0020-FB04"
  />
<missing-glyph horiz-adv-x="500" 
d="M12 0v665h475v-665h-475zM88 618l162 -243l161 243h-323zM60 575v-484c0 -1 161 242 161 242zM440 575l-162 -242l162 -243v485zM411 48l-161 242l-162 -242h323z" />
    <glyph glyph-name="f_f" unicode="ff" horiz-adv-x="642" 
d="M774 725l-35 -97c-17 7 -49 14 -74 14c-47 0 -71 -20 -84 -84l-8 -38h107l-19 -93h-106l-92 -451c-21 -102 -62 -169 -205 -169c-29 0 -66 5 -96 15l35 97c17 -7 44 -12 60 -12c51 0 71 20 84 84l88 436h-178l-92 -451c-21 -102 -62 -169 -205 -169c-29 0 -66 5 -96 15
l35 97c17 -7 44 -12 60 -12c51 0 71 20 84 84l88 436h-74l19 93h74l11 53c21 102 62 169 205 169c29 0 67 -3 97 -13l-35 -97c-17 7 -47 10 -61 10c-47 0 -71 -20 -84 -84l-8 -38h179l11 53c21 102 62 169 205 169c42 0 80 -7 110 -17z" />
    <glyph glyph-name="f_f_i" unicode="ffi" horiz-adv-x="893" 
d="M897 661c0 -52 -35 -74 -88 -74c-36 0 -66 13 -70 51c-23 4 -50 6 -74 6c-47 0 -71 -22 -84 -86l-8 -38h208c30 0 77 -12 77 -57c0 -20 -7 -57 -14 -91l-75 -372h-125l74 367c3 13 8 41 8 49c0 6 -2 11 -12 11h-159l-92 -451c-21 -102 -62 -169 -205 -169
c-29 0 -66 5 -96 15l35 97c17 -7 44 -12 60 -12c51 0 71 20 84 84l88 436h-178l-92 -451c-21 -102 -62 -169 -205 -169c-29 0 -66 5 -96 15l35 97c17 -7 44 -12 60 -12c51 0 71 20 84 84l88 436h-74l19 93h74l11 53c21 102 62 169 205 169c29 0 67 -3 97 -13l-35 -97
c-17 7 -47 10 -61 10c-47 0 -71 -20 -84 -84l-8 -38h179l11 53c21 102 62 169 205 169c59 0 132 -12 170 -21c19 -5 63 -16 63 -60z" />
    <glyph glyph-name="f_f_l" unicode="ffl" horiz-adv-x="935" 
d="M918 760l-120 -593c-3 -15 -6 -31 -6 -45c0 -19 8 -36 32 -36c13 0 33 1 49 6l14 -92c-35 -9 -79 -15 -109 -15c-64 0 -116 20 -116 97c0 21 4 51 8 70l95 469c-29 12 -69 21 -100 21c-47 0 -71 -20 -84 -84l-8 -38h107l-19 -93h-106l-92 -451
c-21 -102 -62 -169 -205 -169c-29 0 -66 5 -96 15l35 97c17 -7 44 -12 60 -12c51 0 71 20 84 84l88 436h-178l-92 -451c-21 -102 -62 -169 -205 -169c-29 0 -66 5 -96 15l35 97c17 -7 44 -12 60 -12c51 0 71 20 84 84l88 436h-74l19 93h74l11 53c21 102 62 169 205 169
c29 0 67 -3 97 -13l-35 -97c-17 7 -47 10 -61 10c-47 0 -71 -20 -84 -84l-8 -38h179l11 53c21 102 62 169 205 169c51 0 108 -15 153 -32z" />
    <glyph glyph-name="fi" unicode="fi" horiz-adv-x="589" 
d="M593 661c0 -52 -35 -74 -88 -74c-36 0 -66 13 -70 51c-23 4 -50 6 -74 6c-47 0 -71 -22 -84 -86l-8 -38h208c30 0 77 -12 77 -57c0 -20 -7 -57 -14 -91l-75 -372h-125l74 367c3 13 8 41 8 49c0 6 -2 11 -12 11h-159l-92 -451c-21 -102 -62 -169 -205 -169
c-29 0 -66 5 -96 15l35 97c17 -7 44 -12 60 -12c51 0 71 20 84 84l88 436h-74l19 93h74l11 53c21 102 62 169 205 169c59 0 132 -12 170 -21c19 -5 63 -16 63 -60z" />
    <glyph glyph-name="fl" unicode="fl" horiz-adv-x="631" 
d="M614 760l-120 -593c-3 -15 -6 -31 -6 -45c0 -19 8 -36 32 -36c13 0 33 1 49 6l14 -92c-35 -9 -79 -15 -109 -15c-64 0 -116 20 -116 97c0 21 4 51 8 70l95 469c-29 12 -69 21 -100 21c-47 0 -71 -20 -84 -84l-8 -38h107l-19 -93h-106l-92 -451
c-21 -102 -62 -169 -205 -169c-29 0 -66 5 -96 15l35 97c17 -7 44 -12 60 -12c51 0 71 20 84 84l88 436h-74l19 93h74l11 53c21 102 62 169 205 169c51 0 108 -15 153 -32z" />
    <glyph glyph-name=".notdef" horiz-adv-x="500" 
d="M12 0v665h475v-665h-475zM88 618l162 -243l161 243h-323zM60 575v-484c0 -1 161 242 161 242zM440 575l-162 -242l162 -243v485zM411 48l-161 242l-162 -242h323z" />
    <glyph glyph-name="space" unicode=" " horiz-adv-x="220" 
 />
    <glyph glyph-name="exclam" unicode="!" horiz-adv-x="286" 
d="M306 727l-123 -515h-102l83 515h142zM188 75c0 -61 -30 -86 -87 -86c-41 0 -71 17 -71 56c0 59 29 86 88 86c38 0 70 -16 70 -56z" />
    <glyph glyph-name="quotedbl" unicode="&#x22;" horiz-adv-x="467" 
d="M466 742l-78 -269h-80l30 269h128zM271 742l-78 -269h-80l30 269h128z" />
    <glyph glyph-name="numbersign" unicode="#" horiz-adv-x="692" 
d="M670 447h-133l-42 -167h118v-85h-139l-48 -195h-84l48 195h-156l-49 -195h-84l48 195h-112v85h133l42 167h-118v85h139l48 195h84l-48 -195h156l49 195h84l-48 -195h112v-85zM452 447h-156l-42 -167h157z" />
    <glyph glyph-name="dollar" unicode="$" horiz-adv-x="592" 
d="M557 535l-98 -52c-20 38 -49 60 -79 66l-34 -164c77 -28 169 -73 169 -173c0 -139 -115 -205 -249 -212l-24 -120h-86l25 123c-76 12 -136 49 -173 130l100 53c20 -47 54 -75 94 -82l39 188c-76 27 -163 68 -163 165c0 102 72 196 239 201l17 84h86l-18 -90
c65 -11 124 -48 155 -117zM296 556c-49 -2 -93 -30 -93 -80c0 -31 22 -52 63 -67zM389 193c0 35 -27 61 -67 75l-34 -166c55 5 101 36 101 91z" />
    <glyph glyph-name="percent" unicode="%" horiz-adv-x="1058" 
d="M990 132c0 -144 -69 -294 -245 -294c-113 0 -180 61 -180 164c0 144 70 294 245 294c116 0 180 -64 180 -164zM871 727l-569 -878h-109l569 878h109zM502 578c0 -144 -69 -294 -245 -294c-113 0 -180 61 -180 164c0 144 70 294 245 294c116 0 180 -64 180 -164zM870 129
c0 46 -24 72 -70 72c-70 0 -115 -93 -115 -196c0 -46 24 -72 70 -72c70 0 115 93 115 196zM382 575c0 46 -24 72 -70 72c-70 0 -115 -93 -115 -196c0 -46 24 -72 70 -72c70 0 115 93 115 196z" />
    <glyph glyph-name="ampersand" unicode="&#x26;" horiz-adv-x="660" 
d="M661 309c-31 -67 -79 -134 -132 -186l78 -123h-149l-29 45c-65 -39 -124 -60 -198 -60c-125 0 -224 56 -224 187c0 129 101 184 193 232c-24 40 -49 90 -49 138c0 132 114 200 239 200c89 0 165 -41 202 -118l-104 -59c-27 48 -56 82 -110 82c-57 0 -99 -42 -99 -91
c0 -28 12 -59 32 -90l159 -250c35 36 69 91 93 140zM372 135l-117 183c-60 -36 -113 -76 -113 -144c0 -58 46 -82 105 -82c44 0 91 21 125 43z" />
    <glyph glyph-name="quoteright" unicode="&#x2019;" horiz-adv-x="266" 
d="M237 668c0 -69 -65 -161 -117 -216h-68c25 28 85 111 85 149v3c-33 0 -58 21 -58 54c0 56 29 84 88 84c45 0 70 -27 70 -74z" />
    <glyph glyph-name="parenleft" unicode="(" horiz-adv-x="376" 
d="M462 742c-172 -145 -304 -358 -304 -599c0 -118 40 -242 105 -336h-124c-70 108 -100 209 -100 332c0 227 111 454 282 603h141z" />
    <glyph glyph-name="parenright" unicode=")" horiz-adv-x="376" 
d="M340 410c0 -227 -111 -454 -282 -603h-141c172 145 304 358 304 599c0 118 -40 242 -105 336h124c70 -108 100 -209 100 -332z" />
    <glyph glyph-name="asterisk" unicode="*" horiz-adv-x="475" 
d="M501 600l-129 -68l128 -69l-44 -77l-127 78l4 -143h-88l3 142l-125 -78l-44 77l128 70l-129 68l45 78l125 -77l-3 141h88l-4 -141l127 77z" />
    <glyph glyph-name="plus" unicode="+" horiz-adv-x="682" 
d="M624 239h-230v-230h-106v230h-230v107h230v230h106v-230h230v-107z" />
    <glyph glyph-name="comma" unicode="," horiz-adv-x="266" 
d="M174 57c0 -69 -65 -161 -117 -216h-68c25 28 85 111 85 149v3c-33 0 -58 21 -58 54c0 56 29 84 88 84c45 0 70 -27 70 -74z" />
    <glyph glyph-name="hyphen" unicode="-" horiz-adv-x="380" 
d="M356 315l-22 -110h-310l22 110h310z" />
    <glyph glyph-name="period" unicode="." horiz-adv-x="266" 
d="M174 75c0 -61 -30 -86 -87 -86c-41 0 -71 17 -71 56c0 59 29 86 88 86c38 0 70 -16 70 -56z" />
    <glyph glyph-name="slash" unicode="/" horiz-adv-x="476" 
d="M555 742l-530 -888h-116l530 888h116z" />
    <glyph glyph-name="zero" unicode="0" horiz-adv-x="621" 
d="M587 381c0 -210 -102 -396 -324 -396c-136 0 -229 78 -229 218c0 210 102 396 323 396c136 0 230 -77 230 -218zM455 379c0 73 -40 113 -109 113c-132 0 -180 -171 -180 -287c0 -72 40 -113 108 -113c133 0 181 170 181 287z" />
    <glyph glyph-name="one" unicode="1" horiz-adv-x="509" 
d="M424 103l-21 -103h-373l21 103h133l62 308c-47 -24 -111 -43 -157 -50l21 102c85 25 155 65 212 128h87l-99 -488h114z" />
    <glyph glyph-name="two" unicode="2" horiz-adv-x="575" 
d="M537 443c0 -90 -49 -148 -126 -203c-66 -47 -132 -88 -200 -131h284l-22 -109h-496l19 94c75 45 146 96 219 143c97 63 190 125 190 191c0 49 -53 63 -94 63c-66 0 -115 -24 -165 -74l-76 85c58 58 138 97 261 97c107 0 206 -46 206 -156z" />
    <glyph glyph-name="three" unicode="3" horiz-adv-x="541" 
d="M545 584l-20 -97l-196 -196c90 -20 142 -94 142 -186c0 -180 -131 -271 -301 -271c-83 0 -174 25 -223 99l92 72c29 -43 77 -64 132 -64c98 0 168 57 168 160c0 74 -50 107 -126 107c-26 0 -52 -3 -78 -9l15 71l211 206h-286l22 108h448z" />
    <glyph glyph-name="four" unicode="4" horiz-adv-x="622" 
d="M573 591l-97 -476h86l-21 -105h-86l-36 -176h-126l36 176h-339l23 115l443 466h117zM405 387l-258 -272h203z" />
    <glyph glyph-name="five" unicode="5" horiz-adv-x="575" 
d="M564 584l-22 -108h-287l-51 -177c32 12 67 17 98 17c116 0 209 -72 209 -199c0 -182 -122 -283 -306 -283c-85 0 -177 18 -233 99l92 72c35 -52 87 -64 145 -64c110 0 170 72 170 166c0 60 -39 106 -134 106c-43 0 -91 -6 -130 -32h-64l117 403h396z" />
    <glyph glyph-name="six" unicode="6" horiz-adv-x="610" 
d="M610 676l-77 -87c-37 36 -71 48 -122 48c-108 0 -173 -117 -212 -221c51 36 106 57 170 57c109 0 197 -77 197 -203c0 -170 -109 -285 -289 -285c-165 0 -239 113 -239 256c0 229 146 501 383 501c73 0 135 -15 189 -66zM434 259c0 77 -51 106 -112 106
c-43 0 -102 -20 -142 -40c-9 -35 -14 -70 -14 -103c0 -72 34 -130 118 -130c93 0 150 72 150 167z" />
    <glyph glyph-name="seven" unicode="7" horiz-adv-x="550" 
d="M590 584l-20 -97l-399 -653h-146l404 641h-231l-20 -99h-115l42 208h485z" />
    <glyph glyph-name="eight" unicode="8" horiz-adv-x="610" 
d="M606 585c0 -107 -75 -164 -172 -203c71 -41 116 -97 116 -173c0 -156 -140 -224 -296 -224c-116 0 -239 48 -239 176c0 129 83 185 195 229c-64 33 -102 83 -102 149c0 144 134 203 273 203c108 0 225 -40 225 -157zM475 573c0 53 -54 70 -101 70
c-69 0 -135 -28 -135 -98c0 -47 52 -82 88 -101c57 22 148 56 148 129zM418 206c0 54 -55 99 -101 122c-79 -31 -170 -77 -170 -158c0 -60 54 -86 115 -86c79 0 156 34 156 122z" />
    <glyph glyph-name="nine" unicode="9" horiz-adv-x="610" 
d="M572 343c0 -229 -124 -509 -388 -509c-73 0 -142 15 -204 66l70 91c37 -36 88 -52 139 -52c128 0 186 121 222 229c-54 -34 -106 -57 -170 -57c-109 0 -197 77 -197 203c0 170 112 285 282 285c163 0 246 -113 246 -256zM446 362c0 75 -44 130 -120 130
c-91 0 -150 -72 -150 -167c0 -77 51 -106 112 -106c43 0 103 23 142 40c11 37 16 70 16 103z" />
    <glyph glyph-name="colon" unicode=":" horiz-adv-x="266" 
d="M248 441c0 -61 -30 -86 -87 -86c-41 0 -71 17 -71 56c0 59 29 86 88 86c38 0 70 -16 70 -56zM174 75c0 -61 -30 -86 -87 -86c-41 0 -71 17 -71 56c0 59 29 86 88 86c38 0 70 -16 70 -56z" />
    <glyph glyph-name="semicolon" unicode=";" horiz-adv-x="266" 
d="M248 441c0 -61 -30 -86 -87 -86c-41 0 -71 17 -71 56c0 59 29 86 88 86c38 0 70 -16 70 -56zM174 57c0 -69 -65 -161 -117 -216h-68c25 28 85 111 85 149v3c-33 0 -58 21 -58 54c0 56 29 84 88 84c45 0 70 -27 70 -74z" />
    <glyph glyph-name="less" unicode="&#x3c;" horiz-adv-x="682" 
d="M625 14l-567 228v101l567 227v-109l-425 -169l425 -169v-109z" />
    <glyph glyph-name="equal" unicode="=" horiz-adv-x="682" 
d="M625 348h-567v106h567v-106zM625 120h-567v106h567v-106z" />
    <glyph glyph-name="greater" unicode="&#x3e;" horiz-adv-x="682" 
d="M625 242l-567 -228v109l425 169l-425 169v109l567 -227v-101z" />
    <glyph glyph-name="question" unicode="?" horiz-adv-x="529" 
d="M548 586c0 -148 -128 -219 -249 -278l-19 -98h-121l31 157c39 19 83 42 128 68c55 33 102 74 102 132c0 38 -30 67 -91 67c-56 0 -101 -29 -139 -74l-89 71c56 72 135 111 242 111c144 0 205 -69 205 -156zM281 75c0 -59 -29 -86 -87 -86c-36 0 -71 14 -71 56
c0 59 29 86 88 86c36 0 70 -15 70 -56z" />
    <glyph glyph-name="at" unicode="@" horiz-adv-x="998" 
d="M954 400c0 -192 -75 -415 -300 -415c-65 0 -101 21 -101 75c-45 -34 -104 -60 -155 -60c-104 0 -159 76 -159 181c0 168 105 354 293 354c41 0 79 -15 110 -36l43 28h74l-85 -390c-4 -20 -7 -33 -7 -48c0 -20 12 -22 32 -22c115 0 165 209 165 332
c0 178 -124 262 -282 262c-262 0 -445 -222 -445 -485c0 -190 117 -288 293 -288c77 0 155 7 230 25v-84c-78 -16 -164 -22 -247 -22c-221 0 -369 132 -369 365c0 302 217 570 540 570c259 0 370 -165 370 -342zM612 410c-19 14 -47 29 -75 29c-113 0 -173 -146 -173 -243
c0 -58 19 -98 80 -98c40 0 82 25 112 50z" />
    <glyph glyph-name="A" unicode="A" horiz-adv-x="691" 
d="M615 0h-136l-21 169h-274l-88 -169h-141l385 727h180zM445 279l-37 320l-169 -320h206z" />
    <glyph glyph-name="B" unicode="B" horiz-adv-x="655" 
d="M627 566c0 -93 -53 -147 -149 -178c80 -13 129 -66 129 -143c0 -180 -154 -245 -323 -245h-265l148 727h221c144 0 239 -41 239 -161zM488 543c0 49 -37 72 -110 72h-97l-36 -179h83c78 0 160 27 160 107zM465 246c0 70 -75 82 -131 82h-111l-44 -215h98
c95 0 188 26 188 133z" />
    <glyph glyph-name="C" unicode="C" horiz-adv-x="678" 
d="M728 596l-111 -57c-34 70 -91 91 -162 91c-184 0 -255 -195 -255 -351c0 -106 55 -182 152 -182c73 0 128 31 185 73l65 -99c-80 -60 -164 -86 -263 -86c-170 0 -281 111 -281 292c0 261 143 465 408 465c107 0 221 -39 262 -146z" />
    <glyph glyph-name="D" unicode="D" horiz-adv-x="710" 
d="M686 459c0 -292 -141 -459 -453 -459h-214l148 727h188c205 0 331 -78 331 -268zM544 455c0 132 -87 158 -209 158h-54l-102 -499h56c236 0 309 146 309 341z" />
    <glyph glyph-name="E" unicode="E" horiz-adv-x="605" 
d="M639 727l-24 -115h-335l-36 -178h303l-22 -112h-303l-42 -207h335l-24 -115h-472l148 727h472z" />
    <glyph glyph-name="F" unicode="F" horiz-adv-x="582" 
d="M639 727l-24 -115h-335l-37 -186h302l-23 -112h-302l-64 -314h-137l148 727h472z" />
    <glyph glyph-name="G" unicode="G" horiz-adv-x="735" 
d="M738 596l-111 -57c-33 72 -90 91 -165 91c-190 0 -262 -195 -262 -356c0 -112 65 -177 173 -177c46 0 95 12 140 31l24 123h-135l24 116h272l-63 -310c-87 -45 -186 -72 -279 -72c-208 0 -298 129 -298 283c0 272 141 474 417 474c110 0 222 -36 263 -146z" />
    <glyph glyph-name="H" unicode="H" horiz-adv-x="706" 
d="M729 727l-148 -727h-137l65 318h-288l-65 -318h-137l148 727h137l-60 -295h288l60 295h137z" />
    <glyph glyph-name="I" unicode="I" horiz-adv-x="409" 
d="M462 727l-22 -106h-94l-104 -515h94l-22 -106h-325l22 106h94l104 515h-94l22 106h325z" />
    <glyph glyph-name="J" unicode="J" horiz-adv-x="465" 
d="M493 727l-106 -523c-33 -162 -107 -219 -256 -219c-55 0 -117 12 -149 25l45 111c44 -18 77 -24 112 -24c74 0 96 33 119 147l76 374h-22c-52 0 -107 -18 -162 -51l-51 97c78 45 156 63 253 63h141z" />
    <glyph glyph-name="K" unicode="K" horiz-adv-x="663" 
d="M746 727l-306 -287l154 -440h-147l-114 340l-133 -124l-44 -216h-137l148 727h137l-64 -312l331 312h175z" />
    <glyph glyph-name="L" unicode="L" horiz-adv-x="564" 
d="M506 115l-24 -115h-463l148 727h137l-124 -612h326z" />
    <glyph glyph-name="M" unicode="M" horiz-adv-x="823" 
d="M846 727l-148 -727h-130l110 542l-248 -357h-70l-101 355l-110 -540h-130l148 727h162l98 -352l239 352h180z" />
    <glyph glyph-name="N" unicode="N" horiz-adv-x="725" 
d="M748 727l-148 -727h-151l-189 555l-113 -555h-128l148 727h167l180 -523l106 523h128z" />
    <glyph glyph-name="O" unicode="O" horiz-adv-x="769" 
d="M745 450c0 -253 -128 -465 -395 -465c-196 0 -292 128 -292 291c0 255 128 466 395 466c198 0 292 -130 292 -292zM603 448c0 104 -51 182 -158 182c-183 0 -245 -199 -245 -351c0 -104 51 -182 158 -182c183 0 245 199 245 351z" />
    <glyph glyph-name="P" unicode="P" horiz-adv-x="622" 
d="M632 525c0 -185 -131 -276 -338 -276h-87l-51 -249h-137l148 727h225c127 0 240 -60 240 -202zM490 517c0 71 -52 95 -121 95h-89l-50 -247h89c111 0 171 46 171 152z" />
    <glyph glyph-name="Q" unicode="Q" horiz-adv-x="769" 
d="M745 450c0 -238 -113 -439 -348 -463c-3 -7 -6 -16 -6 -24c0 -36 28 -46 107 -46c46 0 112 13 136 19l15 -96c-40 -10 -135 -26 -200 -26c-124 0 -196 28 -196 118c0 19 6 46 10 63c-137 32 -205 145 -205 281c0 255 128 466 395 466c198 0 292 -130 292 -292zM603 448
c0 104 -51 182 -158 182c-183 0 -245 -199 -245 -351c0 -104 51 -182 158 -182c183 0 245 199 245 351z" />
    <glyph glyph-name="R" unicode="R" horiz-adv-x="655" 
d="M647 550c0 -105 -54 -175 -163 -205c57 -18 69 -61 71 -114l10 -231h-135l-9 212c-2 54 -16 86 -75 86h-129l-61 -298h-137l148 727h259c118 0 221 -51 221 -177zM505 538c0 60 -52 77 -109 77h-115l-42 -208h115c85 0 151 28 151 131z" />
    <glyph glyph-name="S" unicode="S" horiz-adv-x="586" 
d="M603 604l-108 -59c-35 67 -86 85 -152 85c-59 0 -130 -33 -130 -96c0 -55 44 -71 129 -98c108 -34 214 -81 214 -206c0 -169 -142 -245 -303 -245c-106 0 -209 38 -260 149l113 62c32 -71 88 -99 158 -99c75 0 152 32 152 111c0 54 -42 78 -125 104
c-113 35 -218 75 -218 200c0 124 99 230 285 230c103 0 200 -36 245 -138z" />
    <glyph glyph-name="T" unicode="T" horiz-adv-x="605" 
d="M686 727l-24 -115h-220l-124 -612h-137l124 612h-220l24 115h577z" />
    <glyph glyph-name="U" unicode="U" horiz-adv-x="697" 
d="M724 727l-89 -441c-42 -207 -114 -301 -333 -301c-132 0 -244 30 -244 181c0 40 6 80 14 119l89 442h137l-87 -431c-9 -43 -16 -85 -16 -106c0 -71 40 -93 113 -93c120 0 167 78 191 196l88 434h137z" />
    <glyph glyph-name="V" unicode="V" horiz-adv-x="664" 
d="M742 727l-395 -727h-146l-98 727h135l66 -560l297 560h141z" />
    <glyph glyph-name="W" unicode="W" horiz-adv-x="906" 
d="M981 727l-313 -727h-126l-71 391l-218 -391h-131l-17 727h130l4 -527l202 365h116l70 -361l217 523h137z" />
    <glyph glyph-name="X" unicode="X" horiz-adv-x="649" 
d="M721 727l-303 -366l157 -361h-144l-106 259l-207 -259h-157l308 372l-154 355h144l103 -252l202 252h157z" />
    <glyph glyph-name="Y" unicode="Y" horiz-adv-x="647" 
d="M728 727l-332 -433l-60 -294h-137l58 286l-153 441h142l102 -308l233 308h147z" />
    <glyph glyph-name="Z" unicode="Z" horiz-adv-x="637" 
d="M675 727l-20 -97l-463 -515h369l-24 -115h-550l21 102l458 510h-338l24 115h523z" />
    <glyph glyph-name="bracketleft" unicode="[" horiz-adv-x="367" 
d="M423 727l-18 -90h-147l-150 -740h147l-18 -90h-263l186 920h263z" />
    <glyph glyph-name="backslash" unicode="\" horiz-adv-x="476" 
d="M398 -146h-104l-170 888h104z" />
    <glyph glyph-name="bracketright" unicode="]" horiz-adv-x="367" 
d="M397 727l-186 -920h-263l18 90h147l150 740h-147l18 90h263z" />
    <glyph glyph-name="asciicircum" unicode="^" horiz-adv-x="577" 
d="M596 348h-117l-144 262l-145 -262h-117l214 386h95z" />
    <glyph glyph-name="underscore" unicode="_" horiz-adv-x="500" 
d="M432 -125h-512v50h512v-50z" />
    <glyph glyph-name="quoteleft" unicode="&#x2018;" horiz-adv-x="266" 
d="M245 742c-25 -28 -85 -111 -85 -149v-3c33 0 58 -21 58 -54c0 -56 -29 -84 -88 -84c-45 0 -70 27 -70 74c0 69 65 161 117 216h68z" />
    <glyph glyph-name="a" unicode="a" horiz-adv-x="587" 
d="M574 527l-107 -527h-94l2 74c-57 -63 -113 -89 -175 -89c-129 0 -169 101 -169 207c0 171 99 343 291 343c40 0 91 -12 123 -24l85 16h44zM428 421c-35 15 -70 24 -105 24c-111 0 -163 -154 -163 -253c0 -64 20 -113 75 -113c65 0 124 78 147 117z" />
    <glyph glyph-name="b" unicode="b" horiz-adv-x="585" 
d="M554 329c0 -173 -91 -344 -276 -344c-42 0 -98 9 -138 24l-85 -16h-44l148 734h125l-51 -253c49 38 105 61 155 61c114 0 166 -77 166 -206zM425 328c0 71 -19 113 -78 113c-41 0 -95 -37 -136 -72l-54 -270c42 -17 75 -24 108 -24c116 0 160 152 160 253z" />
    <glyph glyph-name="c" unicode="c" horiz-adv-x="501" 
d="M515 432l-94 -50c-22 40 -51 53 -96 53c-121 0 -165 -143 -165 -244c0 -68 30 -106 98 -106c41 0 85 18 119 40l48 -90c-56 -32 -111 -50 -181 -50c-136 0 -213 74 -213 206c0 193 106 344 301 344c77 0 151 -29 183 -103z" />
    <glyph glyph-name="d" unicode="d" horiz-adv-x="587" 
d="M614 727l-147 -727h-94l2 74c-57 -63 -113 -89 -175 -89c-129 0 -169 101 -169 207c0 171 99 343 291 343c40 0 91 -12 123 -24l44 216h125zM428 421c-35 15 -70 24 -105 24c-111 0 -163 -154 -163 -253c0 -64 20 -113 75 -113c65 0 124 78 147 117z" />
    <glyph glyph-name="e" unicode="e" horiz-adv-x="535" 
d="M522 389c0 -107 -114 -155 -254 -166l-106 -8c-2 -11 -2 -18 -2 -29c0 -68 31 -101 101 -101c37 0 77 17 116 40l48 -90c-60 -37 -124 -50 -194 -50c-123 0 -200 75 -200 206c0 178 112 344 299 344c110 0 192 -42 192 -146zM402 385c0 39 -27 57 -75 57
c-78 0 -129 -63 -149 -137l61 5c87 7 163 24 163 75z" />
    <glyph glyph-name="f" unicode="f" horiz-adv-x="338" 
d="M470 725l-35 -97c-17 7 -49 14 -74 14c-47 0 -71 -20 -84 -84l-8 -38h107l-19 -93h-106l-92 -451c-21 -102 -62 -169 -205 -169c-29 0 -66 5 -96 15l35 97c17 -7 44 -12 60 -12c51 0 71 20 84 84l88 436h-74l19 93h74l11 53c21 102 62 169 205 169c42 0 80 -7 110 -17z
" />
    <glyph glyph-name="g" unicode="g" horiz-adv-x="593" 
d="M627 517l-18 -95c-13 4 -21 5 -32 5c-27 0 -41 -25 -50 -69l-69 -339c-31 -153 -107 -212 -268 -212c-59 0 -139 13 -188 36l42 93c40 -22 99 -36 149 -36c83 0 122 31 138 108l12 59c-45 -46 -100 -67 -154 -67c-111 0 -158 93 -158 197c0 170 100 338 283 338
c50 0 104 -15 147 -38c26 30 59 31 93 31c18 0 52 -4 73 -11zM419 417c-35 19 -70 28 -104 28c-104 0 -155 -148 -155 -245c0 -53 15 -106 71 -106c48 0 108 58 141 117l33 161c4 18 11 39 14 45z" />
    <glyph glyph-name="h" unicode="h" horiz-adv-x="578" 
d="M540 413c0 -15 -3 -43 -8 -66l-70 -347h-125l62 306c4 22 12 66 12 75c0 32 -12 45 -47 45c-43 0 -104 -28 -154 -66l-73 -360h-125l147 727h125l-52 -257c48 34 102 65 166 65c84 0 142 -39 142 -122z" />
    <glyph glyph-name="i" unicode="i" horiz-adv-x="313" 
d="M317 664c0 -56 -35 -77 -88 -77c-41 0 -70 17 -70 56c0 57 35 78 88 78c41 0 70 -17 70 -57zM281 478c0 -20 -7 -57 -14 -91l-78 -387h-125l72 359c3 13 8 41 8 49c0 6 -2 11 -12 11c-8 0 -32 -13 -51 -25l-43 82c65 41 114 59 166 59c30 0 77 -12 77 -57z" />
    <glyph glyph-name="j" unicode="j" horiz-adv-x="313" 
d="M317 664c0 -56 -35 -77 -88 -77c-41 0 -70 17 -70 56c0 57 35 78 88 78c41 0 70 -17 70 -57zM281 478c0 -20 -7 -57 -14 -91l-78 -387c-25 -122 -64 -193 -210 -193c-26 0 -70 6 -92 11l27 97c24 -7 49 -10 77 -10c45 0 61 35 73 97l72 357c3 13 8 41 8 49
c0 6 -2 11 -12 11c-8 0 -32 -13 -51 -25l-43 82c65 41 114 59 166 59c30 0 77 -12 77 -57z" />
    <glyph glyph-name="k" unicode="k" horiz-adv-x="528" 
d="M543 520l-231 -217l82 -175c16 -33 29 -45 44 -45c9 0 23 2 38 7l16 -92c-27 -7 -62 -13 -89 -13c-60 0 -90 33 -117 93l-64 140l-50 -47l-35 -171h-125l148 727h125l-79 -387l187 180h150z" />
    <glyph glyph-name="l" unicode="l" horiz-adv-x="313" 
d="M296 760l-120 -593c-3 -15 -6 -31 -6 -45c0 -19 8 -36 32 -36c13 0 33 1 49 6l14 -92c-35 -9 -79 -15 -109 -15c-64 0 -116 20 -116 97c0 21 4 51 8 70l109 540z" />
    <glyph glyph-name="m" unicode="m" horiz-adv-x="859" 
d="M821 414c0 -12 -3 -41 -7 -63l-71 -351h-125l62 306c5 24 12 65 12 76c0 32 -10 44 -37 44c-38 0 -106 -38 -142 -66l-73 -360h-125l62 306c5 24 12 60 12 76c0 32 -10 44 -37 44c-37 0 -103 -35 -142 -66l-73 -360h-125l105 520h117l-12 -58c42 35 101 73 166 73
c59 0 111 -22 125 -81c50 40 108 81 178 81c85 0 130 -44 130 -121z" />
    <glyph glyph-name="n" unicode="n" horiz-adv-x="578" 
d="M540 413c0 -15 -3 -43 -8 -66l-70 -347h-125l62 306c4 22 12 66 12 75c0 32 -12 45 -47 45c-43 0 -104 -28 -154 -66l-73 -360h-125l105 520h117l-12 -58c53 40 108 73 176 73c84 0 142 -39 142 -122z" />
    <glyph glyph-name="o" unicode="o" horiz-adv-x="579" 
d="M548 329c0 -190 -99 -344 -302 -344c-122 0 -215 70 -215 206c0 177 89 344 301 344c123 0 216 -70 216 -206zM419 328c0 66 -33 107 -100 107c-118 0 -159 -144 -159 -244c0 -65 34 -106 98 -106c120 0 161 143 161 243z" />
    <glyph glyph-name="p" unicode="p" horiz-adv-x="585" 
d="M554 329c0 -167 -83 -344 -266 -344c-55 0 -106 15 -144 48l-46 -226h-125l144 713h94l12 -50c42 36 95 65 157 65c114 0 174 -77 174 -206zM425 328c0 58 -19 113 -82 113c-46 0 -92 -35 -130 -65l-51 -252c33 -29 62 -45 104 -45c114 0 159 136 159 249z" />
    <glyph glyph-name="q" unicode="q" horiz-adv-x="587" 
d="M574 527l-146 -720h-125l50 245c-38 -38 -91 -67 -153 -67c-129 0 -169 101 -169 207c0 171 99 343 291 343c40 0 91 -12 123 -24l85 16h44zM428 421c-35 15 -70 24 -105 24c-111 0 -163 -154 -163 -253c0 -64 20 -113 75 -113c65 0 124 78 147 117z" />
    <glyph glyph-name="r" unicode="r" horiz-adv-x="402" 
d="M438 520l-38 -122c-12 4 -27 5 -43 5c-58 0 -110 -32 -152 -66l-68 -337h-125l105 520h117l-18 -85c60 54 110 93 171 93c18 0 39 -3 51 -8z" />
    <glyph glyph-name="s" unicode="s" horiz-adv-x="481" 
d="M466 438l-94 -51c-20 39 -56 54 -108 54c-40 0 -87 -17 -87 -61c0 -32 43 -50 93 -67c72 -25 160 -60 160 -146c0 -141 -116 -182 -240 -182c-74 0 -161 23 -200 103l93 55c23 -47 67 -64 112 -64c50 0 109 11 109 66c0 26 -34 42 -78 58c-74 26 -175 59 -175 154
c0 122 102 178 222 178c76 0 157 -23 193 -97z" />
    <glyph glyph-name="t" unicode="t" horiz-adv-x="363" 
d="M385 520l-19 -93h-121l-49 -245c-4 -19 -10 -45 -10 -57c0 -34 15 -41 47 -41c15 0 42 5 56 10l14 -91c-34 -10 -77 -18 -115 -18c-77 0 -130 21 -130 106c0 25 5 51 10 76l52 260h-74l19 93h74l29 144l138 62l-42 -206h121z" />
    <glyph glyph-name="u" unicode="u" horiz-adv-x="578" 
d="M561 520l-105 -520h-117l12 58c-53 -40 -108 -73 -176 -73c-84 0 -142 39 -142 122c0 15 3 43 8 66l70 347h125l-62 -306c-4 -22 -12 -66 -12 -75c0 -32 12 -45 47 -45c43 0 106 32 154 66l73 360h125z" />
    <glyph glyph-name="v" unicode="v" horiz-adv-x="515" 
d="M549 520l-299 -520h-99l-89 520h121l47 -352l189 352h130z" />
    <glyph glyph-name="w" unicode="w" horiz-adv-x="743" 
d="M779 520l-250 -520h-91l-70 259l-170 -259h-86l-43 520h115l17 -349l154 244h74l69 -242l156 347h125z" />
    <glyph glyph-name="x" unicode="x" horiz-adv-x="513" 
d="M550 520l-226 -265l121 -255h-130l-73 170l-135 -170h-144l227 266l-120 254h130l72 -169l135 169h143z" />
    <glyph glyph-name="y" unicode="y" horiz-adv-x="543" 
d="M583 520l-332 -562c-68 -115 -133 -151 -228 -151c-32 0 -72 6 -104 16l34 96c26 -11 52 -16 81 -16c44 0 72 29 115 100l15 25l-94 492h123l58 -350l203 350h129z" />
    <glyph glyph-name="z" unicode="z" horiz-adv-x="502" 
d="M506 520l-15 -75l-320 -351h257l-19 -94h-418l15 77l319 350h-242l19 93h404z" />
    <glyph glyph-name="braceleft" unicode="{" horiz-adv-x="448" 
d="M509 742l-19 -90h-49c-93 0 -108 -57 -122 -129c-26 -132 -44 -206 -163 -245c55 -23 80 -74 80 -132c0 -33 -8 -68 -14 -101c-6 -28 -13 -58 -13 -85c0 -55 28 -63 129 -63l-19 -90h-56c-94 0 -169 27 -169 135c0 68 26 133 26 201c0 69 -28 90 -106 90l20 96h15
c104 0 127 64 158 216c28 137 85 197 236 197h66z" />
    <glyph glyph-name="bar" unicode="|" horiz-adv-x="364" 
d="M249 -224h-107v970h107v-970z" />
    <glyph glyph-name="braceright" unicode="}" horiz-adv-x="448" 
d="M432 316l-20 -96h-15c-104 0 -127 -64 -158 -216c-28 -137 -85 -197 -236 -197h-66l19 90h49c93 0 108 57 122 129c26 132 44 206 163 245c-55 23 -80 74 -80 132c0 33 8 68 14 101c6 28 13 58 13 85c0 55 -28 63 -129 63l19 90h56c94 0 169 -27 169 -135
c0 -68 -26 -133 -26 -201c0 -69 28 -90 106 -90z" />
    <glyph glyph-name="asciitilde" unicode="~" horiz-adv-x="667" 
d="M617 273c-46 -35 -108 -70 -167 -70c-90 0 -162 70 -248 70c-43 0 -100 -31 -152 -65v104c42 31 103 70 171 70c85 0 160 -70 244 -70c46 0 109 36 152 65v-104z" />
    <glyph glyph-name="exclamdown" unicode="&#xa1;" horiz-adv-x="286" 
d="M260 479c0 -59 -29 -86 -88 -86c-38 0 -70 16 -70 56c0 61 30 86 87 86c41 0 71 -17 71 -56zM211 322l-83 -515h-142l123 515h102z" />
    <glyph glyph-name="cent" unicode="&#xa2;" horiz-adv-x="509" 
d="M560 742l-103 -209c25 -17 45 -40 58 -70l-94 -50c-4 8 -9 14 -13 20l-156 -317h6c43 0 86 19 119 40l48 -90c-56 -32 -111 -50 -181 -50c-14 0 -27 1 -40 2l-91 -184h-89l102 207c-62 32 -95 94 -95 181c0 193 106 344 301 344c17 0 34 -1 50 -4l89 180h89zM335 466h-10
c-121 0 -165 -143 -165 -244c0 -31 6 -55 19 -73z" />
    <glyph glyph-name="sterling" unicode="&#xa3;" horiz-adv-x="636" 
d="M642 615l-101 -58c-27 56 -71 77 -129 77c-92 0 -148 -52 -148 -148c0 -33 4 -65 5 -98h187l-18 -91h-174c-10 -77 -42 -150 -99 -188h388l-22 -109h-552l21 106c83 18 127 114 135 191h-83l18 91h67c-2 29 -6 57 -6 86c0 179 107 268 280 268c92 0 186 -32 231 -127z
" />
    <glyph glyph-name="fraction" unicode="&#x2044;" horiz-adv-x="140" 
d="M409 727l-569 -878h-109l569 878h109z" />
    <glyph glyph-name="yen" unicode="&#xa5;" horiz-adv-x="641" 
d="M707 727l-239 -317h144l-15 -77h-187l-37 -49l-5 -25h214l-16 -77h-212l-34 -182h-137l37 182h-208l16 77h208l7 36l-13 38h-187l15 77h145l-110 317h142l100 -303l225 303h147z" />
    <glyph glyph-name="florin" unicode="&#x192;" horiz-adv-x="498" 
d="M533 724l-37 -101c-22 9 -58 19 -84 19c-31 0 -69 -11 -84 -77l-16 -69h128l-20 -93h-127c-1 -3 -91 -429 -92 -430c-14 -65 -61 -166 -213 -166c-41 0 -89 9 -113 18l34 98c21 -8 58 -16 85 -16c55 0 75 26 91 102l83 394h-81l21 93h81l15 70c21 97 77 176 220 176
c21 0 44 -3 64 -7c18 -3 34 -7 45 -11z" />
    <glyph glyph-name="section" unicode="&#xa7;" horiz-adv-x="501" 
d="M539 654l-93 -71c-26 34 -66 57 -115 57c-42 0 -91 -16 -91 -63c0 -31 39 -61 103 -105c63 -44 133 -96 133 -177c0 -90 -67 -148 -141 -193c36 -31 55 -70 55 -111c0 -129 -113 -184 -235 -184c-71 0 -144 24 -190 88l93 71c27 -37 70 -57 117 -57c36 0 89 15 89 63
c0 31 -32 56 -104 102c-65 41 -135 91 -135 177c0 90 54 146 138 196c-28 28 -49 65 -49 111c0 131 118 184 233 184c80 0 152 -29 192 -88zM355 268c0 44 -76 94 -110 117c-37 -20 -99 -58 -99 -106s74 -91 110 -114c35 21 99 57 99 103z" />
    <glyph glyph-name="currency" unicode="&#xa4;" horiz-adv-x="642" 
d="M495 241l70 -66c-21 -20 -41 -41 -61 -61l-69 68c-34 -24 -75 -35 -115 -35c-34 0 -77 9 -115 35l-69 -68l-60 61l69 66c-24 39 -35 79 -35 113s10 76 35 113l-69 67l60 61l69 -68c39 26 81 35 115 35c37 0 80 -11 115 -35l69 68c20 -20 40 -41 61 -61
c-24 -23 -47 -44 -70 -67c27 -40 35 -81 35 -113c0 -34 -10 -74 -35 -113zM444 355c0 71 -61 122 -123 122c-71 0 -125 -56 -125 -122c0 -67 56 -123 124 -123s124 56 124 123z" />
    <glyph glyph-name="quotesingle" unicode="'" horiz-adv-x="272" 
d="M271 742l-78 -269h-80l30 269h128z" />
    <glyph glyph-name="quotedblleft" unicode="&#x201c;" horiz-adv-x="496" 
d="M526 742c-25 -28 -85 -111 -85 -149v-3c33 0 58 -21 58 -54c0 -56 -29 -84 -88 -84c-45 0 -70 27 -70 74c0 69 65 161 117 216h68zM296 742c-25 -28 -85 -111 -85 -149v-3c33 0 58 -21 58 -54c0 -56 -29 -84 -88 -84c-45 0 -70 27 -70 74c0 69 65 161 117 216h68z" />
    <glyph glyph-name="guillemotleft" unicode="&#xab;" horiz-adv-x="643" 
d="M671 494l-230 -240l126 -227h-127l-131 235l222 232h140zM382 494l-230 -240l126 -227h-127l-131 235l222 232h140z" />
    <glyph glyph-name="guilsinglleft" unicode="&#x2039;" horiz-adv-x="354" 
d="M382 494l-230 -240l126 -227h-127l-131 235l222 232h140z" />
    <glyph glyph-name="guilsinglright" unicode="&#x203a;" horiz-adv-x="354" 
d="M334 259l-222 -232h-140l230 240l-126 227h127z" />
    <glyph glyph-name="endash" unicode="&#x2013;" horiz-adv-x="500" 
d="M514 307l-20 -94h-508l20 94h508z" />
    <glyph glyph-name="dagger" unicode="&#x2020;" horiz-adv-x="544" 
d="M560 513l-23 -116l-192 11l-107 -601h-124l138 601l-195 -11l23 116l191 -12l36 241h119l-61 -241z" />
    <glyph glyph-name="daggerdbl" unicode="&#x2021;" horiz-adv-x="544" 
d="M553 524l-23 -118l-182 12l-21 -144l-37 -144l186 12l-24 -118l-181 12l-34 -229h-120l60 229l-187 -12l24 118l182 -12l21 144l37 144l-186 -12l24 118l181 -12l34 230h120l-60 -230z" />
    <glyph glyph-name="periodcentered" unicode="&#xb7;" horiz-adv-x="266" 
d="M207 307c0 -61 -30 -86 -87 -86c-41 0 -71 17 -71 56c0 59 29 86 88 86c38 0 70 -16 70 -56z" />
    <glyph glyph-name="paragraph" unicode="&#xb6;" horiz-adv-x="624" 
d="M695 727l-18 -88h-81l-168 -832h-105l168 832h-79l-168 -832h-105l100 496c-94 0 -173 58 -173 165c0 173 121 259 286 259h343z" />
    <glyph glyph-name="bullet" unicode="&#x2022;" horiz-adv-x="389" 
d="M356 365c0 -79 -65 -143 -144 -143s-143 64 -143 143s64 143 143 143s144 -64 144 -143z" />
    <glyph glyph-name="quotesinglbase" unicode="&#x201a;" horiz-adv-x="266" 
d="M174 57c0 -69 -65 -161 -117 -216h-68c25 28 85 111 85 149v3c-33 0 -58 21 -58 54c0 56 29 84 88 84c45 0 70 -27 70 -74z" />
    <glyph glyph-name="quotedblbase" unicode="&#x201e;" horiz-adv-x="496" 
d="M404 57c0 -69 -65 -161 -117 -216h-68c25 28 85 111 85 149v3c-33 0 -58 21 -58 54c0 56 29 84 88 84c45 0 70 -27 70 -74zM174 57c0 -69 -65 -161 -117 -216h-68c25 28 85 111 85 149v3c-33 0 -58 21 -58 54c0 56 29 84 88 84c45 0 70 -27 70 -74z" />
    <glyph glyph-name="quotedblright" unicode="&#x201d;" horiz-adv-x="496" 
d="M517 668c0 -69 -65 -161 -117 -216h-68c25 28 85 111 85 149v3c-33 0 -58 21 -58 54c0 56 29 84 88 84c45 0 70 -27 70 -74zM287 668c0 -69 -65 -161 -117 -216h-68c25 28 85 111 85 149v3c-33 0 -58 21 -58 54c0 56 29 84 88 84c45 0 70 -27 70 -74z" />
    <glyph glyph-name="guillemotright" unicode="&#xbb;" horiz-adv-x="643" 
d="M623 259l-222 -232h-140l230 240l-126 227h127zM334 259l-222 -232h-140l230 240l-126 227h127z" />
    <glyph glyph-name="ellipsis" unicode="&#x2026;" horiz-adv-x="1000" 
d="M875 75c0 -61 -30 -86 -87 -86c-41 0 -71 17 -71 56c0 59 29 86 88 86c38 0 70 -16 70 -56zM542 75c0 -61 -30 -86 -87 -86c-41 0 -71 17 -71 56c0 59 29 86 88 86c38 0 70 -16 70 -56zM209 75c0 -61 -30 -86 -87 -86c-41 0 -71 17 -71 56c0 59 29 86 88 86
c38 0 70 -16 70 -56z" />
    <glyph glyph-name="perthousand" unicode="&#x2030;" horiz-adv-x="1537" 
d="M1469 132c0 -144 -69 -294 -245 -294c-113 0 -180 61 -180 164c0 144 70 294 245 294c116 0 180 -64 180 -164zM990 132c0 -144 -69 -294 -245 -294c-113 0 -180 61 -180 164c0 144 70 294 245 294c116 0 180 -64 180 -164zM871 727l-569 -878h-109l569 878h109zM502 578
c0 -144 -69 -294 -245 -294c-113 0 -180 61 -180 164c0 144 70 294 245 294c116 0 180 -64 180 -164zM1349 129c0 46 -24 72 -70 72c-70 0 -115 -93 -115 -196c0 -46 24 -72 70 -72c70 0 115 93 115 196zM870 129c0 46 -24 72 -70 72c-70 0 -115 -93 -115 -196
c0 -46 24 -72 70 -72c70 0 115 93 115 196zM382 575c0 46 -24 72 -70 72c-70 0 -115 -93 -115 -196c0 -46 24 -72 70 -72c70 0 115 93 115 196z" />
    <glyph glyph-name="questiondown" unicode="&#xbf;" horiz-adv-x="529" 
d="M404 479c0 -59 -29 -86 -87 -86c-36 0 -71 14 -71 56c0 59 29 86 88 86c36 0 70 -15 70 -56zM433 -82c-56 -72 -135 -111 -242 -111c-144 0 -205 69 -205 156c0 148 128 219 249 278l17 89h121l-29 -148c-39 -19 -83 -42 -128 -68c-55 -33 -102 -74 -102 -132
c0 -38 30 -67 91 -67c56 0 101 29 139 74z" />
    <glyph glyph-name="grave" unicode="`" horiz-adv-x="500" 
d="M401 590h-88l-130 176h128z" />
    <glyph glyph-name="acute" unicode="&#xb4;" horiz-adv-x="500" 
d="M488 766l-193 -176h-100l152 176h141z" />
    <glyph glyph-name="circumflex" unicode="&#x2c6;" horiz-adv-x="500" 
d="M481 590h-92l-64 101l-109 -101h-99l158 176h118z" />
    <glyph glyph-name="tilde" unicode="&#x2dc;" horiz-adv-x="500" 
d="M529 745c-20 -78 -65 -134 -149 -134c-69 0 -90 49 -130 49c-27 0 -46 -19 -53 -49h-79c20 79 67 134 148 134c68 0 94 -49 130 -49c25 0 43 12 55 49h78z" />
    <glyph glyph-name="macron" unicode="&#xaf;" horiz-adv-x="500" 
d="M496 720l-18 -85h-314l18 85h314z" />
    <glyph glyph-name="breve" unicode="&#x2d8;" horiz-adv-x="500" 
d="M518 747c-26 -54 -83 -138 -211 -138c-123 0 -149 81 -154 138h88c12 -33 27 -54 76 -54c47 0 87 18 114 54h87z" />
    <glyph glyph-name="dotaccent" unicode="&#x2d9;" horiz-adv-x="500" 
d="M393 666c0 -47 -30 -74 -79 -74c-31 0 -62 18 -62 52c0 50 30 76 78 76c35 0 63 -18 63 -54z" />
    <glyph glyph-name="dieresis" unicode="&#xa8;" horiz-adv-x="500" 
d="M500 664c0 -45 -29 -72 -76 -72c-30 0 -59 17 -59 50c0 48 29 74 75 74c34 0 60 -18 60 -52zM282 664c0 -45 -29 -72 -76 -72c-30 0 -59 17 -59 50c0 48 29 74 75 74c34 0 60 -18 60 -52z" />
    <glyph glyph-name="ring" unicode="&#x2da;" horiz-adv-x="500" 
d="M423 690c0 -70 -48 -117 -123 -117c-50 0 -93 28 -93 81c0 70 48 117 123 117c50 0 93 -27 93 -81zM366 682c0 24 -19 36 -42 36c-36 0 -60 -25 -60 -56c0 -24 19 -36 42 -36c36 0 60 25 60 56z" />
    <glyph glyph-name="cedilla" unicode="&#xb8;" horiz-adv-x="500" 
d="M355 -89c0 -83 -82 -104 -149 -104c-37 0 -88 7 -117 21l30 66c29 -11 62 -19 93 -19c22 0 48 7 48 34c0 31 -47 36 -63 36l44 64h73l-19 -26c35 -9 60 -35 60 -72z" />
    <glyph glyph-name="hungarumlaut" unicode="&#x2dd;" horiz-adv-x="500" 
d="M571 766l-173 -176h-100l134 176h139zM381 766l-173 -176h-100l134 176h139z" />
    <glyph glyph-name="ogonek" unicode="&#x2db;" horiz-adv-x="500" 
d="M386 -156c-44 -21 -91 -37 -140 -37c-54 0 -102 23 -102 83c0 45 29 103 53 141h88c-18 -28 -39 -69 -39 -103c0 -27 16 -42 43 -42s51 9 75 21z" />
    <glyph glyph-name="caron" unicode="&#x2c7;" horiz-adv-x="500" 
d="M501 766l-158 -176h-118l-88 176h92l64 -101l109 101h99z" />
    <glyph glyph-name="emdash" unicode="&#x2014;" horiz-adv-x="1000" 
d="M1014 307l-20 -94h-1008l20 94h1008z" />
    <glyph glyph-name="AE" unicode="&#xc6;" horiz-adv-x="921" 
d="M955 727l-24 -115h-304l-36 -178h272l-22 -112h-272l-42 -207h304l-24 -115h-441l34 169h-217l-95 -169h-142l415 727h594zM491 612h-57l-189 -333h178z" />
    <glyph glyph-name="ordfeminine" unicode="&#xaa;" horiz-adv-x="400" 
d="M449 737l-71 -343h-72l1 39c-35 -33 -69 -48 -107 -48c-89 0 -116 68 -116 136c0 109 66 221 195 221c26 0 59 -6 80 -14l55 9h35zM341 662c-21 8 -41 13 -61 13c-67 0 -101 -91 -101 -154c0 -40 14 -66 44 -66c38 0 74 45 89 70z" />
    <glyph glyph-name="Lslash" unicode="&#x141;" horiz-adv-x="564" 
d="M506 115l-24 -115h-463l51 249l-84 -57l23 112l83 56l75 367h137l-52 -259l144 98l-23 -112l-144 -98l-49 -241h326z" />
    <glyph glyph-name="Oslash" unicode="&#xd8;" horiz-adv-x="769" 
d="M826 764l-126 -142c30 -48 45 -107 45 -172c0 -253 -128 -465 -395 -465c-72 0 -131 17 -176 48l-79 -89h-127l139 156c-33 48 -49 109 -49 176c0 255 128 466 395 466c75 0 135 -19 181 -51l65 73h127zM548 595c-25 22 -59 35 -103 35c-183 0 -245 -199 -245 -351
c0 -24 3 -46 8 -66zM603 448c0 21 -2 41 -6 59l-338 -379c25 -20 58 -31 99 -31c183 0 245 199 245 351z" />
    <glyph glyph-name="OE" unicode="&#x152;" horiz-adv-x="962" 
d="M996 727l-24 -115h-304l-36 -178h272l-22 -112h-272l-42 -207h304l-24 -115h-396c-31 -8 -74 -15 -108 -15c-202 0 -287 122 -287 285c0 262 126 472 400 472c45 0 88 -5 120 -15h419zM532 616c-22 11 -53 14 -88 14c-183 0 -245 -198 -245 -360c0 -104 49 -173 158 -173
c27 0 51 4 72 12z" />
    <glyph glyph-name="ordmasculine" unicode="&#xba;" horiz-adv-x="391" 
d="M431 607c0 -122 -66 -222 -202 -222c-82 0 -145 45 -145 134c0 113 58 223 200 223c82 0 147 -46 147 -135zM336 606c0 39 -20 62 -60 62c-71 0 -97 -85 -97 -149c0 -39 19 -60 57 -60c72 0 100 84 100 147z" />
    <glyph glyph-name="ae" unicode="&#xe6;" horiz-adv-x="874" 
d="M861 389c0 -107 -114 -155 -254 -166l-106 -8c-2 -11 -2 -18 -2 -29c0 -68 31 -101 101 -101c37 0 77 17 116 40l48 -90c-60 -37 -121 -50 -174 -50c-61 0 -121 30 -145 79l-13 -64h-72l3 72c-41 -49 -101 -87 -163 -87c-129 0 -169 101 -169 207c0 171 99 343 291 343
c40 0 104 -18 128 -32l60 32h26l-15 -74c56 52 116 74 178 74c75 0 162 -42 162 -146zM741 385c0 39 -27 57 -75 57c-78 0 -128 -56 -149 -137l61 5c87 7 163 24 163 75zM422 421c-35 15 -69 24 -102 24c-106 0 -160 -154 -160 -253c0 -64 21 -113 72 -113
c63 0 121 78 144 117z" />
    <glyph glyph-name="dotlessi" unicode="&#x131;" horiz-adv-x="313" 
d="M281 478c0 -20 -7 -57 -14 -91l-78 -387h-125l72 359c3 13 8 41 8 49c0 6 -2 11 -12 11c-8 0 -32 -13 -51 -25l-43 82c65 41 114 59 166 59c30 0 77 -12 77 -57z" />
    <glyph glyph-name="lslash" unicode="&#x142;" horiz-adv-x="313" 
d="M339 542l-21 -106l-102 -70l-40 -199c-3 -15 -6 -31 -6 -45c0 -19 8 -36 32 -36c13 0 33 1 49 6l14 -92c-35 -9 -79 -15 -109 -15c-64 0 -116 20 -116 97c0 21 4 51 8 70l23 113l-68 -47l22 106l67 47l65 321l139 68l-58 -288z" />
    <glyph glyph-name="oslash" unicode="&#xf8;" horiz-adv-x="579" 
d="M603 557l-91 -103c23 -33 36 -74 36 -125c0 -191 -99 -344 -302 -344c-45 0 -86 10 -120 28l-44 -50h-100l87 100c-24 32 -38 75 -38 128c0 177 89 344 301 344c47 0 90 -10 125 -31l46 53h100zM381 418c-16 11 -36 17 -62 17c-118 0 -159 -144 -159 -244
c0 -8 1 -16 2 -23zM419 328c0 6 0 12 -1 18l-216 -246c15 -10 33 -15 56 -15c120 0 161 143 161 243z" />
    <glyph glyph-name="oe" unicode="&#x153;" horiz-adv-x="897" 
d="M884 389c0 -107 -114 -155 -254 -166l-106 -8c-2 -11 -2 -18 -2 -29c0 -68 31 -101 101 -101c37 0 77 17 116 40l48 -90c-60 -37 -124 -50 -194 -50c-67 0 -123 26 -153 81c-48 -51 -114 -81 -194 -81c-122 0 -215 70 -215 206c0 177 92 344 296 344
c78 0 142 -40 172 -92c58 61 127 92 203 92c98 0 182 -42 182 -146zM764 385c0 39 -27 57 -75 57c-78 0 -132 -57 -151 -137l63 5c87 7 163 24 163 75zM413 328c0 66 -27 107 -94 107c-118 0 -159 -144 -159 -244c0 -65 34 -106 98 -106c123 0 155 143 155 243z" />
    <glyph glyph-name="germandbls" unicode="&#xdf;" horiz-adv-x="581" 
d="M561 596c0 -96 -57 -148 -152 -172c78 -11 133 -73 133 -155c0 -153 -83 -284 -259 -284c-29 0 -59 6 -87 13l20 97c23 -7 48 -12 72 -12c88 0 127 109 127 182c0 82 -66 103 -137 103l19 95c69 0 134 48 134 126c0 42 -28 60 -69 60c-77 0 -109 -73 -123 -144l-108 -530
c-22 -107 -68 -168 -204 -168c-43 0 -75 8 -97 15l35 97c16 -6 41 -12 61 -12c49 0 70 19 84 88l103 505c31 154 102 242 261 242c155 0 187 -92 187 -146z" />
    <glyph glyph-name="logicalnot" unicode="&#xac;" horiz-adv-x="682" 
d="M625 121h-106v227h-461v107h567v-334z" />
    <glyph glyph-name="mu" unicode="&#xb5;" horiz-adv-x="581" 
d="M566 520l-105 -520h-114l12 60c-40 -40 -92 -75 -151 -75c-24 0 -52 8 -68 31l-42 -209h-125l144 713h125l-73 -363c-1 -5 -2 -10 -2 -16c0 -36 32 -45 62 -45c50 0 101 30 139 60l73 364h125z" />
    <glyph glyph-name="trademark" unicode="&#x2122;" horiz-adv-x="780" 
d="M801 378h-82v218l-67 -134h-43l-68 129v-213h-82v349h95l76 -151l74 151h97v-349zM385 655h-110v-277h-85v277h-110v72h305v-72z" />
    <glyph glyph-name="Eth" unicode="&#xd0;" horiz-adv-x="710" 
d="M686 459c0 -292 -141 -459 -453 -459h-214l65 319h-60l19 92h60l64 316h188c205 0 331 -78 331 -268zM544 455c0 132 -87 158 -209 158h-54l-41 -202h153l-19 -92h-153l-42 -205h56c236 0 309 146 309 341z" />
    <glyph glyph-name="onehalf" unicode="&#xbd;" horiz-adv-x="1058" 
d="M967 183c0 -63 -39 -110 -83 -144c-48 -37 -100 -68 -152 -99h208l-19 -93h-389l17 80c57 35 112 69 168 105c106 68 131 94 131 130c0 20 -19 41 -62 41c-44 0 -85 -23 -121 -55l-60 71c55 50 120 77 202 77c98 0 160 -40 160 -113zM846 727l-569 -878h-109l569 878h109
zM384 382l-18 -89h-295l18 89h98l43 211c-37 -15 -76 -27 -116 -33l18 88c64 17 117 44 162 94h78l-73 -360h85z" />
    <glyph glyph-name="plusminus" unicode="&#xb1;" horiz-adv-x="682" 
d="M625 349h-231v-187h-106v187h-230v106h230v210h106v-210h231v-106zM625 0h-567v106h567v-106z" />
    <glyph glyph-name="Thorn" unicode="&#xde;" horiz-adv-x="622" 
d="M608 407c0 -185 -131 -276 -338 -276h-87l-27 -131h-137l148 727h138l-25 -118h88c127 0 240 -60 240 -202zM466 399c0 71 -52 95 -121 95h-89l-49 -247h88c111 0 171 46 171 152z" />
    <glyph glyph-name="onequarter" unicode="&#xbc;" horiz-adv-x="1058" 
d="M887 727l-569 -878h-109l569 878h109zM933 15l-17 -85h-58l-19 -92h-109l18 92h-219l17 88l274 278h111l-56 -281h58zM405 382l-18 -89h-295l18 89h98l43 211c-37 -15 -76 -27 -116 -33l18 88c64 17 117 44 162 94h78l-73 -360h85zM797 158l-146 -147h116z" />
    <glyph glyph-name="divide" unicode="&#xf7;" horiz-adv-x="682" 
d="M408 516c0 -47 -23 -64 -68 -64c-50 0 -66 25 -66 64c0 44 19 66 66 66c48 0 68 -21 68 -66zM625 239h-567v107h567v-107zM408 67c0 -47 -23 -64 -68 -64c-50 0 -66 25 -66 64c0 44 19 66 66 66c48 0 68 -21 68 -66z" />
    <glyph glyph-name="brokenbar" unicode="&#xa6;" horiz-adv-x="364" 
d="M250 431h-108v311h108v-311zM250 -193h-108v311h108v-311z" />
    <glyph glyph-name="degree" unicode="&#xb0;" horiz-adv-x="393" 
d="M401 590c0 -86 -70 -154 -152 -154c-84 0 -153 68 -153 154c0 85 69 152 152 152c86 0 153 -69 153 -152zM322 589c0 41 -32 74 -73 74c-43 0 -74 -35 -74 -73c0 -41 32 -74 74 -74c41 0 73 33 73 73z" />
    <glyph glyph-name="thorn" unicode="&#xfe;" horiz-adv-x="585" 
d="M554 329c0 -167 -83 -344 -266 -344c-55 0 -106 15 -144 48l-46 -226h-125l186 920h125l-50 -249c40 32 84 57 146 57c114 0 174 -77 174 -206zM425 328c0 58 -19 113 -82 113c-46 0 -92 -35 -130 -65l-51 -252c33 -29 62 -45 104 -45c114 0 159 136 159 249z" />
    <glyph glyph-name="threequarters" unicode="&#xbe;" horiz-adv-x="1058" 
d="M887 727l-569 -878h-109l569 878h109zM933 15l-17 -85h-58l-19 -92h-109l18 92h-219l17 88l274 278h111l-56 -281h58zM478 733l-14 -75l-115 -105c53 -9 90 -49 90 -105c0 -116 -89 -167 -202 -167c-65 0 -131 19 -170 79l79 56c17 -28 49 -47 82 -47c53 0 91 27 91 78
c0 36 -30 51 -66 51c-18 0 -36 -2 -53 -6l9 43l123 109h-178l18 89h306zM797 158l-146 -147h116z" />
    <glyph glyph-name="registered" unicode="&#xae;" horiz-adv-x="944" 
d="M910 313c0 -119 -44 -223 -125 -304s-185 -126 -304 -126s-223 45 -304 126s-125 185 -125 304s45 222 125 303c81 81 185 126 304 126s223 -45 304 -126c80 -81 125 -184 125 -303zM828 313c0 192 -155 348 -347 348s-347 -156 -347 -348s155 -348 347 -348
s347 156 347 348zM670 98h-98l-30 132c-7 32 -22 46 -49 46h-77v-178h-97v448h166c108 0 171 -28 171 -124c0 -52 -20 -91 -69 -109c30 -9 42 -40 48 -66zM556 411c0 36 -17 54 -68 54h-72v-110h66c56 0 74 17 74 56z" />
    <glyph glyph-name="minus" unicode="&#x2212;" horiz-adv-x="682" 
d="M624 239h-566v107h566v-107z" />
    <glyph glyph-name="eth" unicode="&#xf0;" horiz-adv-x="579" 
d="M548 356c0 -184 -70 -371 -297 -371c-155 0 -220 92 -220 206c0 164 96 329 282 329c30 0 60 -6 90 -24c-10 40 -34 89 -59 122l-114 -38l-22 62l97 32c-22 26 -42 48 -70 68h129c15 -10 28 -21 41 -34l101 34l19 -64l-74 -24c63 -85 97 -193 97 -298zM419 319
c0 63 -30 101 -96 101c-112 0 -163 -125 -163 -224c0 -71 32 -111 98 -111c118 0 161 136 161 234z" />
    <glyph glyph-name="multiply" unicode="&#xd7;" horiz-adv-x="682" 
d="M615 94l-75 -75l-199 199l-199 -199l-75 75l199 198l-199 199l75 75l199 -198l199 197l75 -75l-198 -198z" />
    <glyph glyph-name="copyright" unicode="&#xa9;" horiz-adv-x="944" 
d="M910 313c0 -119 -44 -223 -125 -304s-185 -126 -304 -126s-223 45 -304 126s-125 185 -125 304s45 222 125 303c81 81 185 126 304 126s223 -45 304 -126s125 -184 125 -303zM828 313c0 192 -155 348 -347 348s-347 -156 -347 -348s155 -348 347 -348s347 156 347 348z
M674 454l-82 -45c-19 33 -44 61 -97 61c-82 0 -112 -49 -112 -152c0 -104 32 -150 113 -150c48 0 75 18 105 43l61 -67c-53 -45 -108 -58 -166 -58c-155 0 -217 83 -217 232s62 234 217 234c101 0 148 -46 178 -98z" />
    <glyph glyph-name="Aacute" unicode="&#xc1;" horiz-adv-x="691" 
d="M628 956l-193 -176h-100l152 176h141zM615 0h-136l-21 169h-274l-88 -169h-141l385 727h180zM445 279l-37 320l-169 -320h206z" />
    <glyph glyph-name="Acircumflex" unicode="&#xc2;" horiz-adv-x="691" 
d="M605 780h-92l-64 101l-109 -101h-99l158 176h118zM615 0h-136l-21 169h-274l-88 -169h-141l385 727h180zM445 279l-37 320l-169 -320h206z" />
    <glyph glyph-name="Adieresis" unicode="&#xc4;" horiz-adv-x="691" 
d="M610 852c0 -45 -29 -72 -76 -72c-30 0 -59 17 -59 50c0 48 29 74 75 74c34 0 60 -18 60 -52zM392 852c0 -45 -29 -72 -76 -72c-30 0 -59 17 -59 50c0 48 29 74 75 74c34 0 60 -18 60 -52zM615 0h-136l-21 169h-274l-88 -169h-141l385 727h180zM445 279l-37 320l-169 -320
h206z" />
    <glyph glyph-name="Agrave" unicode="&#xc0;" horiz-adv-x="691" 
d="M521 780h-88l-130 176h128zM615 0h-136l-21 169h-274l-88 -169h-141l385 727h180zM445 279l-37 320l-169 -320h206z" />
    <glyph glyph-name="Aring" unicode="&#xc5;" horiz-adv-x="691" 
d="M615 0h-136l-21 169h-274l-88 -169h-141l379 715c-20 17 -27 39 -27 61c0 68 51 129 138 129c72 0 110 -48 110 -101c0 -42 -16 -69 -34 -86zM498 800c0 29 -24 53 -59 53c-43 0 -75 -28 -75 -73c0 -28 23 -53 59 -53c45 0 75 28 75 73zM445 279l-37 320l-169 -320h206z
" />
    <glyph glyph-name="Atilde" unicode="&#xc3;" horiz-adv-x="691" 
d="M651 914c-20 -78 -65 -134 -149 -134c-69 0 -90 49 -130 49c-27 0 -46 -19 -53 -49h-79c20 79 67 134 148 134c68 0 94 -49 130 -49c25 0 43 12 55 49h78zM615 0h-136l-21 169h-274l-88 -169h-141l385 727h180zM445 279l-37 320l-169 -320h206z" />
    <glyph glyph-name="Ccedilla" unicode="&#xc7;" horiz-adv-x="678" 
d="M728 596l-111 -57c-34 70 -91 91 -162 91c-184 0 -255 -195 -255 -351c0 -106 55 -182 152 -182c73 0 128 31 185 73l65 -99c-71 -53 -144 -79 -228 -85l-2 -3c35 -9 60 -35 60 -72c0 -83 -82 -104 -149 -104c-37 0 -88 7 -117 21l30 66c29 -11 62 -19 93 -19
c22 0 48 7 48 34c0 31 -47 36 -63 36l29 42c-149 15 -245 122 -245 290c0 261 143 465 408 465c107 0 221 -39 262 -146z" />
    <glyph glyph-name="Eacute" unicode="&#xc9;" horiz-adv-x="605" 
d="M598 956l-193 -176h-100l152 176h141zM639 727l-24 -115h-335l-36 -178h303l-22 -112h-303l-42 -207h335l-24 -115h-472l148 727h472z" />
    <glyph glyph-name="Ecircumflex" unicode="&#xca;" horiz-adv-x="605" 
d="M571 780h-92l-64 101l-109 -101h-99l158 176h118zM639 727l-24 -115h-335l-36 -178h303l-22 -112h-303l-42 -207h335l-24 -115h-472l148 727h472z" />
    <glyph glyph-name="Edieresis" unicode="&#xcb;" horiz-adv-x="605" 
d="M590 852c0 -45 -29 -72 -76 -72c-30 0 -59 17 -59 50c0 48 29 74 75 74c34 0 60 -18 60 -52zM372 852c0 -45 -29 -72 -76 -72c-30 0 -59 17 -59 50c0 48 29 74 75 74c34 0 60 -18 60 -52zM639 727l-24 -115h-335l-36 -178h303l-22 -112h-303l-42 -207h335l-24 -115h-472
l148 727h472z" />
    <glyph glyph-name="Egrave" unicode="&#xc8;" horiz-adv-x="605" 
d="M481 780h-88l-130 176h128zM639 727l-24 -115h-335l-36 -178h303l-22 -112h-303l-42 -207h335l-24 -115h-472l148 727h472z" />
    <glyph glyph-name="Iacute" unicode="&#xcd;" horiz-adv-x="409" 
d="M498 956l-193 -176h-100l152 176h141zM462 727l-22 -106h-94l-104 -515h94l-22 -106h-325l22 106h94l104 515h-94l22 106h325z" />
    <glyph glyph-name="Icircumflex" unicode="&#xce;" horiz-adv-x="409" 
d="M481 780h-92l-64 101l-109 -101h-99l158 176h118zM462 727l-22 -106h-94l-104 -515h94l-22 -106h-325l22 106h94l104 515h-94l22 106h325z" />
    <glyph glyph-name="Idieresis" unicode="&#xcf;" horiz-adv-x="409" 
d="M486 852c0 -45 -29 -72 -76 -72c-30 0 -59 17 -59 50c0 48 29 74 75 74c34 0 60 -18 60 -52zM268 852c0 -45 -29 -72 -76 -72c-30 0 -59 17 -59 50c0 48 29 74 75 74c34 0 60 -18 60 -52zM462 727l-22 -106h-94l-104 -515h94l-22 -106h-325l22 106h94l104 515h-94l22 106
h325z" />
    <glyph glyph-name="Igrave" unicode="&#xcc;" horiz-adv-x="409" 
d="M401 780h-88l-130 176h128zM462 727l-22 -106h-94l-104 -515h94l-22 -106h-325l22 106h94l104 515h-94l22 106h325z" />
    <glyph glyph-name="Ntilde" unicode="&#xd1;" horiz-adv-x="725" 
d="M669 914c-20 -78 -65 -134 -149 -134c-69 0 -90 49 -130 49c-27 0 -46 -19 -53 -49h-79c20 79 67 134 148 134c68 0 94 -49 130 -49c25 0 43 12 55 49h78zM748 727l-148 -727h-151l-189 555l-113 -555h-128l148 727h167l180 -523l106 523h128z" />
    <glyph glyph-name="Oacute" unicode="&#xd3;" horiz-adv-x="769" 
d="M668 956l-193 -176h-100l152 176h141zM745 450c0 -253 -128 -465 -395 -465c-196 0 -292 128 -292 291c0 255 128 466 395 466c198 0 292 -130 292 -292zM603 448c0 104 -51 182 -158 182c-183 0 -245 -199 -245 -351c0 -104 51 -182 158 -182c183 0 245 199 245 351z
" />
    <glyph glyph-name="Ocircumflex" unicode="&#xd4;" horiz-adv-x="769" 
d="M646 780h-92l-64 101l-109 -101h-99l158 176h118zM745 450c0 -253 -128 -465 -395 -465c-196 0 -292 128 -292 291c0 255 128 466 395 466c198 0 292 -130 292 -292zM603 448c0 104 -51 182 -158 182c-183 0 -245 -199 -245 -351c0 -104 51 -182 158 -182
c183 0 245 199 245 351z" />
    <glyph glyph-name="Odieresis" unicode="&#xd6;" horiz-adv-x="769" 
d="M640 852c0 -45 -29 -72 -76 -72c-30 0 -59 17 -59 50c0 48 29 74 75 74c34 0 60 -18 60 -52zM422 852c0 -45 -29 -72 -76 -72c-30 0 -59 17 -59 50c0 48 29 74 75 74c34 0 60 -18 60 -52zM745 450c0 -253 -128 -465 -395 -465c-196 0 -292 128 -292 291
c0 255 128 466 395 466c198 0 292 -130 292 -292zM603 448c0 104 -51 182 -158 182c-183 0 -245 -199 -245 -351c0 -104 51 -182 158 -182c183 0 245 199 245 351z" />
    <glyph glyph-name="Ograve" unicode="&#xd2;" horiz-adv-x="769" 
d="M561 780h-88l-130 176h128zM745 450c0 -253 -128 -465 -395 -465c-196 0 -292 128 -292 291c0 255 128 466 395 466c198 0 292 -130 292 -292zM603 448c0 104 -51 182 -158 182c-183 0 -245 -199 -245 -351c0 -104 51 -182 158 -182c183 0 245 199 245 351z" />
    <glyph glyph-name="Otilde" unicode="&#xd5;" horiz-adv-x="769" 
d="M693 914c-20 -78 -65 -134 -149 -134c-69 0 -90 49 -130 49c-27 0 -46 -19 -53 -49h-79c20 79 67 134 148 134c68 0 94 -49 130 -49c25 0 43 12 55 49h78zM745 450c0 -253 -128 -465 -395 -465c-196 0 -292 128 -292 291c0 255 128 466 395 466c198 0 292 -130 292 -292z
M603 448c0 104 -51 182 -158 182c-183 0 -245 -199 -245 -351c0 -104 51 -182 158 -182c183 0 245 199 245 351z" />
    <glyph glyph-name="Scaron" unicode="&#x160;" horiz-adv-x="586" 
d="M589 956l-158 -176h-118l-88 176h92l64 -101l109 101h99zM603 604l-108 -59c-35 67 -86 85 -152 85c-59 0 -130 -33 -130 -96c0 -55 44 -71 129 -98c108 -34 214 -81 214 -206c0 -169 -142 -245 -303 -245c-106 0 -209 38 -260 149l113 62c32 -71 88 -99 158 -99
c75 0 152 32 152 111c0 54 -42 78 -125 104c-113 35 -218 75 -218 200c0 124 99 230 285 230c103 0 200 -36 245 -138z" />
    <glyph glyph-name="Uacute" unicode="&#xda;" horiz-adv-x="697" 
d="M648 956l-193 -176h-100l152 176h141zM724 727l-89 -441c-42 -207 -114 -301 -333 -301c-132 0 -244 30 -244 181c0 40 6 80 14 119l89 442h137l-87 -431c-9 -43 -16 -85 -16 -106c0 -71 40 -93 113 -93c120 0 167 78 191 196l88 434h137z" />
    <glyph glyph-name="Ucircumflex" unicode="&#xdb;" horiz-adv-x="697" 
d="M621 780h-92l-64 101l-109 -101h-99l158 176h118zM724 727l-89 -441c-42 -207 -114 -301 -333 -301c-132 0 -244 30 -244 181c0 40 6 80 14 119l89 442h137l-87 -431c-9 -43 -16 -85 -16 -106c0 -71 40 -93 113 -93c120 0 167 78 191 196l88 434h137z" />
    <glyph glyph-name="Udieresis" unicode="&#xdc;" horiz-adv-x="697" 
d="M610 852c0 -45 -29 -72 -76 -72c-30 0 -59 17 -59 50c0 48 29 74 75 74c34 0 60 -18 60 -52zM392 852c0 -45 -29 -72 -76 -72c-30 0 -59 17 -59 50c0 48 29 74 75 74c34 0 60 -18 60 -52zM724 727l-89 -441c-42 -207 -114 -301 -333 -301c-132 0 -244 30 -244 181
c0 40 6 80 14 119l89 442h137l-87 -431c-9 -43 -16 -85 -16 -106c0 -71 40 -93 113 -93c120 0 167 78 191 196l88 434h137z" />
    <glyph glyph-name="Ugrave" unicode="&#xd9;" horiz-adv-x="697" 
d="M511 780h-88l-130 176h128zM724 727l-89 -441c-42 -207 -114 -301 -333 -301c-132 0 -244 30 -244 181c0 40 6 80 14 119l89 442h137l-87 -431c-9 -43 -16 -85 -16 -106c0 -71 40 -93 113 -93c120 0 167 78 191 196l88 434h137z" />
    <glyph glyph-name="Yacute" unicode="&#xdd;" horiz-adv-x="647" 
d="M618 956l-193 -176h-100l152 176h141zM728 727l-332 -433l-60 -294h-137l58 286l-153 441h142l102 -308l233 308h147z" />
    <glyph glyph-name="Ydieresis" unicode="&#x178;" horiz-adv-x="647" 
d="M590 852c0 -45 -29 -72 -76 -72c-30 0 -59 17 -59 50c0 48 29 74 75 74c34 0 60 -18 60 -52zM372 852c0 -45 -29 -72 -76 -72c-30 0 -59 17 -59 50c0 48 29 74 75 74c34 0 60 -18 60 -52zM728 727l-332 -433l-60 -294h-137l58 286l-153 441h142l102 -308l233 308h147z
" />
    <glyph glyph-name="Zcaron" unicode="&#x17d;" horiz-adv-x="637" 
d="M641 956l-158 -176h-118l-88 176h92l64 -101l109 101h99zM675 727l-20 -97l-463 -515h369l-24 -115h-550l21 102l458 510h-338l24 115h523z" />
    <glyph glyph-name="aacute" unicode="&#xe1;" horiz-adv-x="587" 
d="M578 766l-193 -176h-100l152 176h141zM574 527l-107 -527h-94l2 74c-57 -63 -113 -89 -175 -89c-129 0 -169 101 -169 207c0 171 99 343 291 343c40 0 91 -12 123 -24l85 16h44zM428 421c-35 15 -70 24 -105 24c-111 0 -163 -154 -163 -253c0 -64 20 -113 75 -113
c65 0 124 78 147 117z" />
    <glyph glyph-name="acircumflex" unicode="&#xe2;" horiz-adv-x="587" 
d="M551 590h-92l-64 101l-109 -101h-99l158 176h118zM574 527l-107 -527h-94l2 74c-57 -63 -113 -89 -175 -89c-129 0 -169 101 -169 207c0 171 99 343 291 343c40 0 91 -12 123 -24l85 16h44zM428 421c-35 15 -70 24 -105 24c-111 0 -163 -154 -163 -253
c0 -64 20 -113 75 -113c65 0 124 78 147 117z" />
    <glyph glyph-name="adieresis" unicode="&#xe4;" horiz-adv-x="587" 
d="M560 664c0 -45 -29 -72 -76 -72c-30 0 -59 17 -59 50c0 48 29 74 75 74c34 0 60 -18 60 -52zM342 664c0 -45 -29 -72 -76 -72c-30 0 -59 17 -59 50c0 48 29 74 75 74c34 0 60 -18 60 -52zM574 527l-107 -527h-94l2 74c-57 -63 -113 -89 -175 -89
c-129 0 -169 101 -169 207c0 171 99 343 291 343c40 0 91 -12 123 -24l85 16h44zM428 421c-35 15 -70 24 -105 24c-111 0 -163 -154 -163 -253c0 -64 20 -113 75 -113c65 0 124 78 147 117z" />
    <glyph glyph-name="agrave" unicode="&#xe0;" horiz-adv-x="587" 
d="M441 590h-88l-130 176h128zM574 527l-107 -527h-94l2 74c-57 -63 -113 -89 -175 -89c-129 0 -169 101 -169 207c0 171 99 343 291 343c40 0 91 -12 123 -24l85 16h44zM428 421c-35 15 -70 24 -105 24c-111 0 -163 -154 -163 -253c0 -64 20 -113 75 -113
c65 0 124 78 147 117z" />
    <glyph glyph-name="aring" unicode="&#xe5;" horiz-adv-x="587" 
d="M493 690c0 -70 -48 -117 -123 -117c-50 0 -93 28 -93 81c0 70 48 117 123 117c50 0 93 -27 93 -81zM574 527l-107 -527h-94l2 74c-57 -63 -113 -89 -175 -89c-129 0 -169 101 -169 207c0 171 99 343 291 343c40 0 91 -12 123 -24l85 16h44zM436 682c0 24 -19 36 -42 36
c-36 0 -60 -25 -60 -56c0 -24 19 -36 42 -36c36 0 60 25 60 56zM428 421c-35 15 -70 24 -105 24c-111 0 -163 -154 -163 -253c0 -64 20 -113 75 -113c65 0 124 78 147 117z" />
    <glyph glyph-name="atilde" unicode="&#xe3;" horiz-adv-x="587" 
d="M579 745c-20 -78 -65 -134 -149 -134c-69 0 -90 49 -130 49c-27 0 -46 -19 -53 -49h-79c20 79 67 134 148 134c68 0 94 -49 130 -49c25 0 43 12 55 49h78zM574 527l-107 -527h-94l2 74c-57 -63 -113 -89 -175 -89c-129 0 -169 101 -169 207c0 171 99 343 291 343
c40 0 91 -12 123 -24l85 16h44zM428 421c-35 15 -70 24 -105 24c-111 0 -163 -154 -163 -253c0 -64 20 -113 75 -113c65 0 124 78 147 117z" />
    <glyph glyph-name="ccedilla" unicode="&#xe7;" horiz-adv-x="501" 
d="M515 432l-94 -50c-22 40 -51 53 -96 53c-121 0 -165 -143 -165 -244c0 -68 30 -106 98 -106c41 0 85 18 119 40l48 -90c-46 -26 -91 -43 -145 -48l-3 -4c35 -9 60 -35 60 -72c0 -83 -82 -104 -149 -104c-37 0 -88 7 -117 21l30 66c29 -11 62 -19 93 -19c22 0 48 7 48 34
c0 31 -47 36 -63 36l29 42c-114 12 -177 85 -177 204c0 193 106 344 301 344c77 0 151 -29 183 -103z" />
    <glyph glyph-name="eacute" unicode="&#xe9;" horiz-adv-x="535" 
d="M548 766l-193 -176h-100l152 176h141zM522 389c0 -107 -114 -155 -254 -166l-106 -8c-2 -11 -2 -18 -2 -29c0 -68 31 -101 101 -101c37 0 77 17 116 40l48 -90c-60 -37 -124 -50 -194 -50c-123 0 -200 75 -200 206c0 178 112 344 299 344c110 0 192 -42 192 -146z
M402 385c0 39 -27 57 -75 57c-78 0 -129 -63 -149 -137l61 5c87 7 163 24 163 75z" />
    <glyph glyph-name="ecircumflex" unicode="&#xea;" horiz-adv-x="535" 
d="M511 590h-92l-64 101l-109 -101h-99l158 176h118zM522 389c0 -107 -114 -155 -254 -166l-106 -8c-2 -11 -2 -18 -2 -29c0 -68 31 -101 101 -101c37 0 77 17 116 40l48 -90c-60 -37 -124 -50 -194 -50c-123 0 -200 75 -200 206c0 178 112 344 299 344
c110 0 192 -42 192 -146zM402 385c0 39 -27 57 -75 57c-78 0 -129 -63 -149 -137l61 5c87 7 163 24 163 75z" />
    <glyph glyph-name="edieresis" unicode="&#xeb;" horiz-adv-x="535" 
d="M510 664c0 -45 -29 -72 -76 -72c-30 0 -59 17 -59 50c0 48 29 74 75 74c34 0 60 -18 60 -52zM292 664c0 -45 -29 -72 -76 -72c-30 0 -59 17 -59 50c0 48 29 74 75 74c34 0 60 -18 60 -52zM522 389c0 -107 -114 -155 -254 -166l-106 -8c-2 -11 -2 -18 -2 -29
c0 -68 31 -101 101 -101c37 0 77 17 116 40l48 -90c-60 -37 -124 -50 -194 -50c-123 0 -200 75 -200 206c0 178 112 344 299 344c110 0 192 -42 192 -146zM402 385c0 39 -27 57 -75 57c-78 0 -129 -63 -149 -137l61 5c87 7 163 24 163 75z" />
    <glyph glyph-name="egrave" unicode="&#xe8;" horiz-adv-x="535" 
d="M431 590h-88l-130 176h128zM522 389c0 -107 -114 -155 -254 -166l-106 -8c-2 -11 -2 -18 -2 -29c0 -68 31 -101 101 -101c37 0 77 17 116 40l48 -90c-60 -37 -124 -50 -194 -50c-123 0 -200 75 -200 206c0 178 112 344 299 344c110 0 192 -42 192 -146zM402 385
c0 39 -27 57 -75 57c-78 0 -129 -63 -149 -137l61 5c87 7 163 24 163 75z" />
    <glyph glyph-name="iacute" unicode="&#xed;" horiz-adv-x="313" 
d="M408 766l-193 -176h-100l152 176h141zM281 478c0 -20 -7 -57 -14 -91l-78 -387h-125l72 359c3 13 8 41 8 49c0 6 -2 11 -12 11c-8 0 -32 -13 -51 -25l-43 82c65 41 114 59 166 59c30 0 77 -12 77 -57z" />
    <glyph glyph-name="icircumflex" unicode="&#xee;" horiz-adv-x="313" 
d="M381 590h-92l-64 101l-109 -101h-99l158 176h118zM281 478c0 -20 -7 -57 -14 -91l-78 -387h-125l72 359c3 13 8 41 8 49c0 6 -2 11 -12 11c-8 0 -32 -13 -51 -25l-43 82c65 41 114 59 166 59c30 0 77 -12 77 -57z" />
    <glyph glyph-name="idieresis" unicode="&#xef;" horiz-adv-x="313" 
d="M370 664c0 -45 -29 -72 -76 -72c-30 0 -59 17 -59 50c0 48 29 74 75 74c34 0 60 -18 60 -52zM152 664c0 -45 -29 -72 -76 -72c-30 0 -59 17 -59 50c0 48 29 74 75 74c34 0 60 -18 60 -52zM281 478c0 -20 -7 -57 -14 -91l-78 -387h-125l72 359c3 13 8 41 8 49
c0 6 -2 11 -12 11c-8 0 -32 -13 -51 -25l-43 82c65 41 114 59 166 59c30 0 77 -12 77 -57z" />
    <glyph glyph-name="igrave" unicode="&#xec;" horiz-adv-x="313" 
d="M301 590h-88l-130 176h128zM281 478c0 -20 -7 -57 -14 -91l-78 -387h-125l72 359c3 13 8 41 8 49c0 6 -2 11 -12 11c-8 0 -32 -13 -51 -25l-43 82c65 41 114 59 166 59c30 0 77 -12 77 -57z" />
    <glyph glyph-name="ntilde" unicode="&#xf1;" horiz-adv-x="578" 
d="M559 745c-20 -78 -65 -134 -149 -134c-69 0 -90 49 -130 49c-27 0 -46 -19 -53 -49h-79c20 79 67 134 148 134c68 0 94 -49 130 -49c25 0 43 12 55 49h78zM540 413c0 -15 -3 -43 -8 -66l-70 -347h-125l62 306c4 22 12 66 12 75c0 32 -12 45 -47 45
c-43 0 -104 -28 -154 -66l-73 -360h-125l105 520h117l-12 -58c53 40 108 73 176 73c84 0 142 -39 142 -122z" />
    <glyph glyph-name="oacute" unicode="&#xf3;" horiz-adv-x="579" 
d="M548 766l-193 -176h-100l152 176h141zM548 329c0 -190 -99 -344 -302 -344c-122 0 -215 70 -215 206c0 177 89 344 301 344c123 0 216 -70 216 -206zM419 328c0 66 -33 107 -100 107c-118 0 -159 -144 -159 -244c0 -65 34 -106 98 -106c120 0 161 143 161 243z" />
    <glyph glyph-name="ocircumflex" unicode="&#xf4;" horiz-adv-x="579" 
d="M515 590h-92l-64 101l-109 -101h-99l158 176h118zM548 329c0 -190 -99 -344 -302 -344c-122 0 -215 70 -215 206c0 177 89 344 301 344c123 0 216 -70 216 -206zM419 328c0 66 -33 107 -100 107c-118 0 -159 -144 -159 -244c0 -65 34 -106 98 -106c120 0 161 143 161 243
z" />
    <glyph glyph-name="odieresis" unicode="&#xf6;" horiz-adv-x="579" 
d="M530 664c0 -45 -29 -72 -76 -72c-30 0 -59 17 -59 50c0 48 29 74 75 74c34 0 60 -18 60 -52zM312 664c0 -45 -29 -72 -76 -72c-30 0 -59 17 -59 50c0 48 29 74 75 74c34 0 60 -18 60 -52zM548 329c0 -190 -99 -344 -302 -344c-122 0 -215 70 -215 206
c0 177 89 344 301 344c123 0 216 -70 216 -206zM419 328c0 66 -33 107 -100 107c-118 0 -159 -144 -159 -244c0 -65 34 -106 98 -106c120 0 161 143 161 243z" />
    <glyph glyph-name="ograve" unicode="&#xf2;" horiz-adv-x="579" 
d="M431 590h-88l-130 176h128zM548 329c0 -190 -99 -344 -302 -344c-122 0 -215 70 -215 206c0 177 89 344 301 344c123 0 216 -70 216 -206zM419 328c0 66 -33 107 -100 107c-118 0 -159 -144 -159 -244c0 -65 34 -106 98 -106c120 0 161 143 161 243z" />
    <glyph glyph-name="otilde" unicode="&#xf5;" horiz-adv-x="579" 
d="M549 745c-20 -78 -65 -134 -149 -134c-69 0 -90 49 -130 49c-27 0 -46 -19 -53 -49h-79c20 79 67 134 148 134c68 0 94 -49 130 -49c25 0 43 12 55 49h78zM548 329c0 -190 -99 -344 -302 -344c-122 0 -215 70 -215 206c0 177 89 344 301 344c123 0 216 -70 216 -206z
M419 328c0 66 -33 107 -100 107c-118 0 -159 -144 -159 -244c0 -65 34 -106 98 -106c120 0 161 143 161 243z" />
    <glyph glyph-name="scaron" unicode="&#x161;" horiz-adv-x="481" 
d="M511 766l-158 -176h-118l-88 176h92l64 -101l109 101h99zM466 438l-94 -51c-20 39 -56 54 -108 54c-40 0 -87 -17 -87 -61c0 -32 43 -50 93 -67c72 -25 160 -60 160 -146c0 -141 -116 -182 -240 -182c-74 0 -161 23 -200 103l93 55c23 -47 67 -64 112 -64
c50 0 109 11 109 66c0 26 -34 42 -78 58c-74 26 -175 59 -175 154c0 122 102 178 222 178c76 0 157 -23 193 -97z" />
    <glyph glyph-name="uacute" unicode="&#xfa;" horiz-adv-x="578" 
d="M558 766l-193 -176h-100l152 176h141zM561 520l-105 -520h-117l12 58c-53 -40 -108 -73 -176 -73c-84 0 -142 39 -142 122c0 15 3 43 8 66l70 347h125l-62 -306c-4 -22 -12 -66 -12 -75c0 -32 12 -45 47 -45c43 0 106 32 154 66l73 360h125z" />
    <glyph glyph-name="ucircumflex" unicode="&#xfb;" horiz-adv-x="578" 
d="M521 590h-92l-64 101l-109 -101h-99l158 176h118zM561 520l-105 -520h-117l12 58c-53 -40 -108 -73 -176 -73c-84 0 -142 39 -142 122c0 15 3 43 8 66l70 347h125l-62 -306c-4 -22 -12 -66 -12 -75c0 -32 12 -45 47 -45c43 0 106 32 154 66l73 360h125z" />
    <glyph glyph-name="udieresis" unicode="&#xfc;" horiz-adv-x="578" 
d="M530 664c0 -45 -29 -72 -76 -72c-30 0 -59 17 -59 50c0 48 29 74 75 74c34 0 60 -18 60 -52zM312 664c0 -45 -29 -72 -76 -72c-30 0 -59 17 -59 50c0 48 29 74 75 74c34 0 60 -18 60 -52zM561 520l-105 -520h-117l12 58c-53 -40 -108 -73 -176 -73
c-84 0 -142 39 -142 122c0 15 3 43 8 66l70 347h125l-62 -306c-4 -22 -12 -66 -12 -75c0 -32 12 -45 47 -45c43 0 106 32 154 66l73 360h125z" />
    <glyph glyph-name="ugrave" unicode="&#xf9;" horiz-adv-x="578" 
d="M421 590h-88l-130 176h128zM561 520l-105 -520h-117l12 58c-53 -40 -108 -73 -176 -73c-84 0 -142 39 -142 122c0 15 3 43 8 66l70 347h125l-62 -306c-4 -22 -12 -66 -12 -75c0 -32 12 -45 47 -45c43 0 106 32 154 66l73 360h125z" />
    <glyph glyph-name="yacute" unicode="&#xfd;" horiz-adv-x="543" 
d="M538 766l-193 -176h-100l152 176h141zM583 520l-332 -562c-68 -115 -133 -151 -228 -151c-32 0 -72 6 -104 16l34 96c26 -11 52 -16 81 -16c44 0 72 29 115 100l15 25l-94 492h123l58 -350l203 350h129z" />
    <glyph glyph-name="ydieresis" unicode="&#xff;" horiz-adv-x="543" 
d="M510 664c0 -45 -29 -72 -76 -72c-30 0 -59 17 -59 50c0 48 29 74 75 74c34 0 60 -18 60 -52zM292 664c0 -45 -29 -72 -76 -72c-30 0 -59 17 -59 50c0 48 29 74 75 74c34 0 60 -18 60 -52zM583 520l-332 -562c-68 -115 -133 -151 -228 -151c-32 0 -72 6 -104 16l34 96
c26 -11 52 -16 81 -16c44 0 72 29 115 100l15 25l-94 492h123l58 -350l203 350h129z" />
    <glyph glyph-name="zcaron" unicode="&#x17e;" horiz-adv-x="502" 
d="M531 766l-158 -176h-118l-88 176h92l64 -101l109 101h99zM506 520l-15 -75l-320 -351h257l-19 -94h-418l15 77l319 350h-242l19 93h404z" />
    <glyph glyph-name="parenleft.superior" unicode="&#x207d;" horiz-adv-x="278" 
d="M247 830h114c-122 -115 -222 -267 -222 -435c0 -83 35 -174 88 -247h-110c-56 81 -82 155 -82 244c0 164 89 329 212 438z" />
    <glyph glyph-name="parenright.superior" unicode="&#x207e;" horiz-adv-x="278" 
d="M41 148h-114c122 115 222 267 222 435c0 83 -35 174 -88 247h110c56 -81 82 -155 82 -244c0 -164 -89 -329 -212 -438z" />
    <glyph glyph-name="a.superior" unicode="&#xf6e9;" horiz-adv-x="455" 
d="M440 683l-71 -390h-87v43c-39 -38 -79 -53 -122 -53c-103 0 -136 75 -136 154c0 126 74 252 223 252c31 0 68 -8 93 -17l63 11h37zM185 363c45 0 87 38 103 64l31 170c-23 9 -47 14 -70 14c-79 0 -114 -106 -114 -174c0 -42 14 -74 50 -74z" />
    <glyph glyph-name="b.superior" unicode="&#xf6ea;" horiz-adv-x="452" 
d="M428 535c0 -127 -67 -252 -211 -252c-32 0 -74 6 -105 16l-62 -11h-42l108 538h109l-34 -166c40 21 71 29 105 29c90 0 132 -58 132 -154zM317 534c0 47 -13 74 -52 74c-28 0 -63 -11 -93 -35l-38 -198c28 -10 50 -15 73 -15c81 0 110 105 110 174z" />
    <glyph glyph-name="d.superior" unicode="&#xf6eb;" horiz-adv-x="439" 
d="M473 826l-108 -533h-83v43c-36 -35 -79 -53 -122 -53c-103 0 -136 75 -136 154c0 126 74 252 223 252c27 0 62 -8 87 -15c11 49 21 103 31 152h108zM185 363c39 0 83 37 99 63l35 171c-23 9 -47 14 -70 14c-79 0 -114 -106 -114 -174c0 -42 14 -74 50 -74z" />
    <glyph glyph-name="e.superior" unicode="&#xf6ec;" horiz-adv-x="416" 
d="M406 578c0 -84 -88 -116 -196 -125l-74 -6c-1 -4 -1 -9 -1 -14c0 -44 22 -66 69 -66c26 0 60 11 92 29l42 -73c-51 -30 -101 -40 -155 -40c-97 0 -159 56 -159 153c0 131 88 253 233 253c87 0 149 -35 149 -111zM301 575c0 23 -18 34 -49 34c-52 0 -91 -39 -104 -85l37 3
c62 5 116 17 116 48z" />
    <glyph glyph-name="i.superior" unicode="&#x2071;" horiz-adv-x="249" 
d="M275 774c0 -45 -27 -61 -71 -61c-35 0 -61 14 -61 46c0 46 29 63 73 63c35 0 59 -14 59 -48zM185 689c50 0 64 -23 64 -54c0 -18 -5 -39 -9 -60l-57 -282h-108l53 265c2 10 3 17 3 22c0 8 -3 11 -7 11c-9 0 -22 -5 -38 -14l-26 71c49 27 84 41 125 41z" />
    <glyph glyph-name="l.superior" unicode="&#xf6ee;" horiz-adv-x="247" 
d="M234 855l-89 -437c-2 -10 -4 -21 -4 -31s4 -19 17 -19c9 0 25 1 43 7l13 -80c-30 -7 -66 -12 -89 -12c-52 0 -95 15 -95 76c0 15 6 54 9 68l75 372z" />
    <glyph glyph-name="m.superior" unicode="&#xf6ef;" horiz-adv-x="657" 
d="M628 596c0 -9 -2 -30 -5 -47l-52 -256h-108l47 227c4 19 9 39 9 49c0 19 -7 29 -24 29c-31 0 -70 -22 -97 -41l-54 -264h-108l46 227c3 17 9 42 9 53c0 17 -6 25 -21 25c-26 0 -67 -14 -99 -38l-54 -267h-108l78 385h102l-6 -31c30 21 84 42 126 42c43 0 71 -14 85 -53
c36 27 87 53 138 53c68 0 96 -34 96 -93z" />
    <glyph glyph-name="n.superior" unicode="&#x207f;" horiz-adv-x="447" 
d="M418 595c0 -11 -3 -32 -6 -48l-51 -254h-109l47 227c3 15 8 46 8 52c0 18 -7 26 -28 26c-30 0 -73 -12 -109 -38l-53 -267h-108l78 385h102l-6 -32c35 24 85 43 128 43c67 0 107 -30 107 -94z" />
    <glyph glyph-name="o.superior" unicode="&#xf6f0;" horiz-adv-x="449" 
d="M425 535c0 -141 -88 -252 -231 -252c-96 0 -170 52 -170 153c0 130 67 253 231 253c96 0 170 -52 170 -154zM314 534c0 43 -23 70 -68 70c-83 0 -111 -99 -111 -168c0 -42 24 -69 67 -69c76 0 112 99 112 167z" />
    <glyph glyph-name="r.superior" unicode="&#xf6f1;" horiz-adv-x="297" 
d="M342 675l-32 -99c-13 4 -26 5 -37 5c-41 0 -77 -21 -107 -44l-49 -244h-108l78 385h102l-10 -49c39 33 73 55 116 55c14 0 33 -3 47 -9z" />
    <glyph glyph-name="s.superior" unicode="&#xf6f2;" horiz-adv-x="372" 
d="M374 620l-75 -53c-17 30 -56 43 -84 43c-27 0 -53 -7 -53 -35c0 -24 33 -33 68 -46c63 -23 124 -51 124 -117c0 -98 -88 -129 -178 -129c-58 0 -132 20 -165 77l79 52c18 -36 57 -49 89 -49c29 0 66 8 66 37c0 22 -26 32 -57 43c-57 20 -134 44 -134 117
c0 87 75 129 168 129c60 0 120 -22 152 -69z" />
    <glyph glyph-name="t.superior" unicode="&#xf6f3;" horiz-adv-x="278" 
d="M305 678l-16 -80h-91c-11 -56 -22 -113 -35 -175c-3 -13 -6 -27 -6 -34c0 -18 9 -22 28 -22c11 0 34 5 48 9l14 -79c-30 -8 -65 -14 -94 -14c-62 0 -105 16 -106 82c0 18 4 38 8 56c11 58 23 119 35 177h-55l16 80h55c6 33 14 69 20 101l119 51l-30 -152h90z" />
    <glyph glyph-name="parenleft.inferior" unicode="&#x208d;" horiz-adv-x="278" 
d="M247 570h114c-122 -115 -222 -267 -222 -435c0 -83 35 -174 88 -247h-110c-56 81 -82 155 -82 244c0 164 89 329 212 438z" />
    <glyph glyph-name="parenright.inferior" unicode="&#x208e;" horiz-adv-x="278" 
d="M41 -112h-114c122 115 222 267 222 435c0 83 -35 174 -88 247h110c56 -81 82 -155 82 -244c0 -164 -89 -329 -212 -438z" />
    <glyph glyph-name="oneeighth" unicode="&#x215b;" horiz-adv-x="1058" 
d="M886 727l-569 -878h-109l569 878h109zM406 382l-18 -89h-295l18 89h98l43 211c-37 -15 -76 -27 -116 -33l18 88c64 17 117 44 162 94h78l-73 -360h85zM995 -15c0 -103 -99 -147 -211 -147c-108 0 -170 39 -170 109c0 71 51 109 107 136c-23 16 -53 45 -53 85
c0 90 103 128 201 128c94 0 155 -31 155 -97c0 -62 -42 -95 -86 -119c32 -21 57 -48 57 -95zM834 112c27 9 68 26 68 64c0 19 -13 36 -50 36c-30 0 -67 -13 -67 -51c0 -18 13 -35 49 -49zM796 -78c33 0 80 17 80 60c0 23 -23 49 -60 63c-46 -18 -80 -37 -80 -82
c0 -22 16 -41 60 -41z" />
    <glyph glyph-name="threeeighths" unicode="&#x215c;" horiz-adv-x="1058" 
d="M886 727l-569 -878h-109l569 878h109zM995 -15c0 -103 -99 -147 -211 -147c-108 0 -170 39 -170 109c0 71 51 109 107 136c-23 16 -53 45 -53 85c0 90 103 128 201 128c94 0 155 -31 155 -97c0 -62 -42 -95 -86 -119c32 -21 57 -48 57 -95zM834 112c27 9 68 26 68 64
c0 19 -13 36 -50 36c-30 0 -67 -13 -67 -51c0 -18 13 -35 49 -49zM796 -78c33 0 80 17 80 60c0 23 -23 49 -60 63c-46 -18 -80 -37 -80 -82c0 -22 16 -41 60 -41zM478 733l-14 -75l-115 -105c53 -9 90 -49 90 -105c0 -116 -89 -167 -202 -167c-65 0 -131 19 -170 79l79 56
c17 -28 49 -47 82 -47c53 0 91 27 91 78c0 36 -30 51 -66 51c-18 0 -36 -2 -53 -6l9 43l123 109h-178l18 89h306z" />
    <glyph glyph-name="fiveeighths" unicode="&#x215d;" horiz-adv-x="1058" 
d="M886 727l-569 -878h-109l569 878h109zM995 -15c0 -103 -99 -147 -211 -147c-108 0 -170 39 -170 109c0 71 51 109 107 136c-23 16 -53 45 -53 85c0 90 103 128 201 128c94 0 155 -31 155 -97c0 -62 -42 -95 -86 -119c32 -21 57 -48 57 -95zM834 112c27 9 68 26 68 64
c0 19 -13 36 -50 36c-30 0 -67 -13 -67 -51c0 -18 13 -35 49 -49zM796 -78c33 0 80 17 80 60c0 23 -23 49 -60 63c-46 -18 -80 -37 -80 -82c0 -22 16 -41 60 -41zM457 471c0 -120 -109 -187 -227 -187c-78 0 -137 35 -168 84l86 56c20 -28 50 -48 97 -48c46 0 89 24 89 72
c0 32 -31 48 -71 48c-28 0 -58 -8 -84 -20h-64l83 257h290l-18 -90h-199l-19 -62c16 3 49 5 63 5c74 0 142 -35 142 -115z" />
    <glyph glyph-name="seveneighths" unicode="&#x215e;" horiz-adv-x="1058" 
d="M886 727l-569 -878h-109l569 878h109zM995 -15c0 -103 -99 -147 -211 -147c-108 0 -170 39 -170 109c0 71 51 109 107 136c-23 16 -53 45 -53 85c0 90 103 128 201 128c94 0 155 -31 155 -97c0 -62 -42 -95 -86 -119c32 -21 57 -48 57 -95zM834 112c27 9 68 26 68 64
c0 19 -13 36 -50 36c-30 0 -67 -13 -67 -51c0 -18 13 -35 49 -49zM796 -78c33 0 80 17 80 60c0 23 -23 49 -60 63c-46 -18 -80 -37 -80 -82c0 -22 16 -41 60 -41zM531 657l-246 -373h-128l241 357h-133l-12 -60h-89l30 152h352z" />
    <glyph glyph-name="onethird" unicode="&#x2153;" horiz-adv-x="1058" 
d="M886 727l-569 -878h-109l569 878h109zM406 382l-18 -89h-295l18 89h98l43 211c-37 -15 -76 -27 -116 -33l18 88c64 17 117 44 162 94h78l-73 -360h85zM1029 290l-14 -75l-115 -105c53 -9 90 -49 90 -105c0 -116 -89 -167 -202 -167c-65 0 -131 19 -170 79l79 56
c17 -28 49 -47 82 -47c53 0 91 27 91 78c0 36 -30 51 -66 51c-18 0 -36 -2 -53 -6l9 43l123 109h-178l18 89h306z" />
    <glyph glyph-name="twothirds" unicode="&#x2154;" horiz-adv-x="1058" 
d="M886 727l-569 -878h-109l569 878h109zM1029 290l-14 -75l-115 -105c53 -9 90 -49 90 -105c0 -116 -89 -167 -202 -167c-65 0 -131 19 -170 79l79 56c17 -28 49 -47 82 -47c53 0 91 27 91 78c0 36 -30 51 -66 51c-18 0 -36 -2 -53 -6l9 43l123 109h-178l18 89h306z
M471 629c0 -63 -39 -110 -83 -144c-48 -37 -100 -68 -152 -99h208l-19 -93h-389l17 80c57 35 112 69 168 105c106 68 131 94 131 130c0 20 -19 41 -62 41c-44 0 -85 -23 -121 -55l-60 71c55 50 120 77 202 77c98 0 160 -40 160 -113z" />
    <glyph glyph-name="zero.superior" unicode="&#x2070;" 
d="M502 578c0 -144 -69 -294 -245 -294c-113 0 -180 61 -180 164c0 144 70 294 245 294c116 0 180 -64 180 -164zM382 575c0 46 -24 72 -70 72c-70 0 -115 -93 -115 -196c0 -46 24 -72 70 -72c70 0 115 93 115 196z" />
    <glyph glyph-name="four.superior" unicode="&#x2074;" 
d="M458 458l-17 -85h-58l-19 -92h-109l18 92h-219l17 88l274 278h111l-56 -281h58zM322 601l-146 -147h116z" />
    <glyph glyph-name="five.superior" unicode="&#x2075;" 
d="M457 471c0 -120 -109 -187 -227 -187c-78 0 -137 35 -168 84l86 56c20 -28 50 -48 97 -48c46 0 89 24 89 72c0 32 -31 48 -71 48c-28 0 -58 -8 -84 -20h-64l83 257h290l-18 -90h-199l-19 -62c16 3 49 5 63 5c74 0 142 -35 142 -115z" />
    <glyph glyph-name="six.superior" unicode="&#x2076;" 
d="M441 471c0 -120 -104 -187 -219 -187c-111 0 -161 67 -161 155c0 155 96 303 268 303c59 0 103 -15 143 -47l-69 -75c-28 22 -60 32 -93 32c-48 0 -99 -26 -110 -86c33 16 72 21 102 21c72 0 139 -32 139 -116zM240 380c41 0 78 27 78 76c0 31 -23 44 -56 44
c-25 0 -56 -9 -75 -19c-4 -11 -6 -23 -6 -37c0 -40 22 -64 59 -64z" />
    <glyph glyph-name="seven.superior" unicode="&#x2077;" 
d="M462 657l-246 -373h-128l241 357h-133l-12 -60h-89l30 152h352z" />
    <glyph glyph-name="eight.superior" unicode="&#x2078;" 
d="M437 431c0 -103 -99 -147 -211 -147c-108 0 -170 39 -170 109c0 71 51 109 107 136c-23 16 -53 45 -53 85c0 90 103 128 201 128c94 0 155 -31 155 -97c0 -62 -42 -95 -86 -119c32 -21 57 -48 57 -95zM276 558c27 9 68 26 68 64c0 19 -13 36 -50 36
c-30 0 -67 -13 -67 -51c0 -18 13 -35 49 -49zM238 368c33 0 80 17 80 60c0 23 -23 49 -60 63c-46 -18 -80 -37 -80 -82c0 -22 16 -41 60 -41z" />
    <glyph glyph-name="nine.superior" unicode="&#x2079;" 
d="M87 567c0 107 103 175 219 175c106 0 161 -67 161 -163c0 -155 -96 -295 -268 -295c-59 0 -103 15 -143 47l68 75c28 -22 60 -32 93 -32c48 0 97 28 108 88c-33 -16 -69 -21 -99 -21c-72 0 -139 30 -139 126zM287 646c-41 0 -78 -24 -78 -76c0 -33 24 -42 57 -42
c25 0 57 8 76 18c4 11 5 23 5 37c0 40 -23 63 -60 63z" />
    <glyph glyph-name="zero.inferior" unicode="&#x2080;" 
d="M502 169c0 -144 -69 -294 -245 -294c-113 0 -180 61 -180 164c0 144 70 294 245 294c116 0 180 -64 180 -164zM382 166c0 46 -24 72 -70 72c-70 0 -115 -93 -115 -196c0 -46 24 -72 70 -72c70 0 115 93 115 196z" />
    <glyph glyph-name="one.inferior" unicode="&#x2081;" 
d="M406 -28l-18 -89h-295l18 89h98l43 211c-37 -15 -76 -27 -116 -33l18 88c64 17 117 44 162 94h78l-73 -360h85z" />
    <glyph glyph-name="two.inferior" unicode="&#x2082;" 
d="M471 219c0 -63 -39 -110 -83 -144c-48 -37 -100 -68 -152 -99h208l-19 -93h-389l17 80c57 35 112 69 168 105c106 68 131 94 131 130c0 20 -19 41 -62 41c-44 0 -85 -23 -121 -55l-60 71c55 50 120 77 202 77c98 0 160 -40 160 -113z" />
    <glyph glyph-name="three.inferior" unicode="&#x2083;" 
d="M478 327l-14 -75l-115 -105c53 -9 90 -49 90 -105c0 -116 -89 -167 -202 -167c-65 0 -131 19 -170 79l79 56c17 -28 49 -47 82 -47c53 0 91 27 91 78c0 36 -30 51 -66 51c-18 0 -36 -2 -53 -6l9 43l123 109h-178l18 89h306z" />
    <glyph glyph-name="four.inferior" unicode="&#x2084;" 
d="M458 52l-17 -85h-58l-19 -92h-109l18 92h-219l17 88l274 278h111l-56 -281h58zM322 195l-146 -147h116z" />
    <glyph glyph-name="five.inferior" unicode="&#x2085;" 
d="M457 62c0 -120 -109 -187 -227 -187c-78 0 -137 35 -168 84l86 56c20 -28 50 -48 97 -48c46 0 89 24 89 72c0 32 -31 48 -71 48c-28 0 -58 -8 -84 -20h-64l83 257h290l-18 -90h-199l-19 -62c16 3 49 5 63 5c74 0 142 -35 142 -115z" />
    <glyph glyph-name="six.inferior" unicode="&#x2086;" 
d="M441 62c0 -120 -104 -187 -219 -187c-111 0 -161 67 -161 155c0 155 96 303 268 303c59 0 103 -15 143 -47l-69 -75c-28 22 -60 32 -93 32c-48 0 -99 -26 -110 -86c33 16 72 21 102 21c72 0 139 -32 139 -116zM240 -29c41 0 78 27 78 76c0 31 -23 44 -56 44
c-25 0 -56 -9 -75 -19c-4 -11 -6 -23 -6 -37c0 -40 22 -64 59 -64z" />
    <glyph glyph-name="seven.inferior" unicode="&#x2087;" 
d="M462 248l-246 -373h-128l241 357h-133l-12 -60h-89l30 152h352z" />
    <glyph glyph-name="eight.inferior" unicode="&#x2088;" 
d="M437 22c0 -103 -99 -147 -211 -147c-108 0 -170 39 -170 109c0 71 51 109 107 136c-23 16 -53 45 -53 85c0 90 103 128 201 128c94 0 155 -31 155 -97c0 -62 -42 -95 -86 -119c32 -21 57 -48 57 -95zM276 149c27 9 68 26 68 64c0 19 -13 36 -50 36c-30 0 -67 -13 -67 -51
c0 -18 13 -35 49 -49zM238 -41c33 0 80 17 80 60c0 23 -23 49 -60 63c-46 -18 -80 -37 -80 -82c0 -22 16 -41 60 -41z" />
    <glyph glyph-name="nine.inferior" unicode="&#x2089;" 
d="M87 158c0 107 103 175 219 175c106 0 161 -67 161 -163c0 -155 -96 -295 -268 -295c-59 0 -103 15 -143 47l68 75c28 -22 60 -32 93 -32c48 0 97 28 108 88c-33 -16 -69 -21 -99 -21c-72 0 -139 30 -139 126zM287 237c-41 0 -78 -24 -78 -76c0 -33 24 -42 57 -42
c25 0 57 8 76 18c4 11 5 23 5 37c0 40 -23 63 -60 63z" />
    <glyph glyph-name="commaaccent" unicode="&#xf6c3;" horiz-adv-x="220" 
d="M173 -91c0 -39 -21 -78 -53 -104h-74c15 13 27 34 30 54c-38 0 -52 26 -52 48c0 40 30 69 83 69c46 0 66 -28 66 -67z" />
    <glyph glyph-name="Abreve" unicode="&#x102;" horiz-adv-x="691" 
d="M615 0h-136l-21 169h-274l-88 -169h-141l385 727h180zM445 279l-37 320l-169 -320h206zM644 918c-26 -54 -83 -138 -211 -138c-123 0 -149 81 -154 138h88c12 -33 27 -54 76 -54c47 0 87 18 114 54h87z" />
    <glyph glyph-name="Amacron" unicode="&#x100;" horiz-adv-x="691" 
d="M615 0h-136l-21 169h-274l-88 -169h-141l385 727h180zM445 279l-37 320l-169 -320h206zM611 865l-18 -85h-314l18 85h314z" />
    <glyph glyph-name="Aogonek" unicode="&#x104;" horiz-adv-x="691" 
d="M686 -156c-44 -21 -91 -37 -140 -37c-54 0 -102 23 -102 83c0 34 16 76 35 110l-21 169h-274l-88 -169h-141l385 727h180l95 -727h-48c-12 -23 -21 -49 -21 -72c0 -27 16 -42 43 -42s51 9 75 21zM445 279l-37 320l-169 -320h206z" />
    <glyph glyph-name="AEacute" unicode="&#x1fc;" horiz-adv-x="921" 
d="M955 727l-24 -115h-304l-36 -178h272l-22 -112h-272l-42 -207h304l-24 -115h-441l34 169h-217l-95 -169h-142l415 727h594zM491 612h-57l-189 -333h178zM851 956l-193 -176h-100l152 176h141z" />
    <glyph glyph-name="Cacute" unicode="&#x106;" horiz-adv-x="678" 
d="M728 596l-111 -57c-34 70 -91 91 -162 91c-184 0 -255 -195 -255 -351c0 -106 55 -182 152 -182c73 0 128 31 185 73l65 -99c-80 -60 -164 -86 -263 -86c-170 0 -281 111 -281 292c0 261 143 465 408 465c107 0 221 -39 262 -146zM661 956l-193 -176h-100l152 176h141z
" />
    <glyph glyph-name="Ccaron" unicode="&#x10c;" horiz-adv-x="678" 
d="M728 596l-111 -57c-34 70 -91 91 -162 91c-184 0 -255 -195 -255 -351c0 -106 55 -182 152 -182c73 0 128 31 185 73l65 -99c-80 -60 -164 -86 -263 -86c-170 0 -281 111 -281 292c0 261 143 465 408 465c107 0 221 -39 262 -146zM698 956l-158 -176h-118l-88 176h92
l64 -101l109 101h99z" />
    <glyph glyph-name="Ccircumflex" unicode="&#x108;" horiz-adv-x="678" 
d="M728 596l-111 -57c-34 70 -91 91 -162 91c-184 0 -255 -195 -255 -351c0 -106 55 -182 152 -182c73 0 128 31 185 73l65 -99c-80 -60 -164 -86 -263 -86c-170 0 -281 111 -281 292c0 261 143 465 408 465c107 0 221 -39 262 -146zM666 780h-92l-64 101l-109 -101h-99
l158 176h118z" />
    <glyph glyph-name="Cdotaccent" unicode="&#x10a;" horiz-adv-x="678" 
d="M728 596l-111 -57c-34 70 -91 91 -162 91c-184 0 -255 -195 -255 -351c0 -106 55 -182 152 -182c73 0 128 31 185 73l65 -99c-80 -60 -164 -86 -263 -86c-170 0 -281 111 -281 292c0 261 143 465 408 465c107 0 221 -39 262 -146zM550 854c0 -47 -30 -74 -79 -74
c-31 0 -62 18 -62 52c0 50 30 76 78 76c35 0 63 -18 63 -54z" />
    <glyph glyph-name="Dcaron" unicode="&#x10e;" horiz-adv-x="710" 
d="M686 459c0 -292 -141 -459 -453 -459h-214l148 727h188c205 0 331 -78 331 -268zM544 455c0 132 -87 158 -209 158h-54l-102 -499h56c236 0 309 146 309 341zM611 956l-158 -176h-118l-88 176h92l64 -101l109 101h99z" />
    <glyph glyph-name="Dcroat" unicode="&#x110;" horiz-adv-x="710" 
d="M686 459c0 -292 -141 -459 -453 -459h-214l65 319h-60l19 92h60l64 316h188c205 0 331 -78 331 -268zM544 455c0 132 -87 158 -209 158h-54l-41 -202h153l-19 -92h-153l-42 -205h56c236 0 309 146 309 341z" />
    <glyph glyph-name="Ebreve" unicode="&#x114;" horiz-adv-x="605" 
d="M639 727l-24 -115h-335l-36 -178h303l-22 -112h-303l-42 -207h335l-24 -115h-472l148 727h472zM604 918c-26 -54 -83 -138 -211 -138c-123 0 -149 81 -154 138h88c12 -33 27 -54 76 -54c47 0 87 18 114 54h87z" />
    <glyph glyph-name="Ecaron" unicode="&#x11a;" horiz-adv-x="605" 
d="M639 727l-24 -115h-335l-36 -178h303l-22 -112h-303l-42 -207h335l-24 -115h-472l148 727h472zM618 956l-158 -176h-118l-88 176h92l64 -101l109 101h99z" />
    <glyph glyph-name="Edotaccent" unicode="&#x116;" horiz-adv-x="605" 
d="M639 727l-24 -115h-335l-36 -178h303l-22 -112h-303l-42 -207h335l-24 -115h-472l148 727h472zM481 854c0 -47 -30 -74 -79 -74c-31 0 -62 18 -62 52c0 50 30 76 78 76c35 0 63 -18 63 -54z" />
    <glyph glyph-name="Emacron" unicode="&#x112;" horiz-adv-x="605" 
d="M639 727l-24 -115h-335l-36 -178h303l-22 -112h-303l-42 -207h335l-24 -115h-472l148 727h472zM580 865l-18 -85h-314l18 85h314z" />
    <glyph glyph-name="Eng" unicode="&#x14a;" horiz-adv-x="725" 
d="M712 584c0 -19 -4 -55 -10 -85l-96 -473c-33 -162 -99 -219 -248 -219c-55 0 -117 12 -149 25l45 111c44 -18 77 -24 112 -24c74 0 96 33 119 147l82 399c6 28 15 86 15 97c0 43 -17 64 -78 64c-75 0 -186 -50 -250 -100l-107 -526h-128l148 727h115l-15 -80
c96 64 173 95 262 95c108 0 183 -50 183 -158z" />
    <glyph glyph-name="Eogonek" unicode="&#x118;" horiz-adv-x="605" 
d="M515 -156c-44 -21 -91 -37 -140 -37c-54 0 -102 23 -102 83c0 34 16 76 35 110h-289l148 727h472l-24 -115h-335l-36 -178h303l-22 -112h-303l-42 -207h335l-24 -115h-95c-12 -23 -21 -49 -21 -72c0 -27 16 -42 43 -42s51 9 75 21z" />
    <glyph glyph-name="Gbreve" unicode="&#x11e;" horiz-adv-x="735" 
d="M738 596l-111 -57c-33 72 -90 91 -165 91c-190 0 -262 -195 -262 -356c0 -112 65 -177 173 -177c46 0 95 12 140 31l24 123h-135l24 116h272l-63 -310c-87 -45 -186 -72 -279 -72c-208 0 -298 129 -298 283c0 272 141 474 417 474c110 0 222 -36 263 -146zM689 918
c-26 -54 -83 -138 -211 -138c-123 0 -149 81 -154 138h88c12 -33 27 -54 76 -54c47 0 87 18 114 54h87z" />
    <glyph glyph-name="Gcircumflex" unicode="&#x11c;" horiz-adv-x="735" 
d="M738 596l-111 -57c-33 72 -90 91 -165 91c-190 0 -262 -195 -262 -356c0 -112 65 -177 173 -177c46 0 95 12 140 31l24 123h-135l24 116h272l-63 -310c-87 -45 -186 -72 -279 -72c-208 0 -298 129 -298 283c0 272 141 474 417 474c110 0 222 -36 263 -146zM684 780h-92
l-64 101l-109 -101h-99l158 176h118z" />
    <glyph glyph-name="Gcommaaccent" unicode="&#x122;" horiz-adv-x="735" 
d="M738 596l-111 -57c-33 72 -90 91 -165 91c-190 0 -262 -195 -262 -356c0 -112 65 -177 173 -177c46 0 95 12 140 31l24 123h-135l24 116h272l-63 -310c-87 -45 -186 -72 -279 -72c-208 0 -298 129 -298 283c0 272 141 474 417 474c110 0 222 -36 263 -146zM441 -91
c0 -39 -21 -78 -53 -104h-74c15 13 27 34 30 54c-38 0 -52 26 -52 48c0 40 30 69 83 69c46 0 66 -28 66 -67z" />
    <glyph glyph-name="Gdotaccent" unicode="&#x120;" horiz-adv-x="735" 
d="M738 596l-111 -57c-33 72 -90 91 -165 91c-190 0 -262 -195 -262 -356c0 -112 65 -177 173 -177c46 0 95 12 140 31l24 123h-135l24 116h272l-63 -310c-87 -45 -186 -72 -279 -72c-208 0 -298 129 -298 283c0 272 141 474 417 474c110 0 222 -36 263 -146zM566 854
c0 -47 -30 -74 -79 -74c-31 0 -62 18 -62 52c0 50 30 76 78 76c35 0 63 -18 63 -54z" />
    <glyph glyph-name="Hbar" unicode="&#x126;" horiz-adv-x="706" 
d="M729 727l-23 -110h65l-18 -85h-64l-108 -532h-137l65 318h-288l-65 -318h-137l108 532h-64l18 85h63l23 110h137l-23 -110h288l23 110h137zM244 432h288l20 100h-288z" />
    <glyph glyph-name="Hcircumflex" unicode="&#x124;" horiz-adv-x="706" 
d="M729 727l-148 -727h-137l65 318h-288l-65 -318h-137l148 727h137l-60 -295h288l60 295h137zM633 780h-92l-64 101l-109 -101h-99l158 176h118z" />
    <glyph glyph-name="Ibreve" unicode="&#x12c;" horiz-adv-x="409" 
d="M462 727l-22 -106h-94l-104 -515h94l-22 -106h-325l22 106h94l104 515h-94l22 106h325zM505 918c-26 -54 -83 -138 -211 -138c-123 0 -149 81 -154 138h88c12 -33 27 -54 76 -54c47 0 87 18 114 54h87z" />
    <glyph glyph-name="IJ" unicode="&#x132;" horiz-adv-x="874" 
d="M462 727l-22 -106h-94l-104 -515h94l-22 -106h-325l22 106h94l104 515h-94l22 106h325zM902 727l-106 -523c-33 -162 -107 -219 -256 -219c-55 0 -117 12 -149 25l45 111c44 -18 77 -24 112 -24c74 0 96 33 119 147l76 374h-22c-52 0 -107 -18 -162 -51l-51 97
c78 45 156 63 253 63h141z" />
    <glyph glyph-name="Imacron" unicode="&#x12a;" horiz-adv-x="409" 
d="M462 727l-22 -106h-94l-104 -515h94l-22 -106h-325l22 106h94l104 515h-94l22 106h325zM480 865l-18 -85h-314l18 85h314z" />
    <glyph glyph-name="Iogonek" unicode="&#x12e;" horiz-adv-x="409" 
d="M315 -156c-44 -21 -91 -37 -140 -37c-54 0 -102 23 -102 83c0 34 16 76 35 110h-119l22 106h94l104 515h-94l22 106h325l-22 -106h-94l-104 -515h94l-22 -106h-118c-12 -23 -21 -49 -21 -72c0 -27 16 -42 43 -42s51 9 75 21z" />
    <glyph glyph-name="Itilde" unicode="&#x128;" horiz-adv-x="409" 
d="M462 727l-22 -106h-94l-104 -515h94l-22 -106h-325l22 106h94l104 515h-94l22 106h325zM498 914c-20 -78 -65 -134 -149 -134c-69 0 -90 49 -130 49c-27 0 -46 -19 -53 -49h-79c20 79 67 134 148 134c68 0 94 -49 130 -49c25 0 43 12 55 49h78z" />
    <glyph glyph-name="Jcircumflex" unicode="&#x134;" horiz-adv-x="465" 
d="M493 727l-106 -523c-33 -162 -107 -219 -256 -219c-55 0 -117 12 -149 25l45 111c44 -18 77 -24 112 -24c74 0 96 33 119 147l76 374h-22c-52 0 -107 -18 -162 -51l-51 97c78 45 156 63 253 63h141zM506 780h-92l-64 101l-109 -101h-99l158 176h118z" />
    <glyph glyph-name="Kcommaaccent" unicode="&#x136;" horiz-adv-x="663" 
d="M746 727l-306 -287l154 -440h-147l-114 340l-133 -124l-44 -216h-137l148 727h137l-64 -312l331 312h175zM360 -91c0 -39 -21 -78 -53 -104h-74c15 13 27 34 30 54c-38 0 -52 26 -52 48c0 40 30 69 83 69c46 0 66 -28 66 -67z" />
    <glyph glyph-name="Lacute" unicode="&#x139;" horiz-adv-x="564" 
d="M506 115l-24 -115h-463l148 727h137l-124 -612h326zM559 956l-193 -176h-100l152 176h141z" />
    <glyph glyph-name="Lcaron" unicode="&#x13d;" horiz-adv-x="564" 
d="M506 115l-24 -115h-463l148 727h137l-124 -612h326zM526 653c0 -69 -65 -161 -117 -216h-68c25 28 85 111 85 149v3c-33 0 -58 21 -58 54c0 56 29 84 88 84c45 0 70 -27 70 -74z" />
    <glyph glyph-name="Lcommaaccent" unicode="&#x13b;" horiz-adv-x="564" 
d="M506 115l-24 -115h-463l148 727h137l-124 -612h326zM337 -91c0 -39 -21 -78 -53 -104h-74c15 13 27 34 30 54c-38 0 -52 26 -52 48c0 40 30 69 83 69c46 0 66 -28 66 -67z" />
    <glyph glyph-name="Ldot" unicode="&#x13f;" horiz-adv-x="564" 
d="M506 115l-24 -115h-463l148 727h137l-124 -612h326zM495 384c0 -61 -30 -86 -87 -86c-41 0 -71 17 -71 56c0 59 29 86 88 86c38 0 70 -16 70 -56z" />
    <glyph glyph-name="Nacute" unicode="&#x143;" horiz-adv-x="725" 
d="M748 727l-148 -727h-151l-189 555l-113 -555h-128l148 727h167l180 -523l106 523h128zM666 956l-193 -176h-100l152 176h141z" />
    <glyph glyph-name="Ncaron" unicode="&#x147;" horiz-adv-x="725" 
d="M748 727l-148 -727h-151l-189 555l-113 -555h-128l148 727h167l180 -523l106 523h128zM695 956l-158 -176h-118l-88 176h92l64 -101l109 101h99z" />
    <glyph glyph-name="Ncommaaccent" unicode="&#x145;" horiz-adv-x="725" 
d="M748 727l-148 -727h-151l-189 555l-113 -555h-128l148 727h167l180 -523l106 523h128zM360 -91c0 -39 -21 -78 -53 -104h-74c15 13 27 34 30 54c-38 0 -52 26 -52 48c0 40 30 69 83 69c46 0 66 -28 66 -67z" />
    <glyph glyph-name="Obreve" unicode="&#x14e;" horiz-adv-x="769" 
d="M745 450c0 -253 -128 -465 -395 -465c-196 0 -292 128 -292 291c0 255 128 466 395 466c198 0 292 -130 292 -292zM603 448c0 104 -51 182 -158 182c-183 0 -245 -199 -245 -351c0 -104 51 -182 158 -182c183 0 245 199 245 351zM687 918c-26 -54 -83 -138 -211 -138
c-123 0 -149 81 -154 138h88c12 -33 27 -54 76 -54c47 0 87 18 114 54h87z" />
    <glyph glyph-name="Ohungarumlaut" unicode="&#x150;" horiz-adv-x="769" 
d="M745 450c0 -253 -128 -465 -395 -465c-196 0 -292 128 -292 291c0 255 128 466 395 466c198 0 292 -130 292 -292zM603 448c0 104 -51 182 -158 182c-183 0 -245 -199 -245 -351c0 -104 51 -182 158 -182c183 0 245 199 245 351zM754 956l-173 -176h-100l134 176h139z
M564 956l-173 -176h-100l134 176h139z" />
    <glyph glyph-name="Omacron" unicode="&#x14c;" horiz-adv-x="769" 
d="M745 450c0 -253 -128 -465 -395 -465c-196 0 -292 128 -292 291c0 255 128 466 395 466c198 0 292 -130 292 -292zM603 448c0 104 -51 182 -158 182c-183 0 -245 -199 -245 -351c0 -104 51 -182 158 -182c183 0 245 199 245 351zM655 865l-18 -85h-314l18 85h314z" />
    <glyph glyph-name="Oslashacute" unicode="&#x1fe;" horiz-adv-x="769" 
d="M826 764l-126 -142c30 -48 45 -107 45 -172c0 -253 -128 -465 -395 -465c-72 0 -131 17 -176 48l-79 -89h-127l139 156c-33 48 -49 109 -49 176c0 255 128 466 395 466c75 0 135 -19 181 -51l65 73h127zM548 595c-25 22 -59 35 -103 35c-183 0 -245 -199 -245 -351
c0 -24 3 -46 8 -66zM603 448c0 21 -2 41 -6 59l-338 -379c25 -20 58 -31 99 -31c183 0 245 199 245 351zM637 956l-193 -176h-100l152 176h141z" />
    <glyph glyph-name="Racute" unicode="&#x154;" horiz-adv-x="655" 
d="M647 550c0 -105 -54 -175 -163 -205c57 -18 69 -61 71 -114l10 -231h-135l-9 212c-2 54 -16 86 -75 86h-129l-61 -298h-137l148 727h259c118 0 221 -51 221 -177zM505 538c0 60 -52 77 -109 77h-115l-42 -208h115c85 0 151 28 151 131zM574 956l-193 -176h-100l152 176
h141z" />
    <glyph glyph-name="Rcaron" unicode="&#x158;" horiz-adv-x="655" 
d="M647 550c0 -105 -54 -175 -163 -205c57 -18 69 -61 71 -114l10 -231h-135l-9 212c-2 54 -16 86 -75 86h-129l-61 -298h-137l148 727h259c118 0 221 -51 221 -177zM505 538c0 60 -52 77 -109 77h-115l-42 -208h115c85 0 151 28 151 131zM608 956l-158 -176h-118l-88 176
h92l64 -101l109 101h99z" />
    <glyph glyph-name="Rcommaaccent" unicode="&#x156;" horiz-adv-x="655" 
d="M647 550c0 -105 -54 -175 -163 -205c57 -18 69 -61 71 -114l10 -231h-135l-9 212c-2 54 -16 86 -75 86h-129l-61 -298h-137l148 727h259c118 0 221 -51 221 -177zM505 538c0 60 -52 77 -109 77h-115l-42 -208h115c85 0 151 28 151 131zM353 -91c0 -39 -21 -78 -53 -104
h-74c15 13 27 34 30 54c-38 0 -52 26 -52 48c0 40 30 69 83 69c46 0 66 -28 66 -67z" />
    <glyph glyph-name="Sacute" unicode="&#x15a;" horiz-adv-x="586" 
d="M603 604l-108 -59c-35 67 -86 85 -152 85c-59 0 -130 -33 -130 -96c0 -55 44 -71 129 -98c108 -34 214 -81 214 -206c0 -169 -142 -245 -303 -245c-106 0 -209 38 -260 149l113 62c32 -71 88 -99 158 -99c75 0 152 32 152 111c0 54 -42 78 -125 104
c-113 35 -218 75 -218 200c0 124 99 230 285 230c103 0 200 -36 245 -138zM561 956l-193 -176h-100l152 176h141z" />
    <glyph glyph-name="Scedilla" unicode="&#x15e;" horiz-adv-x="586" 
d="M334 -89c0 -83 -82 -104 -149 -104c-37 0 -88 7 -117 21l30 66c29 -11 62 -19 93 -19c22 0 48 7 48 34c0 31 -47 36 -63 36l29 43c-88 10 -169 52 -212 146l113 62c32 -71 88 -99 158 -99c75 0 152 32 152 111c0 54 -42 78 -125 104c-113 35 -218 75 -218 200
c0 124 99 230 285 230c103 0 200 -36 245 -138l-108 -59c-35 67 -86 85 -152 85c-59 0 -130 -33 -130 -96c0 -55 44 -71 129 -98c108 -34 214 -81 214 -206c0 -161 -129 -237 -280 -244l-2 -3c35 -9 60 -35 60 -72z" />
    <glyph glyph-name="Scircumflex" unicode="&#x15c;" horiz-adv-x="586" 
d="M603 604l-108 -59c-35 67 -86 85 -152 85c-59 0 -130 -33 -130 -96c0 -55 44 -71 129 -98c108 -34 214 -81 214 -206c0 -169 -142 -245 -303 -245c-106 0 -209 38 -260 149l113 62c32 -71 88 -99 158 -99c75 0 152 32 152 111c0 54 -42 78 -125 104
c-113 35 -218 75 -218 200c0 124 99 230 285 230c103 0 200 -36 245 -138zM549 780h-92l-64 101l-109 -101h-99l158 176h118z" />
    <glyph glyph-name="Scommaaccent" unicode="&#x218;" horiz-adv-x="586" 
d="M603 604l-108 -59c-35 67 -86 85 -152 85c-59 0 -130 -33 -130 -96c0 -55 44 -71 129 -98c108 -34 214 -81 214 -206c0 -169 -142 -245 -303 -245c-106 0 -209 38 -260 149l113 62c32 -71 88 -99 158 -99c75 0 152 32 152 111c0 54 -42 78 -125 104
c-113 35 -218 75 -218 200c0 124 99 230 285 230c103 0 200 -36 245 -138zM314 -91c0 -39 -21 -78 -53 -104h-74c15 13 27 34 30 54c-38 0 -52 26 -52 48c0 40 30 69 83 69c46 0 66 -28 66 -67z" />
    <glyph glyph-name="Tbar" unicode="&#x166;" horiz-adv-x="605" 
d="M686 727l-24 -115h-220l-46 -226h147l-18 -85h-146l-61 -301h-137l61 301h-141l18 85h140l46 226h-220l24 115h577z" />
    <glyph glyph-name="Tcaron" unicode="&#x164;" horiz-adv-x="605" 
d="M686 727l-24 -115h-220l-124 -612h-137l124 612h-220l24 115h577zM610 956l-158 -176h-118l-88 176h92l64 -101l109 101h99z" />
    <glyph glyph-name="Ubreve" unicode="&#x16c;" horiz-adv-x="697" 
d="M724 727l-89 -441c-42 -207 -114 -301 -333 -301c-132 0 -244 30 -244 181c0 40 6 80 14 119l89 442h137l-87 -431c-9 -43 -16 -85 -16 -106c0 -71 40 -93 113 -93c120 0 167 78 191 196l88 434h137zM658 918c-26 -54 -83 -138 -211 -138c-123 0 -149 81 -154 138h88
c12 -33 27 -54 76 -54c47 0 87 18 114 54h87z" />
    <glyph glyph-name="Uhungarumlaut" unicode="&#x170;" horiz-adv-x="697" 
d="M724 727l-89 -441c-42 -207 -114 -301 -333 -301c-132 0 -244 30 -244 181c0 40 6 80 14 119l89 442h137l-87 -431c-9 -43 -16 -85 -16 -106c0 -71 40 -93 113 -93c120 0 167 78 191 196l88 434h137zM706 956l-173 -176h-100l134 176h139zM516 956l-173 -176h-100
l134 176h139z" />
    <glyph glyph-name="Umacron" unicode="&#x16a;" horiz-adv-x="697" 
d="M724 727l-89 -441c-42 -207 -114 -301 -333 -301c-132 0 -244 30 -244 181c0 40 6 80 14 119l89 442h137l-87 -431c-9 -43 -16 -85 -16 -106c0 -71 40 -93 113 -93c120 0 167 78 191 196l88 434h137zM623 865l-18 -85h-314l18 85h314z" />
    <glyph glyph-name="Uogonek" unicode="&#x172;" horiz-adv-x="697" 
d="M445 -156c-44 -21 -91 -37 -140 -37c-54 0 -102 23 -102 83c0 31 13 67 29 99c-100 11 -174 53 -174 177c0 40 6 80 14 119l89 442h137l-87 -431c-9 -43 -16 -85 -16 -106c0 -71 40 -93 113 -93c120 0 167 78 191 196l88 434h137l-89 -441c-41 -202 -111 -296 -316 -301
c-8 -19 -14 -39 -14 -57c0 -27 16 -42 43 -42s51 9 75 21z" />
    <glyph glyph-name="Uring" unicode="&#x16e;" horiz-adv-x="697" 
d="M566 817c0 -77 -53 -128 -135 -128c-54 0 -100 31 -100 88c0 77 52 128 133 128c55 0 102 -29 102 -88zM513 808c0 33 -24 48 -55 48c-46 0 -76 -32 -76 -73c0 -30 24 -46 53 -46c47 0 78 32 78 71zM724 727l-89 -441c-42 -207 -114 -301 -333 -301
c-132 0 -244 30 -244 181c0 40 6 80 14 119l89 442h137l-87 -431c-9 -43 -16 -85 -16 -106c0 -71 40 -93 113 -93c120 0 167 78 191 196l88 434h137z" />
    <glyph glyph-name="Utilde" unicode="&#x168;" horiz-adv-x="697" 
d="M724 727l-89 -441c-42 -207 -114 -301 -333 -301c-132 0 -244 30 -244 181c0 40 6 80 14 119l89 442h137l-87 -431c-9 -43 -16 -85 -16 -106c0 -71 40 -93 113 -93c120 0 167 78 191 196l88 434h137zM663 914c-20 -78 -65 -134 -149 -134c-69 0 -90 49 -130 49
c-27 0 -46 -19 -53 -49h-79c20 79 67 134 148 134c68 0 94 -49 130 -49c25 0 43 12 55 49h78z" />
    <glyph glyph-name="Wacute" unicode="&#x1e82;" horiz-adv-x="906" 
d="M981 727l-313 -727h-126l-71 391l-218 -391h-131l-17 727h130l4 -527l202 365h116l70 -361l217 523h137zM707 956l-193 -176h-100l152 176h141z" />
    <glyph glyph-name="Wcircumflex" unicode="&#x174;" horiz-adv-x="906" 
d="M981 727l-313 -727h-126l-71 391l-218 -391h-131l-17 727h130l4 -527l202 365h116l70 -361l217 523h137zM740 780h-92l-64 101l-109 -101h-99l158 176h118z" />
    <glyph glyph-name="Wdieresis" unicode="&#x1e84;" horiz-adv-x="906" 
d="M981 727l-313 -727h-126l-71 391l-218 -391h-131l-17 727h130l4 -527l202 365h116l70 -361l217 523h137zM738 852c0 -45 -29 -72 -76 -72c-30 0 -59 17 -59 50c0 48 29 74 75 74c34 0 60 -18 60 -52zM520 852c0 -45 -29 -72 -76 -72c-30 0 -59 17 -59 50
c0 48 29 74 75 74c34 0 60 -18 60 -52z" />
    <glyph glyph-name="Wgrave" unicode="&#x1e80;" horiz-adv-x="906" 
d="M981 727l-313 -727h-126l-71 391l-218 -391h-131l-17 727h130l4 -527l202 365h116l70 -361l217 523h137zM679 780h-88l-130 176h128z" />
    <glyph glyph-name="Ycircumflex" unicode="&#x176;" horiz-adv-x="647" 
d="M728 727l-332 -433l-60 -294h-137l58 286l-153 441h142l102 -308l233 308h147zM601 780h-92l-64 101l-109 -101h-99l158 176h118z" />
    <glyph glyph-name="Ygrave" unicode="&#x1ef2;" horiz-adv-x="647" 
d="M728 727l-332 -433l-60 -294h-137l58 286l-153 441h142l102 -308l233 308h147zM498 780h-88l-130 176h128z" />
    <glyph glyph-name="Zacute" unicode="&#x179;" horiz-adv-x="637" 
d="M675 727l-20 -97l-463 -515h369l-24 -115h-550l21 102l458 510h-338l24 115h523zM627 956l-193 -176h-100l152 176h141z" />
    <glyph glyph-name="Zdotaccent" unicode="&#x17b;" horiz-adv-x="637" 
d="M675 727l-20 -97l-463 -515h369l-24 -115h-550l21 102l458 510h-338l24 115h523zM473 854c0 -47 -30 -74 -79 -74c-31 0 -62 18 -62 52c0 50 30 76 78 76c35 0 63 -18 63 -54z" />
    <glyph glyph-name="Idotaccent" unicode="&#x130;" horiz-adv-x="409" 
d="M462 727l-22 -106h-94l-104 -515h94l-22 -106h-325l22 106h94l104 515h-94l22 106h325zM391 854c0 -47 -30 -74 -79 -74c-31 0 -62 18 -62 52c0 50 30 76 78 76c35 0 63 -18 63 -54z" />
    <glyph glyph-name="abreve" unicode="&#x103;" horiz-adv-x="587" 
d="M574 527l-107 -527h-94l2 74c-57 -63 -113 -89 -175 -89c-129 0 -169 101 -169 207c0 171 99 343 291 343c40 0 91 -12 123 -24l85 16h44zM428 421c-35 15 -70 24 -105 24c-111 0 -163 -154 -163 -253c0 -64 20 -113 75 -113c65 0 124 78 147 117zM565 747
c-26 -54 -83 -138 -211 -138c-123 0 -149 81 -154 138h88c12 -33 27 -54 76 -54c47 0 87 18 114 54h87z" />
    <glyph glyph-name="amacron" unicode="&#x101;" horiz-adv-x="587" 
d="M574 527l-107 -527h-94l2 74c-57 -63 -113 -89 -175 -89c-129 0 -169 101 -169 207c0 171 99 343 291 343c40 0 91 -12 123 -24l85 16h44zM428 421c-35 15 -70 24 -105 24c-111 0 -163 -154 -163 -253c0 -64 20 -113 75 -113c65 0 124 78 147 117zM537 720l-18 -85h-314
l18 85h314z" />
    <glyph glyph-name="aogonek" unicode="&#x105;" horiz-adv-x="587" 
d="M574 -156c-44 -21 -91 -37 -140 -37c-54 0 -102 23 -102 83c0 38 20 86 41 122l2 62c-57 -63 -113 -89 -175 -89c-129 0 -169 101 -169 207c0 171 99 343 291 343c40 0 91 -12 123 -24l85 16h44l-107 -527h-12c-12 -23 -21 -49 -21 -72c0 -27 16 -42 43 -42s51 9 75 21z
M428 421c-35 15 -70 24 -105 24c-111 0 -163 -154 -163 -253c0 -64 20 -113 75 -113c65 0 124 78 147 117z" />
    <glyph glyph-name="aeacute" unicode="&#x1fd;" horiz-adv-x="874" 
d="M861 389c0 -107 -114 -155 -254 -166l-106 -8c-2 -11 -2 -18 -2 -29c0 -68 31 -101 101 -101c37 0 77 17 116 40l48 -90c-60 -37 -121 -50 -174 -50c-61 0 -121 30 -145 79l-13 -64h-72l3 72c-41 -49 -101 -87 -163 -87c-129 0 -169 101 -169 207c0 171 99 343 291 343
c40 0 104 -18 128 -32l60 32h26l-15 -74c56 52 116 74 178 74c75 0 162 -42 162 -146zM741 385c0 39 -27 57 -75 57c-78 0 -128 -56 -149 -137l61 5c87 7 163 24 163 75zM422 421c-35 15 -69 24 -102 24c-106 0 -160 -154 -160 -253c0 -64 21 -113 72 -113
c63 0 121 78 144 117zM829 766l-193 -176h-100l152 176h141z" />
    <glyph glyph-name="cacute" unicode="&#x107;" horiz-adv-x="501" 
d="M515 432l-94 -50c-22 40 -51 53 -96 53c-121 0 -165 -143 -165 -244c0 -68 30 -106 98 -106c41 0 85 18 119 40l48 -90c-56 -32 -111 -50 -181 -50c-136 0 -213 74 -213 206c0 193 106 344 301 344c77 0 151 -29 183 -103zM525 766l-193 -176h-100l152 176h141z" />
    <glyph glyph-name="ccaron" unicode="&#x10d;" horiz-adv-x="501" 
d="M515 432l-94 -50c-22 40 -51 53 -96 53c-121 0 -165 -143 -165 -244c0 -68 30 -106 98 -106c41 0 85 18 119 40l48 -90c-56 -32 -111 -50 -181 -50c-136 0 -213 74 -213 206c0 193 106 344 301 344c77 0 151 -29 183 -103zM558 766l-158 -176h-118l-88 176h92l64 -101
l109 101h99z" />
    <glyph glyph-name="ccircumflex" unicode="&#x109;" horiz-adv-x="501" 
d="M515 432l-94 -50c-22 40 -51 53 -96 53c-121 0 -165 -143 -165 -244c0 -68 30 -106 98 -106c41 0 85 18 119 40l48 -90c-56 -32 -111 -50 -181 -50c-136 0 -213 74 -213 206c0 193 106 344 301 344c77 0 151 -29 183 -103zM534 590h-92l-64 101l-109 -101h-99l158 176
h118z" />
    <glyph glyph-name="cdotaccent" unicode="&#x10b;" horiz-adv-x="501" 
d="M515 432l-94 -50c-22 40 -51 53 -96 53c-121 0 -165 -143 -165 -244c0 -68 30 -106 98 -106c41 0 85 18 119 40l48 -90c-56 -32 -111 -50 -181 -50c-136 0 -213 74 -213 206c0 193 106 344 301 344c77 0 151 -29 183 -103zM429 666c0 -47 -30 -74 -79 -74
c-31 0 -62 18 -62 52c0 50 30 76 78 76c35 0 63 -18 63 -54z" />
    <glyph glyph-name="dcaron" unicode="&#x10f;" horiz-adv-x="670" 
d="M614 727l-147 -727h-94l2 74c-57 -63 -113 -89 -175 -89c-129 0 -169 101 -169 207c0 171 99 343 291 343c40 0 91 -12 123 -24l44 216h125zM428 421c-35 15 -70 24 -105 24c-111 0 -163 -154 -163 -253c0 -64 20 -113 75 -113c65 0 124 78 147 117zM797 653
c0 -69 -65 -161 -117 -216h-68c25 28 85 111 85 149v3c-33 0 -58 21 -58 54c0 56 29 84 88 84c45 0 70 -27 70 -74z" />
    <glyph glyph-name="dcroat" unicode="&#x111;" horiz-adv-x="587" 
d="M614 727l-11 -54h66l-22 -91h-63l-117 -582h-94l2 74c-57 -63 -113 -89 -175 -89c-129 0 -169 101 -169 207c0 171 99 343 291 343c40 0 91 -12 123 -24l14 71h-145l22 91h142l11 54h125zM428 421c-35 15 -70 24 -105 24c-111 0 -163 -154 -163 -253
c0 -64 20 -113 75 -113c65 0 124 78 147 117z" />
    <glyph glyph-name="ebreve" unicode="&#x115;" horiz-adv-x="535" 
d="M522 389c0 -107 -114 -155 -254 -166l-106 -8c-2 -11 -2 -18 -2 -29c0 -68 31 -101 101 -101c37 0 77 17 116 40l48 -90c-60 -37 -124 -50 -194 -50c-123 0 -200 75 -200 206c0 178 112 344 299 344c110 0 192 -42 192 -146zM402 385c0 39 -27 57 -75 57
c-78 0 -129 -63 -149 -137l61 5c87 7 163 24 163 75zM564 747c-26 -54 -83 -138 -211 -138c-123 0 -149 81 -154 138h88c12 -33 27 -54 76 -54c47 0 87 18 114 54h87z" />
    <glyph glyph-name="ecaron" unicode="&#x11b;" horiz-adv-x="535" 
d="M522 389c0 -107 -114 -155 -254 -166l-106 -8c-2 -11 -2 -18 -2 -29c0 -68 31 -101 101 -101c37 0 77 17 116 40l48 -90c-60 -37 -124 -50 -194 -50c-123 0 -200 75 -200 206c0 178 112 344 299 344c110 0 192 -42 192 -146zM402 385c0 39 -27 57 -75 57
c-78 0 -129 -63 -149 -137l61 5c87 7 163 24 163 75zM557 766l-158 -176h-118l-88 176h92l64 -101l109 101h99z" />
    <glyph glyph-name="edotaccent" unicode="&#x117;" horiz-adv-x="535" 
d="M522 389c0 -107 -114 -155 -254 -166l-106 -8c-2 -11 -2 -18 -2 -29c0 -68 31 -101 101 -101c37 0 77 17 116 40l48 -90c-60 -37 -124 -50 -194 -50c-123 0 -200 75 -200 206c0 178 112 344 299 344c110 0 192 -42 192 -146zM402 385c0 39 -27 57 -75 57
c-78 0 -129 -63 -149 -137l61 5c87 7 163 24 163 75zM430 666c0 -47 -30 -74 -79 -74c-31 0 -62 18 -62 52c0 50 30 76 78 76c35 0 63 -18 63 -54z" />
    <glyph glyph-name="emacron" unicode="&#x113;" horiz-adv-x="535" 
d="M522 389c0 -107 -114 -155 -254 -166l-106 -8c-2 -11 -2 -18 -2 -29c0 -68 31 -101 101 -101c37 0 77 17 116 40l48 -90c-60 -37 -124 -50 -194 -50c-123 0 -200 75 -200 206c0 178 112 344 299 344c110 0 192 -42 192 -146zM402 385c0 39 -27 57 -75 57
c-78 0 -129 -63 -149 -137l61 5c87 7 163 24 163 75zM529 720l-18 -85h-314l18 85h314z" />
    <glyph glyph-name="eng" unicode="&#x14b;" horiz-adv-x="578" 
d="M540 413c0 -15 -3 -43 -8 -66l-70 -347c-25 -122 -64 -193 -210 -193c-26 0 -70 6 -92 11l27 97c24 -7 49 -10 77 -10c45 0 61 35 73 97l68 340c3 17 6 34 6 39c0 32 -12 45 -47 45c-43 0 -104 -28 -154 -66l-73 -360h-125l105 520h117l-12 -58c53 40 108 73 176 73
c84 0 142 -39 142 -122z" />
    <glyph glyph-name="eogonek" unicode="&#x119;" horiz-adv-x="535" 
d="M408 -156c-44 -21 -91 -37 -140 -37c-54 0 -102 23 -102 83c0 30 13 66 28 97c-101 13 -163 86 -163 204c0 178 112 344 299 344c110 0 192 -42 192 -146c0 -107 -114 -155 -254 -166l-106 -8c-2 -11 -2 -18 -2 -29c0 -68 31 -101 101 -101c37 0 77 17 116 40l48 -90
c-45 -28 -92 -42 -142 -47c-9 -20 -15 -41 -15 -60c0 -27 16 -42 43 -42s51 9 75 21zM402 385c0 39 -27 57 -75 57c-78 0 -129 -63 -149 -137l61 5c87 7 163 24 163 75z" />
    <glyph glyph-name="gbreve" unicode="&#x11f;" horiz-adv-x="593" 
d="M627 517l-18 -95c-13 4 -21 5 -32 5c-27 0 -41 -25 -50 -69l-69 -339c-31 -153 -107 -212 -268 -212c-59 0 -139 13 -188 36l42 93c40 -22 99 -36 149 -36c83 0 122 31 138 108l12 59c-45 -46 -100 -67 -154 -67c-111 0 -158 93 -158 197c0 170 100 338 283 338
c50 0 104 -15 147 -38c26 30 59 31 93 31c18 0 52 -4 73 -11zM419 417c-35 19 -70 28 -104 28c-104 0 -155 -148 -155 -245c0 -53 15 -106 71 -106c48 0 108 58 141 117l33 161c4 18 11 39 14 45zM548 747c-26 -54 -83 -138 -211 -138c-123 0 -149 81 -154 138h88
c12 -33 27 -54 76 -54c47 0 87 18 114 54h87z" />
    <glyph glyph-name="gcircumflex" unicode="&#x11d;" horiz-adv-x="593" 
d="M627 517l-18 -95c-13 4 -21 5 -32 5c-27 0 -41 -25 -50 -69l-69 -339c-31 -153 -107 -212 -268 -212c-59 0 -139 13 -188 36l42 93c40 -22 99 -36 149 -36c83 0 122 31 138 108l12 59c-45 -46 -100 -67 -154 -67c-111 0 -158 93 -158 197c0 170 100 338 283 338
c50 0 104 -15 147 -38c26 30 59 31 93 31c18 0 52 -4 73 -11zM419 417c-35 19 -70 28 -104 28c-104 0 -155 -148 -155 -245c0 -53 15 -106 71 -106c48 0 108 58 141 117l33 161c4 18 11 39 14 45zM533 590h-92l-64 101l-109 -101h-99l158 176h118z" />
    <glyph glyph-name="gcommaaccent" unicode="&#x123;" horiz-adv-x="593" 
d="M627 517l-18 -95c-13 4 -21 5 -32 5c-27 0 -41 -25 -50 -69l-69 -339c-31 -153 -107 -212 -268 -212c-59 0 -139 13 -188 36l42 93c40 -22 99 -36 149 -36c83 0 122 31 138 108l12 59c-45 -46 -100 -67 -154 -67c-111 0 -158 93 -158 197c0 170 100 338 283 338
c50 0 104 -15 147 -38c26 30 59 31 93 31c18 0 52 -4 73 -11zM419 417c-35 19 -70 28 -104 28c-104 0 -155 -148 -155 -245c0 -53 15 -106 71 -106c48 0 108 58 141 117l33 161c4 18 11 39 14 45zM277 659c0 39 21 78 53 104h74c-15 -13 -27 -34 -30 -54c38 0 52 -26 52 -48
c0 -40 -30 -69 -83 -69c-46 0 -66 28 -66 67z" />
    <glyph glyph-name="gdotaccent" unicode="&#x121;" horiz-adv-x="593" 
d="M627 517l-18 -95c-13 4 -21 5 -32 5c-27 0 -41 -25 -50 -69l-69 -339c-31 -153 -107 -212 -268 -212c-59 0 -139 13 -188 36l42 93c40 -22 99 -36 149 -36c83 0 122 31 138 108l12 59c-45 -46 -100 -67 -154 -67c-111 0 -158 93 -158 197c0 170 100 338 283 338
c50 0 104 -15 147 -38c26 30 59 31 93 31c18 0 52 -4 73 -11zM419 417c-35 19 -70 28 -104 28c-104 0 -155 -148 -155 -245c0 -53 15 -106 71 -106c48 0 108 58 141 117l33 161c4 18 11 39 14 45zM421 666c0 -47 -30 -74 -79 -74c-31 0 -62 18 -62 52c0 50 30 76 78 76
c35 0 63 -18 63 -54z" />
    <glyph glyph-name="hbar" unicode="&#x127;" horiz-adv-x="578" 
d="M540 413c0 -15 -3 -43 -8 -66l-70 -347h-125l62 306c4 22 12 66 12 75c0 32 -12 45 -47 45c-43 0 -104 -28 -154 -66l-73 -360h-125l117 582h-46l22 91h43l11 54h125l-11 -54h165l-22 -91h-162l-22 -112c48 34 102 65 166 65c84 0 142 -39 142 -122z" />
    <glyph glyph-name="hcircumflex" unicode="&#x125;" horiz-adv-x="578" 
d="M540 413c0 -15 -3 -43 -8 -66l-70 -347h-125l62 306c4 22 12 66 12 75c0 32 -12 45 -47 45c-43 0 -104 -28 -154 -66l-73 -360h-125l147 727h125l-52 -257c48 34 102 65 166 65c84 0 142 -39 142 -122zM539 780h-92l-64 101l-109 -101h-99l158 176h118z" />
    <glyph glyph-name="ibreve" unicode="&#x12d;" horiz-adv-x="313" 
d="M281 478c0 -20 -7 -57 -14 -91l-78 -387h-125l72 359c3 13 8 41 8 49c0 6 -2 11 -12 11c-8 0 -32 -13 -51 -25l-43 82c65 41 114 59 166 59c30 0 77 -12 77 -57zM415 747c-26 -54 -83 -138 -211 -138c-123 0 -149 81 -154 138h88c12 -33 27 -54 76 -54c47 0 87 18 114 54
h87z" />
    <glyph glyph-name="ij" unicode="&#x133;" horiz-adv-x="626" 
d="M317 664c0 -56 -35 -77 -88 -77c-41 0 -70 17 -70 56c0 57 35 78 88 78c41 0 70 -17 70 -57zM281 478c0 -20 -7 -57 -14 -91l-78 -387h-125l72 359c3 13 8 41 8 49c0 6 -2 11 -12 11c-8 0 -32 -13 -51 -25l-43 82c65 41 114 59 166 59c30 0 77 -12 77 -57zM630 664
c0 -56 -35 -77 -88 -77c-41 0 -70 17 -70 56c0 57 35 78 88 78c41 0 70 -17 70 -57zM594 478c0 -20 -7 -57 -14 -91l-78 -387c-25 -122 -64 -193 -210 -193c-26 0 -70 6 -92 11l27 97c24 -7 49 -10 77 -10c45 0 61 35 73 97l72 357c3 13 8 41 8 49c0 6 -2 11 -12 11
c-8 0 -32 -13 -51 -25l-43 82c65 41 114 59 166 59c30 0 77 -12 77 -57z" />
    <glyph glyph-name="imacron" unicode="&#x12b;" horiz-adv-x="313" 
d="M281 478c0 -20 -7 -57 -14 -91l-78 -387h-125l72 359c3 13 8 41 8 49c0 6 -2 11 -12 11c-8 0 -32 -13 -51 -25l-43 82c65 41 114 59 166 59c30 0 77 -12 77 -57zM393 720l-18 -85h-314l18 85h314z" />
    <glyph glyph-name="iogonek" unicode="&#x12f;" horiz-adv-x="313" 
d="M288 -156c-44 -21 -91 -37 -140 -37c-54 0 -102 23 -102 83c0 34 16 76 35 110h-17l72 359c3 13 8 41 8 49c0 6 -2 11 -12 11c-8 0 -32 -13 -51 -25l-43 82c65 41 114 59 166 59c30 0 77 -12 77 -57c0 -20 -7 -57 -14 -91l-78 -387h-20c-12 -23 -21 -49 -21 -72
c0 -27 16 -42 43 -42s51 9 75 21zM317 664c0 -56 -35 -77 -88 -77c-41 0 -70 17 -70 56c0 57 35 78 88 78c41 0 70 -17 70 -57z" />
    <glyph glyph-name="itilde" unicode="&#x129;" horiz-adv-x="313" 
d="M281 478c0 -20 -7 -57 -14 -91l-78 -387h-125l72 359c3 13 8 41 8 49c0 6 -2 11 -12 11c-8 0 -32 -13 -51 -25l-43 82c65 41 114 59 166 59c30 0 77 -12 77 -57zM428 745c-20 -78 -65 -134 -149 -134c-69 0 -90 49 -130 49c-27 0 -46 -19 -53 -49h-79
c20 79 67 134 148 134c68 0 94 -49 130 -49c25 0 43 12 55 49h78z" />
    <glyph glyph-name="jcircumflex" unicode="&#x135;" horiz-adv-x="313" 
d="M281 478c0 -20 -7 -57 -14 -91l-78 -387c-25 -122 -64 -193 -210 -193c-26 0 -70 6 -92 11l27 97c24 -7 49 -10 77 -10c45 0 61 35 73 97l72 357c3 13 8 41 8 49c0 6 -2 11 -12 11c-8 0 -32 -13 -51 -25l-43 82c65 41 114 59 166 59c30 0 77 -12 77 -57zM400 590h-92
l-64 101l-109 -101h-99l158 176h118z" />
    <glyph glyph-name="kcommaaccent" unicode="&#x137;" horiz-adv-x="528" 
d="M543 520l-231 -217l82 -175c16 -33 29 -45 44 -45c9 0 23 2 38 7l16 -92c-27 -7 -62 -13 -89 -13c-60 0 -90 33 -117 93l-64 140l-50 -47l-35 -171h-125l148 727h125l-79 -387l187 180h150zM300 -91c0 -39 -21 -78 -53 -104h-74c15 13 27 34 30 54c-38 0 -52 26 -52 48
c0 40 30 69 83 69c46 0 66 -28 66 -67z" />
    <glyph glyph-name="lacute" unicode="&#x13a;" horiz-adv-x="313" 
d="M296 760l-120 -593c-3 -15 -6 -31 -6 -45c0 -19 8 -36 32 -36c13 0 33 1 49 6l14 -92c-35 -9 -79 -15 -109 -15c-64 0 -116 20 -116 97c0 21 4 51 8 70l109 540zM454 956l-193 -176h-100l152 176h141z" />
    <glyph glyph-name="lcaron" unicode="&#x13e;" horiz-adv-x="333" 
d="M296 760l-120 -593c-3 -15 -6 -31 -6 -45c0 -19 8 -36 32 -36c13 0 33 1 49 6l14 -92c-35 -9 -79 -15 -109 -15c-64 0 -116 20 -116 97c0 21 4 51 8 70l109 540zM464 653c0 -69 -65 -161 -117 -216h-68c25 28 85 111 85 149v3c-33 0 -58 21 -58 54c0 56 29 84 88 84
c45 0 70 -27 70 -74z" />
    <glyph glyph-name="lcommaaccent" unicode="&#x13c;" horiz-adv-x="313" 
d="M296 760l-120 -593c-3 -15 -6 -31 -6 -45c0 -19 8 -36 32 -36c13 0 33 1 49 6l14 -92c-35 -9 -79 -15 -109 -15c-64 0 -116 20 -116 97c0 21 4 51 8 70l109 540zM214 -91c0 -39 -21 -78 -53 -104h-74c15 13 27 34 30 54c-38 0 -52 26 -52 48c0 40 30 69 83 69
c46 0 66 -28 66 -67z" />
    <glyph glyph-name="ldot" unicode="&#x140;" horiz-adv-x="425" 
d="M296 760l-120 -593c-3 -15 -6 -31 -6 -45c0 -19 8 -36 32 -36c13 0 33 1 49 6l14 -92c-35 -9 -79 -15 -109 -15c-64 0 -116 20 -116 97c0 21 4 51 8 70l109 540zM440 337c0 -61 -30 -86 -87 -86c-41 0 -71 17 -71 56c0 59 29 86 88 86c38 0 70 -16 70 -56z" />
    <glyph glyph-name="nacute" unicode="&#x144;" horiz-adv-x="578" 
d="M540 413c0 -15 -3 -43 -8 -66l-70 -347h-125l62 306c4 22 12 66 12 75c0 32 -12 45 -47 45c-43 0 -104 -28 -154 -66l-73 -360h-125l105 520h117l-12 -58c53 40 108 73 176 73c84 0 142 -39 142 -122zM542 766l-193 -176h-100l152 176h141z" />
    <glyph glyph-name="ncaron" unicode="&#x148;" horiz-adv-x="578" 
d="M540 413c0 -15 -3 -43 -8 -66l-70 -347h-125l62 306c4 22 12 66 12 75c0 32 -12 45 -47 45c-43 0 -104 -28 -154 -66l-73 -360h-125l105 520h117l-12 -58c53 40 108 73 176 73c84 0 142 -39 142 -122zM567 766l-158 -176h-118l-88 176h92l64 -101l109 101h99z" />
    <glyph glyph-name="ncommaaccent" unicode="&#x146;" horiz-adv-x="578" 
d="M540 413c0 -15 -3 -43 -8 -66l-70 -347h-125l62 306c4 22 12 66 12 75c0 32 -12 45 -47 45c-43 0 -104 -28 -154 -66l-73 -360h-125l105 520h117l-12 -58c53 40 108 73 176 73c84 0 142 -39 142 -122zM300 -91c0 -39 -21 -78 -53 -104h-74c15 13 27 34 30 54
c-38 0 -52 26 -52 48c0 40 30 69 83 69c46 0 66 -28 66 -67z" />
    <glyph glyph-name="obreve" unicode="&#x14f;" horiz-adv-x="579" 
d="M548 329c0 -190 -99 -344 -302 -344c-122 0 -215 70 -215 206c0 177 89 344 301 344c123 0 216 -70 216 -206zM419 328c0 66 -33 107 -100 107c-118 0 -159 -144 -159 -244c0 -65 34 -106 98 -106c120 0 161 143 161 243zM554 747c-26 -54 -83 -138 -211 -138
c-123 0 -149 81 -154 138h88c12 -33 27 -54 76 -54c47 0 87 18 114 54h87z" />
    <glyph glyph-name="ohungarumlaut" unicode="&#x151;" horiz-adv-x="579" 
d="M548 329c0 -190 -99 -344 -302 -344c-122 0 -215 70 -215 206c0 177 89 344 301 344c123 0 216 -70 216 -206zM419 328c0 66 -33 107 -100 107c-118 0 -159 -144 -159 -244c0 -65 34 -106 98 -106c120 0 161 143 161 243zM590 766l-173 -176h-100l134 176h139zM400 766
l-173 -176h-100l134 176h139z" />
    <glyph glyph-name="omacron" unicode="&#x14d;" horiz-adv-x="579" 
d="M548 329c0 -190 -99 -344 -302 -344c-122 0 -215 70 -215 206c0 177 89 344 301 344c123 0 216 -70 216 -206zM419 328c0 66 -33 107 -100 107c-118 0 -159 -144 -159 -244c0 -65 34 -106 98 -106c120 0 161 143 161 243zM537 720l-18 -85h-314l18 85h314z" />
    <glyph glyph-name="oslashacute" unicode="&#x1ff;" horiz-adv-x="579" 
d="M603 557l-91 -103c23 -33 36 -74 36 -125c0 -191 -99 -344 -302 -344c-45 0 -86 10 -120 28l-44 -50h-100l87 100c-24 32 -38 75 -38 128c0 177 89 344 301 344c47 0 90 -10 125 -31l46 53h100zM381 418c-16 11 -36 17 -62 17c-118 0 -159 -144 -159 -244
c0 -8 1 -16 2 -23zM419 328c0 6 0 12 -1 18l-216 -246c15 -10 33 -15 56 -15c120 0 161 143 161 243zM488 766l-193 -176h-100l152 176h141z" />
    <glyph glyph-name="racute" unicode="&#x155;" horiz-adv-x="402" 
d="M438 520l-38 -122c-12 4 -27 5 -43 5c-58 0 -110 -32 -152 -66l-68 -337h-125l105 520h117l-18 -85c60 54 110 93 171 93c18 0 39 -3 51 -8zM440 766l-193 -176h-100l152 176h141z" />
    <glyph glyph-name="rcaron" unicode="&#x159;" horiz-adv-x="402" 
d="M438 520l-38 -122c-12 4 -27 5 -43 5c-58 0 -110 -32 -152 -66l-68 -337h-125l105 520h117l-18 -85c60 54 110 93 171 93c18 0 39 -3 51 -8zM478 766l-158 -176h-118l-88 176h92l64 -101l109 101h99z" />
    <glyph glyph-name="rcommaaccent" unicode="&#x157;" horiz-adv-x="402" 
d="M438 520l-38 -122c-12 4 -27 5 -43 5c-58 0 -110 -32 -152 -66l-68 -337h-125l105 520h117l-18 -85c60 54 110 93 171 93c18 0 39 -3 51 -8zM215 -91c0 -39 -21 -78 -53 -104h-74c15 13 27 34 30 54c-38 0 -52 26 -52 48c0 40 30 69 83 69c46 0 66 -28 66 -67z" />
    <glyph glyph-name="sacute" unicode="&#x15b;" horiz-adv-x="481" 
d="M466 438l-94 -51c-20 39 -56 54 -108 54c-40 0 -87 -17 -87 -61c0 -32 43 -50 93 -67c72 -25 160 -60 160 -146c0 -141 -116 -182 -240 -182c-74 0 -161 23 -200 103l93 55c23 -47 67 -64 112 -64c50 0 109 11 109 66c0 26 -34 42 -78 58c-74 26 -175 59 -175 154
c0 122 102 178 222 178c76 0 157 -23 193 -97zM454 766l-193 -176h-100l152 176h141z" />
    <glyph glyph-name="scedilla" unicode="&#x15f;" horiz-adv-x="481" 
d="M286 -89c0 -83 -82 -104 -149 -104c-37 0 -88 7 -117 21l30 66c29 -11 62 -19 93 -19c22 0 48 7 48 34c0 31 -47 36 -63 36l28 42c-65 6 -133 33 -166 101l93 55c23 -47 67 -64 112 -64c50 0 109 11 109 66c0 26 -34 42 -78 58c-74 26 -175 59 -175 154
c0 122 102 178 222 178c76 0 157 -23 193 -97l-94 -51c-20 39 -56 54 -108 54c-40 0 -87 -17 -87 -61c0 -32 43 -50 93 -67c72 -25 160 -60 160 -146c0 -126 -93 -172 -202 -180l-2 -4c35 -9 60 -35 60 -72z" />
    <glyph glyph-name="scircumflex" unicode="&#x15d;" horiz-adv-x="481" 
d="M466 438l-94 -51c-20 39 -56 54 -108 54c-40 0 -87 -17 -87 -61c0 -32 43 -50 93 -67c72 -25 160 -60 160 -146c0 -141 -116 -182 -240 -182c-74 0 -161 23 -200 103l93 55c23 -47 67 -64 112 -64c50 0 109 11 109 66c0 26 -34 42 -78 58c-74 26 -175 59 -175 154
c0 122 102 178 222 178c76 0 157 -23 193 -97zM465 590h-92l-64 101l-109 -101h-99l158 176h118z" />
    <glyph glyph-name="scommaaccent" unicode="&#x219;" horiz-adv-x="481" 
d="M466 438l-94 -51c-20 39 -56 54 -108 54c-40 0 -87 -17 -87 -61c0 -32 43 -50 93 -67c72 -25 160 -60 160 -146c0 -141 -116 -182 -240 -182c-74 0 -161 23 -200 103l93 55c23 -47 67 -64 112 -64c50 0 109 11 109 66c0 26 -34 42 -78 58c-74 26 -175 59 -175 154
c0 122 102 178 222 178c76 0 157 -23 193 -97zM257 -91c0 -39 -21 -78 -53 -104h-74c15 13 27 34 30 54c-38 0 -52 26 -52 48c0 40 30 69 83 69c46 0 66 -28 66 -67z" />
    <glyph glyph-name="tbar" unicode="&#x167;" horiz-adv-x="363" 
d="M385 520l-19 -93h-121l-21 -102h126l-19 -93h-125l-10 -50c-4 -19 -10 -45 -10 -57c0 -34 15 -41 47 -41c15 0 42 5 56 10l14 -91c-34 -10 -77 -18 -115 -18c-77 0 -130 21 -130 106c0 25 5 51 10 76l13 65h-70l19 93h69l21 102h-74l19 93h74l29 144l138 62l-42 -206h121
z" />
    <glyph glyph-name="tcaron" unicode="&#x165;" horiz-adv-x="363" 
d="M385 520l-19 -93h-121l-49 -245c-4 -19 -10 -45 -10 -57c0 -34 15 -41 47 -41c15 0 42 5 56 10l14 -91c-34 -10 -77 -18 -115 -18c-77 0 -130 21 -130 106c0 25 5 51 10 76l52 260h-74l19 93h74l29 144l138 62l-42 -206h121zM452 666c0 -34 -18 -69 -47 -92h-65
c13 11 24 30 26 48c-33 0 -46 23 -46 42c0 36 27 62 74 62c41 0 58 -25 58 -60z" />
    <glyph glyph-name="ubreve" unicode="&#x16d;" horiz-adv-x="578" 
d="M561 520l-105 -520h-117l12 58c-53 -40 -108 -73 -176 -73c-84 0 -142 39 -142 122c0 15 3 43 8 66l70 347h125l-62 -306c-4 -22 -12 -66 -12 -75c0 -32 12 -45 47 -45c43 0 106 32 154 66l73 360h125zM543 747c-26 -54 -83 -138 -211 -138c-123 0 -149 81 -154 138h88
c12 -33 27 -54 76 -54c47 0 87 18 114 54h87z" />
    <glyph glyph-name="uhungarumlaut" unicode="&#x171;" horiz-adv-x="578" 
d="M561 520l-105 -520h-117l12 58c-53 -40 -108 -73 -176 -73c-84 0 -142 39 -142 122c0 15 3 43 8 66l70 347h125l-62 -306c-4 -22 -12 -66 -12 -75c0 -32 12 -45 47 -45c43 0 106 32 154 66l73 360h125zM620 766l-173 -176h-100l134 176h139zM430 766l-173 -176h-100
l134 176h139z" />
    <glyph glyph-name="umacron" unicode="&#x16b;" horiz-adv-x="578" 
d="M561 520l-105 -520h-117l12 58c-53 -40 -108 -73 -176 -73c-84 0 -142 39 -142 122c0 15 3 43 8 66l70 347h125l-62 -306c-4 -22 -12 -66 -12 -75c0 -32 12 -45 47 -45c43 0 106 32 154 66l73 360h125zM520 720l-18 -85h-314l18 85h314z" />
    <glyph glyph-name="uogonek" unicode="&#x173;" horiz-adv-x="578" 
d="M546 -156c-44 -21 -91 -37 -140 -37c-54 0 -102 23 -102 83c0 34 16 76 35 110l12 58c-53 -40 -108 -73 -176 -73c-84 0 -142 39 -142 122c0 15 3 43 8 66l70 347h125l-62 -306c-4 -22 -12 -66 -12 -75c0 -32 12 -45 47 -45c43 0 106 32 154 66l73 360h125l-105 -520h-29
c-12 -23 -21 -49 -21 -72c0 -27 16 -42 43 -42s51 9 75 21z" />
    <glyph glyph-name="uring" unicode="&#x16f;" horiz-adv-x="578" 
d="M561 520l-105 -520h-117l12 58c-53 -40 -108 -73 -176 -73c-84 0 -142 39 -142 122c0 15 3 43 8 66l70 347h125l-62 -306c-4 -22 -12 -66 -12 -75c0 -32 12 -45 47 -45c43 0 106 32 154 66l73 360h125zM462 690c0 -70 -48 -117 -123 -117c-50 0 -93 28 -93 81
c0 70 48 117 123 117c50 0 93 -27 93 -81zM405 682c0 24 -19 36 -42 36c-36 0 -60 -25 -60 -56c0 -24 19 -36 42 -36c36 0 60 25 60 56z" />
    <glyph glyph-name="utilde" unicode="&#x169;" horiz-adv-x="578" 
d="M561 520l-105 -520h-117l12 58c-53 -40 -108 -73 -176 -73c-84 0 -142 39 -142 122c0 15 3 43 8 66l70 347h125l-62 -306c-4 -22 -12 -66 -12 -75c0 -32 12 -45 47 -45c43 0 106 32 154 66l73 360h125zM559 745c-20 -78 -65 -134 -149 -134c-69 0 -90 49 -130 49
c-27 0 -46 -19 -53 -49h-79c20 79 67 134 148 134c68 0 94 -49 130 -49c25 0 43 12 55 49h78z" />
    <glyph glyph-name="wacute" unicode="&#x1e83;" horiz-adv-x="743" 
d="M779 520l-250 -520h-91l-70 259l-170 -259h-86l-43 520h115l17 -349l154 244h74l69 -242l156 347h125zM596 766l-193 -176h-100l152 176h141z" />
    <glyph glyph-name="wcircumflex" unicode="&#x175;" horiz-adv-x="743" 
d="M779 520l-250 -520h-91l-70 259l-170 -259h-86l-43 520h115l17 -349l154 244h74l69 -242l156 347h125zM628 590h-92l-64 101l-109 -101h-99l158 176h118z" />
    <glyph glyph-name="wdieresis" unicode="&#x1e85;" horiz-adv-x="743" 
d="M779 520l-250 -520h-91l-70 259l-170 -259h-86l-43 520h115l17 -349l154 244h74l69 -242l156 347h125zM621 664c0 -45 -29 -72 -76 -72c-30 0 -59 17 -59 50c0 48 29 74 75 74c34 0 60 -18 60 -52zM403 664c0 -45 -29 -72 -76 -72c-30 0 -59 17 -59 50c0 48 29 74 75 74
c34 0 60 -18 60 -52z" />
    <glyph glyph-name="wgrave" unicode="&#x1e81;" horiz-adv-x="743" 
d="M779 520l-250 -520h-91l-70 259l-170 -259h-86l-43 520h115l17 -349l154 244h74l69 -242l156 347h125zM537 590h-88l-130 176h128z" />
    <glyph glyph-name="ycircumflex" unicode="&#x177;" horiz-adv-x="543" 
d="M583 520l-332 -562c-68 -115 -133 -151 -228 -151c-32 0 -72 6 -104 16l34 96c26 -11 52 -16 81 -16c44 0 72 29 115 100l15 25l-94 492h123l58 -350l203 350h129zM502 590h-92l-64 101l-109 -101h-99l158 176h118z" />
    <glyph glyph-name="ygrave" unicode="&#x1ef3;" horiz-adv-x="543" 
d="M583 520l-332 -562c-68 -115 -133 -151 -228 -151c-32 0 -72 6 -104 16l34 96c26 -11 52 -16 81 -16c44 0 72 29 115 100l15 25l-94 492h123l58 -350l203 350h129zM408 590h-88l-130 176h128z" />
    <glyph glyph-name="zacute" unicode="&#x17a;" horiz-adv-x="502" 
d="M506 520l-15 -75l-320 -351h257l-19 -94h-418l15 77l319 350h-242l19 93h404zM494 766l-193 -176h-100l152 176h141z" />
    <glyph glyph-name="zdotaccent" unicode="&#x17c;" horiz-adv-x="502" 
d="M506 520l-15 -75l-320 -351h257l-19 -94h-418l15 77l319 350h-242l19 93h404zM389 666c0 -47 -30 -74 -79 -74c-31 0 -62 18 -62 52c0 50 30 76 78 76c35 0 63 -18 63 -54z" />
    <glyph glyph-name="kgreenlandic" unicode="&#x138;" horiz-adv-x="528" 
d="M543 520l-231 -217l82 -175c16 -33 29 -45 44 -45c9 0 23 2 38 7l16 -92c-27 -7 -62 -13 -89 -13c-60 0 -90 33 -117 93l-64 140l-50 -47l-35 -171h-125l106 520h125l-37 -180l187 180h150z" />
    <glyph glyph-name="napostrophe" unicode="&#x149;" horiz-adv-x="598" 
d="M560 413c0 -15 -3 -43 -8 -66l-70 -347h-125l62 306c4 22 12 66 12 75c0 32 -12 45 -47 45c-43 0 -104 -28 -154 -66l-73 -360h-125l105 520h117l-12 -58c53 40 108 73 176 73c84 0 142 -39 142 -122zM155 688c0 -69 -65 -161 -117 -216h-68c25 28 85 111 85 149v3
c-33 0 -58 21 -58 54c0 56 29 84 88 84c45 0 70 -27 70 -74z" />
    <glyph glyph-name="Delta" unicode="&#x2206;" horiz-adv-x="674" 
d="M663 0h-653v58c78 214 156 428 235 642h186l232 -642v-58zM497 112l-146 416c-9 27 -14 52 -17 63h-4c-3 -11 -7 -35 -16 -61l-148 -418h331z" />
    <glyph glyph-name="uni03A9" unicode="&#x3a9;" horiz-adv-x="763" 
d="M714 0h-274v112c58 51 127 130 127 263c0 123 -65 216 -182 216c-110 0 -189 -86 -189 -220c0 -132 71 -210 127 -259v-112h-275v112h161c-73 48 -162 134 -162 290c0 179 136 310 338 310c221 0 331 -137 331 -307c0 -141 -77 -236 -166 -293h164v-112z" />
    <glyph glyph-name="uni03BC" unicode="&#x3bc;" horiz-adv-x="581" 
d="M566 520l-105 -520h-114l12 60c-40 -40 -92 -75 -151 -75c-24 0 -52 8 -68 31l-42 -209h-125l144 713h125l-73 -363c-1 -5 -2 -10 -2 -16c0 -36 32 -45 62 -45c50 0 101 30 139 60l73 364h125z" />
    <glyph glyph-name="pi" unicode="&#x3c0;" horiz-adv-x="738" 
d="M672 100l23 -87c-23 -14 -55 -22 -100 -22c-110 0 -150 73 -150 161v248h-127v-249c0 -71 -7 -115 -20 -151h-141c14 42 22 100 22 162v238c-29 0 -74 -11 -99 -25l-38 87c31 19 92 38 169 38h478v-100h-105v-229c0 -48 13 -81 52 -81c15 0 26 5 36 10z" />
    <glyph glyph-name="Euro" unicode="&#x20ac;" horiz-adv-x="626" 
d="M673 600l-99 -56c-23 56 -73 89 -138 89c-107 0 -162 -65 -193 -160h260l-29 -76h-249c-5 -23 -9 -45 -12 -67h220l-30 -76h-195c-1 -8 -1 -15 -1 -23c0 -88 51 -137 132 -137c64 0 118 32 166 72l60 -98c-81 -57 -146 -83 -247 -83c-161 0 -244 107 -244 255v14h-69
l30 76h45c4 22 7 45 12 67h-58l30 76h45c55 174 154 269 338 269c99 0 187 -44 226 -142z" />
    <glyph glyph-name="litre" unicode="&#x2113;" horiz-adv-x="532" 
d="M465 48c-33 -29 -89 -64 -155 -64c-48 0 -81 14 -107 40c-30 31 -43 86 -43 133v62l-56 -54l-37 62l93 89v198c0 133 58 214 161 214c88 0 121 -68 121 -125c0 -97 -51 -175 -123 -254c-11 -12 -27 -31 -35 -39v-135c0 -71 26 -96 63 -96c33 0 62 24 80 41
c12 -24 25 -48 38 -72zM364 586c0 27 -11 47 -34 47c-30 0 -46 -34 -46 -93v-129c5 6 14 16 19 23c38 49 61 108 61 152z" />
    <glyph glyph-name="Omega" unicode="&#x2126;" horiz-adv-x="763" 
d="M714 0h-274v112c58 51 127 130 127 263c0 123 -65 216 -182 216c-110 0 -189 -86 -189 -220c0 -132 71 -210 127 -259v-112h-275v112h161c-73 48 -162 134 -162 290c0 179 136 310 338 310c221 0 331 -137 331 -307c0 -141 -77 -236 -166 -293h164v-112z" />
    <glyph glyph-name="estimated" unicode="&#x212e;" horiz-adv-x="692" 
d="M645 304h-468v-210c45 -44 100 -68 166 -68c110 0 175 57 226 139l36 -23c-61 -92 -132 -154 -262 -154c-181 0 -296 143 -296 317c0 175 112 316 298 316c188 0 297 -142 300 -317zM512 343v172c-43 41 -104 69 -168 69c-65 0 -123 -23 -167 -68v-173h335z" />
    <glyph glyph-name="partialdiff" unicode="&#x2202;" horiz-adv-x="628" 
d="M583 459c0 -64 -8 -127 -25 -187c-44 -160 -148 -284 -299 -284c-128 0 -215 87 -215 206c0 201 140 298 263 298c66 0 116 -30 137 -65h2c2 16 3 31 3 51c0 92 -47 152 -133 152c-36 0 -75 -12 -104 -30l-29 90c32 22 91 41 156 41c155 0 244 -106 244 -272zM429 328
c-13 40 -43 70 -94 70c-82 0 -153 -92 -153 -209c0 -58 31 -97 82 -97c83 0 143 111 165 236z" />
    <glyph glyph-name="product" unicode="&#x220f;" horiz-adv-x="786" 
d="M707 -230h-140v810h-348v-810h-140v930h628v-930z" />
    <glyph glyph-name="summation" unicode="&#x2211;" horiz-adv-x="687" 
d="M652 -230h-617v74l314 396c-99 126 -197 253 -296 380v80h578v-112h-398l267 -345c-94 -121 -189 -241 -283 -361h435v-112z" />
    <glyph glyph-name="uni2219" unicode="&#x2219;" horiz-adv-x="266" 
d="M207 307c0 -61 -30 -86 -87 -86c-41 0 -71 17 -71 56c0 59 29 86 88 86c38 0 70 -16 70 -56z" />
    <glyph glyph-name="radical" unicode="&#x221a;" horiz-adv-x="584" 
d="M565 729c-70 -247 -140 -494 -211 -741h-101l-136 308l-59 -37l-39 66l154 99c43 -100 86 -200 130 -300l171 605h91z" />
    <glyph glyph-name="infinity" unicode="&#x221e;" horiz-adv-x="862" 
d="M814 294c0 -108 -76 -187 -187 -187c-78 0 -149 43 -194 110h-2c-44 -61 -113 -110 -194 -110c-107 0 -190 70 -190 184s85 184 188 184c84 0 150 -47 195 -110h2c35 50 101 110 193 110c111 0 189 -75 189 -181zM711 292c0 48 -30 91 -94 91c-56 0 -98 -36 -134 -91
c34 -56 80 -93 135 -93c63 0 93 45 93 93zM379 292c-35 52 -83 91 -136 91c-58 0 -92 -41 -92 -92c0 -52 38 -92 94 -92c54 0 101 41 134 93z" />
    <glyph glyph-name="integral" unicode="&#x222b;" horiz-adv-x="529" 
d="M454 636c-10 4 -29 10 -49 10c-45 0 -72 -29 -72 -87v-590c0 -127 -64 -206 -190 -206c-32 0 -76 7 -96 16l26 98c12 -5 29 -10 48 -10c46 0 73 30 73 87v589c0 127 61 207 189 207c39 0 81 -9 99 -18c-10 -32 -19 -64 -28 -96z" />
    <glyph glyph-name="approxequal" unicode="&#x2248;" horiz-adv-x="682" 
d="M624 147c-46 -35 -108 -70 -167 -70c-90 0 -162 70 -248 70c-43 0 -100 -31 -152 -65v104c42 31 103 70 171 70c85 0 160 -70 244 -70c46 0 109 36 152 65v-104zM624 377c-46 -35 -108 -70 -167 -70c-90 0 -162 70 -248 70c-43 0 -100 -31 -152 -65v104
c42 31 103 70 171 70c85 0 160 -70 244 -70c46 0 109 36 152 65v-104z" />
    <glyph glyph-name="notequal" unicode="&#x2260;" horiz-adv-x="682" 
d="M624 119h-315l-55 -109h-117l55 109h-135v106h189l66 124h-255v106h309l63 127h117l-63 -127h141v-106h-196l-65 -124h261v-106z" />
    <glyph glyph-name="lessequal" unicode="&#x2264;" horiz-adv-x="682" 
d="M625 0h-567v106h567v-106zM625 162l-567 189v101l567 213v-109l-425 -155l425 -130v-109z" />
    <glyph glyph-name="greaterequal" unicode="&#x2265;" horiz-adv-x="682" 
d="M626 351l-567 -189v109l425 130l-425 155v109l567 -213v-101zM626 0h-567v106h567v-106z" />
    <glyph glyph-name="lozenge" unicode="&#x25ca;" horiz-adv-x="617" 
d="M340 700l222 -350l-222 -350h-64l-222 349l222 351h64zM308 109l152 241l-152 241l-152 -241c50 -81 101 -161 152 -241z" />
    <glyph glyph-name="uni00A0" unicode="&#xa0;" horiz-adv-x="220" 
 />
    <glyph glyph-name="uni00AD" unicode="&#xad;" horiz-adv-x="380" 
d="M356 315l-22 -110h-310l22 110h310z" />
    <glyph glyph-name="uni02C9" unicode="&#x2c9;" horiz-adv-x="500" 
d="M496 720l-18 -85h-314l18 85h314z" />
    <glyph glyph-name="h.superior" unicode="&#xf700;" horiz-adv-x="447" 
d="M418 595c0 -11 -3 -32 -6 -48l-51 -254h-109l47 227c3 15 8 46 8 52c0 18 -7 26 -28 26c-33 0 -75 -17 -107 -38l-55 -267h-108l107 533h109l-35 -175c33 21 81 38 124 38c64 0 103 -30 104 -94z" />
    <glyph glyph-name="zero.fitted" unicode="&#xe097;" horiz-adv-x="622" 
d="M275 -15c-141 0 -230 76 -230 217c0 148 61 363 153 466c40 45 101 74 186 74c145 0 230 -80 230 -217c0 -147 -63 -370 -153 -467c-44 -48 -106 -73 -186 -73zM380 635c-39 0 -68 -18 -88 -41c-59 -71 -114 -262 -114 -382c0 -69 26 -120 101 -120c36 0 67 15 89 41
c61 72 113 268 113 383c0 68 -27 119 -101 119z" />
    <glyph glyph-name="one.fitted" unicode="&#xf6dc;" horiz-adv-x="478" 
d="M404 103l-21 -103h-373l21 103h133l93 459c-47 -24 -111 -43 -157 -50l21 102c85 25 155 65 212 128h87l-130 -639h114z" />
    <glyph glyph-name="two.fitted" unicode="&#xe098;" horiz-adv-x="584" 
d="M573 557c0 -124 -82 -221 -221 -337c-48 -40 -90 -73 -141 -111h284l-22 -109h-496l19 94c72 46 179 125 277 206c97 80 168 175 168 251c0 49 -34 83 -94 83c-74 0 -133 -40 -183 -90l-76 85c61 57 137 113 274 113c134 0 211 -70 211 -185z" />
    <glyph glyph-name="three.fitted" unicode="&#xe099;" horiz-adv-x="556" 
d="M573 727l-20 -97l-196 -192c90 -20 142 -94 142 -186c0 -176 -131 -267 -301 -267c-83 0 -174 25 -223 99l92 72c29 -43 77 -64 132 -64c98 0 168 58 168 156c0 74 -50 107 -126 107c-26 0 -52 -3 -78 -9l15 71l211 202h-286l22 108h448z" />
    <glyph glyph-name="four.fitted" unicode="&#xe09a;" horiz-adv-x="625" 
d="M589 742l-97 -476h86l-21 -105h-86l-36 -175h-126l36 175h-339l23 115l443 466h117zM421 538l-258 -272h203z" />
    <glyph glyph-name="five.fitted" unicode="&#xe09b;" horiz-adv-x="575" 
d="M580 727l-22 -108h-287l-51 -173c32 12 67 17 98 17c116 0 209 -72 209 -199c0 -176 -122 -279 -306 -279c-85 0 -177 18 -233 99l92 72c35 -52 87 -64 145 -64c110 0 170 73 170 162c0 60 -39 106 -134 106c-43 0 -91 -6 -130 -32h-64l117 399h396z" />
    <glyph glyph-name="six.fitted" unicode="&#xe09c;" horiz-adv-x="610" 
d="M619 676l-77 -87c-37 36 -71 48 -122 48c-108 0 -173 -117 -212 -221c51 36 106 57 170 57c109 0 197 -77 197 -203c0 -170 -109 -285 -289 -285c-165 0 -239 113 -239 256c0 229 146 501 383 501c73 0 135 -15 189 -66zM443 259c0 77 -51 106 -112 106
c-43 0 -102 -20 -142 -40c-9 -35 -14 -70 -14 -103c0 -72 34 -130 118 -130c93 0 150 72 150 167z" />
    <glyph glyph-name="seven.fitted" unicode="&#xe09d;" horiz-adv-x="541" 
d="M603 727l-20 -97l-394 -645h-146l399 633h-231l-20 -99h-115l42 208h485z" />
    <glyph glyph-name="eight.fitted" unicode="&#xe09e;" horiz-adv-x="610" 
d="M609 585c0 -107 -75 -164 -172 -203c71 -41 116 -97 116 -173c0 -156 -140 -224 -296 -224c-116 0 -239 48 -239 176c0 129 83 185 195 229c-64 33 -102 83 -102 149c0 144 134 203 273 203c108 0 225 -40 225 -157zM478 573c0 53 -54 70 -101 70
c-69 0 -135 -28 -135 -98c0 -47 52 -82 88 -101c57 22 148 56 148 129zM421 206c0 54 -55 99 -101 122c-79 -31 -170 -77 -170 -158c0 -60 54 -86 115 -86c79 0 156 34 156 122z" />
    <glyph glyph-name="nine.fitted" unicode="&#xe09f;" horiz-adv-x="610" 
d="M596 488c0 -229 -124 -503 -388 -503c-73 0 -142 15 -204 66l70 91c37 -36 88 -52 139 -52c128 0 186 118 222 226c-54 -34 -106 -57 -170 -57c-109 0 -197 77 -197 200c0 168 112 282 282 282c163 0 246 -113 246 -253zM470 507c0 69 -44 127 -120 127
c-91 0 -150 -69 -150 -164c0 -73 51 -103 112 -103c43 0 103 23 142 40c11 37 16 67 16 100z" />
    <glyph glyph-name="zero.taboldstyle" unicode="&#xe100;" horiz-adv-x="622" 
d="M587 381c0 -210 -102 -396 -324 -396c-136 0 -229 78 -229 218c0 210 102 396 323 396c136 0 230 -77 230 -218zM455 379c0 73 -40 113 -109 113c-132 0 -180 -171 -180 -287c0 -72 40 -113 108 -113c133 0 181 170 181 287z" />
    <glyph glyph-name="one.taboldstyle" unicode="&#xe101;" horiz-adv-x="622" 
d="M509 103l-21 -103h-373l21 103h133l62 308c-47 -24 -111 -43 -157 -50l21 102c85 25 155 65 212 128h87l-99 -488h114z" />
    <glyph glyph-name="two.taboldstyle" unicode="&#xe102;" horiz-adv-x="622" 
d="M597 443c0 -90 -49 -148 -126 -203c-66 -47 -132 -88 -200 -131h284l-22 -109h-496l19 94c75 45 146 96 219 143c97 63 190 125 190 191c0 49 -53 63 -94 63c-66 0 -115 -24 -165 -74l-76 85c58 58 138 97 261 97c107 0 206 -46 206 -156z" />
    <glyph glyph-name="three.taboldstyle" unicode="&#xe103;" horiz-adv-x="622" 
d="M605 584l-20 -97l-196 -196c90 -20 142 -94 142 -186c0 -180 -131 -271 -301 -271c-83 0 -174 25 -223 99l92 72c29 -43 77 -64 132 -64c98 0 168 57 168 160c0 74 -50 107 -126 107c-26 0 -52 -3 -78 -9l15 71l211 206h-286l22 108h448z" />
    <glyph glyph-name="four.taboldstyle" unicode="&#xe104;" horiz-adv-x="622" 
d="M598 591l-97 -476h86l-21 -105h-86l-36 -176h-126l36 176h-339l23 115l443 466h117zM430 387l-258 -272h203z" />
    <glyph glyph-name="five.taboldstyle" unicode="&#xe105;" horiz-adv-x="622" 
d="M599 584l-22 -108h-287l-51 -177c32 12 67 17 98 17c116 0 209 -72 209 -199c0 -182 -122 -283 -306 -283c-85 0 -177 18 -233 99l92 72c35 -52 87 -64 145 -64c110 0 170 72 170 166c0 60 -39 106 -134 106c-43 0 -91 -6 -130 -32h-64l117 403h396z" />
    <glyph glyph-name="six.taboldstyle" unicode="&#xe106;" horiz-adv-x="622" 
d="M610 676l-77 -87c-37 36 -71 48 -122 48c-108 0 -173 -117 -212 -221c51 36 106 57 170 57c109 0 197 -77 197 -203c0 -170 -109 -285 -289 -285c-165 0 -239 113 -239 256c0 229 146 501 383 501c73 0 135 -15 189 -66zM434 259c0 77 -51 106 -112 106
c-43 0 -102 -20 -142 -40c-9 -35 -14 -70 -14 -103c0 -72 34 -130 118 -130c93 0 150 72 150 167z" />
    <glyph glyph-name="seven.taboldstyle" unicode="&#xe107;" horiz-adv-x="622" 
d="M610 584l-20 -97l-399 -653h-146l404 641h-231l-20 -99h-115l42 208h485z" />
    <glyph glyph-name="eight.taboldstyle" unicode="&#xe108;" horiz-adv-x="622" 
d="M606 585c0 -107 -75 -164 -172 -203c71 -41 116 -97 116 -173c0 -156 -140 -224 -296 -224c-116 0 -239 48 -239 176c0 129 83 185 195 229c-64 33 -102 83 -102 149c0 144 134 203 273 203c108 0 225 -40 225 -157zM475 573c0 53 -54 70 -101 70
c-69 0 -135 -28 -135 -98c0 -47 52 -82 88 -101c57 22 148 56 148 129zM418 206c0 54 -55 99 -101 122c-79 -31 -170 -77 -170 -158c0 -60 54 -86 115 -86c79 0 156 34 156 122z" />
    <glyph glyph-name="nine.taboldstyle" unicode="&#xe109;" horiz-adv-x="622" 
d="M607 343c0 -229 -124 -509 -388 -509c-73 0 -142 15 -204 66l70 91c37 -36 88 -52 139 -52c128 0 186 121 222 229c-54 -34 -106 -57 -170 -57c-109 0 -197 77 -197 203c0 170 112 285 282 285c163 0 246 -113 246 -256zM481 362c0 75 -44 130 -120 130
c-91 0 -150 -72 -150 -167c0 -77 51 -106 112 -106c43 0 103 23 142 40c11 37 16 70 16 103z" />
    <glyph glyph-name="zero.denominator" unicode="&#xe10a;" 
d="M462 132c0 -144 -69 -294 -245 -294c-113 0 -180 61 -180 164c0 144 70 294 245 294c116 0 180 -64 180 -164zM342 129c0 46 -24 72 -70 72c-70 0 -115 -93 -115 -196c0 -46 24 -72 70 -72c70 0 115 93 115 196z" />
    <glyph glyph-name="one.denominator" unicode="&#xe10b;" 
d="M361 -64l-18 -89h-295l18 89h98l43 211c-37 -15 -76 -27 -116 -33l18 88c64 17 117 44 162 94h78l-73 -360h85z" />
    <glyph glyph-name="two.denominator" unicode="&#xe10c;" 
d="M451 183c0 -63 -39 -110 -83 -144c-48 -37 -100 -68 -152 -99h208l-19 -93h-389l17 80c57 35 112 69 168 105c106 68 131 94 131 130c0 20 -19 41 -62 41c-44 0 -85 -23 -121 -55l-60 71c55 50 120 77 202 77c98 0 160 -40 160 -113z" />
    <glyph glyph-name="three.denominator" unicode="&#xe10d;" 
d="M448 290l-14 -75l-115 -105c53 -9 90 -49 90 -105c0 -116 -89 -167 -202 -167c-65 0 -131 19 -170 79l79 56c17 -28 49 -47 82 -47c53 0 91 27 91 78c0 36 -30 51 -66 51c-18 0 -36 -2 -53 -6l9 43l123 109h-178l18 89h306z" />
    <glyph glyph-name="four.denominator" unicode="&#xe10e;" 
d="M428 15l-17 -85h-58l-19 -92h-109l18 92h-219l17 88l274 278h111l-56 -281h58zM292 158l-146 -147h116z" />
    <glyph glyph-name="five.denominator" unicode="&#xe10f;" 
d="M422 25c0 -120 -109 -187 -227 -187c-78 0 -137 35 -168 84l86 56c20 -28 50 -48 97 -48c46 0 89 24 89 72c0 32 -31 48 -71 48c-28 0 -58 -8 -84 -20h-64l83 257h290l-18 -90h-199l-19 -62c16 3 49 5 63 5c74 0 142 -35 142 -115z" />
    <glyph glyph-name="six.denominator" unicode="&#xe110;" 
d="M406 25c0 -120 -104 -187 -219 -187c-111 0 -161 67 -161 155c0 155 96 303 268 303c59 0 103 -15 143 -47l-69 -75c-28 22 -60 32 -93 32c-48 0 -99 -26 -110 -86c33 16 72 21 102 21c72 0 139 -32 139 -116zM205 -66c41 0 78 27 78 76c0 31 -23 44 -56 44
c-25 0 -56 -9 -75 -19c-4 -11 -6 -23 -6 -37c0 -40 22 -64 59 -64z" />
    <glyph glyph-name="seven.denominator" unicode="&#xe111;" 
d="M427 211l-246 -373h-128l241 357h-133l-12 -60h-89l30 152h352z" />
    <glyph glyph-name="eight.denominator" unicode="&#xe112;" 
d="M402 -15c0 -103 -99 -147 -211 -147c-108 0 -170 39 -170 109c0 71 51 109 107 136c-23 16 -53 45 -53 85c0 90 103 128 201 128c94 0 155 -31 155 -97c0 -62 -42 -95 -86 -119c32 -21 57 -48 57 -95zM241 112c27 9 68 26 68 64c0 19 -13 36 -50 36
c-30 0 -67 -13 -67 -51c0 -18 13 -35 49 -49zM203 -78c33 0 80 17 80 60c0 23 -23 49 -60 63c-46 -18 -80 -37 -80 -82c0 -22 16 -41 60 -41z" />
    <glyph glyph-name="nine.denominator" unicode="&#xe113;" 
d="M52 121c0 107 103 175 219 175c106 0 161 -67 161 -163c0 -155 -96 -295 -268 -295c-59 0 -103 15 -143 47l68 75c28 -22 60 -32 93 -32c48 0 97 28 108 88c-33 -16 -69 -21 -99 -21c-72 0 -139 30 -139 126zM252 200c-41 0 -78 -24 -78 -76c0 -33 24 -42 57 -42
c25 0 57 8 76 18c4 11 5 23 5 37c0 40 -23 63 -60 63z" />
    <glyph glyph-name="zero.numerator" unicode="&#xe11e;" 
d="M502 578c0 -144 -69 -294 -245 -294c-113 0 -180 61 -180 164c0 144 70 294 245 294c116 0 180 -64 180 -164zM382 575c0 46 -24 72 -70 72c-70 0 -115 -93 -115 -196c0 -46 24 -72 70 -72c70 0 115 93 115 196z" />
    <glyph glyph-name="one.numerator" unicode="&#xe11f;" 
d="M406 382l-18 -89h-295l18 89h98l43 211c-37 -15 -76 -27 -116 -33l18 88c64 17 117 44 162 94h78l-73 -360h85z" />
    <glyph glyph-name="two.numerator" unicode="&#xe120;" 
d="M471 629c0 -63 -39 -110 -83 -144c-48 -37 -100 -68 -152 -99h208l-19 -93h-389l17 80c57 35 112 69 168 105c106 68 131 94 131 130c0 20 -19 41 -62 41c-44 0 -85 -23 -121 -55l-60 71c55 50 120 77 202 77c98 0 160 -40 160 -113z" />
    <glyph glyph-name="three.numerator" unicode="&#xe121;" 
d="M478 733l-14 -75l-115 -105c53 -9 90 -49 90 -105c0 -116 -89 -167 -202 -167c-65 0 -131 19 -170 79l79 56c17 -28 49 -47 82 -47c53 0 91 27 91 78c0 36 -30 51 -66 51c-18 0 -36 -2 -53 -6l9 43l123 109h-178l18 89h306z" />
    <glyph glyph-name="four.numerator" unicode="&#xe122;" 
d="M458 458l-17 -85h-58l-19 -92h-109l18 92h-219l17 88l274 278h111l-56 -281h58zM322 601l-146 -147h116z" />
    <glyph glyph-name="five.numerator" unicode="&#xe123;" 
d="M457 471c0 -120 -109 -187 -227 -187c-78 0 -137 35 -168 84l86 56c20 -28 50 -48 97 -48c46 0 89 24 89 72c0 32 -31 48 -71 48c-28 0 -58 -8 -84 -20h-64l83 257h290l-18 -90h-199l-19 -62c16 3 49 5 63 5c74 0 142 -35 142 -115z" />
    <glyph glyph-name="six.numerator" unicode="&#xe124;" 
d="M441 471c0 -120 -104 -187 -219 -187c-111 0 -161 67 -161 155c0 155 96 303 268 303c59 0 103 -15 143 -47l-69 -75c-28 22 -60 32 -93 32c-48 0 -99 -26 -110 -86c33 16 72 21 102 21c72 0 139 -32 139 -116zM240 380c41 0 78 27 78 76c0 31 -23 44 -56 44
c-25 0 -56 -9 -75 -19c-4 -11 -6 -23 -6 -37c0 -40 22 -64 59 -64z" />
    <glyph glyph-name="seven.numerator" unicode="&#xe125;" 
d="M462 657l-246 -373h-128l241 357h-133l-12 -60h-89l30 152h352z" />
    <glyph glyph-name="eight.numerator" unicode="&#xe126;" 
d="M437 431c0 -103 -99 -147 -211 -147c-108 0 -170 39 -170 109c0 71 51 109 107 136c-23 16 -53 45 -53 85c0 90 103 128 201 128c94 0 155 -31 155 -97c0 -62 -42 -95 -86 -119c32 -21 57 -48 57 -95zM276 558c27 9 68 26 68 64c0 19 -13 36 -50 36
c-30 0 -67 -13 -67 -51c0 -18 13 -35 49 -49zM238 368c33 0 80 17 80 60c0 23 -23 49 -60 63c-46 -18 -80 -37 -80 -82c0 -22 16 -41 60 -41z" />
    <glyph glyph-name="nine.numerator" unicode="&#xe127;" 
d="M87 567c0 107 103 175 219 175c106 0 161 -67 161 -163c0 -155 -96 -295 -268 -295c-59 0 -103 15 -143 47l68 75c28 -22 60 -32 93 -32c48 0 97 28 108 88c-33 -16 -69 -21 -99 -21c-72 0 -139 30 -139 126zM287 646c-41 0 -78 -24 -78 -76c0 -33 24 -42 57 -42
c25 0 57 8 76 18c4 11 5 23 5 37c0 40 -23 63 -60 63z" />
    <glyph glyph-name="I.alt" horiz-adv-x="281" 
d="M304 727l-148 -727h-137l148 727h137z" />
    <glyph glyph-name="J.alt" horiz-adv-x="365" 
d="M393 727l-142 -701c-33 -162 -107 -219 -256 -219c-55 0 -117 12 -149 25l45 111c44 -18 77 -24 112 -24c74 0 96 33 119 147l134 661h137z" />
    <glyph glyph-name="g.alt" horiz-adv-x="578" 
d="M561 527l-103 -508c-31 -153 -107 -212 -268 -212c-59 0 -139 13 -188 36l42 93c40 -22 99 -36 149 -36c83 0 122 31 138 108l12 59c-45 -46 -100 -67 -154 -67c-111 0 -158 93 -158 197c0 170 101 338 279 338c50 0 95 -13 123 -24l84 16h44zM415 421
c-33 14 -66 24 -100 24c-104 0 -155 -148 -155 -245c0 -53 15 -106 71 -106c48 0 108 58 141 117z" />
    <glyph glyph-name="i.alt" horiz-adv-x="259" 
d="M279 664c0 -56 -35 -77 -88 -77c-41 0 -70 17 -70 56c0 57 35 78 88 78c41 0 70 -17 70 -57zM117 520h125l-105 -520h-125z" />
    <glyph glyph-name="j.alt" horiz-adv-x="276" 
d="M292 664c0 -56 -35 -77 -88 -77c-41 0 -70 17 -70 56c0 57 35 78 88 78c41 0 70 -17 70 -57zM132 520h125l-105 -520c-25 -122 -64 -193 -210 -193c-26 0 -70 6 -92 11l27 97c24 -7 49 -10 77 -10c45 0 60 35 73 97z" />
    <glyph glyph-name="l.alt" horiz-adv-x="262" 
d="M296 760l-154 -760h-125l140 692z" />
    <glyph glyph-name="Iacute.alt" horiz-adv-x="281" 
d="M434 956l-193 -176h-100l152 176h141zM304 727l-148 -727h-137l148 727h137z" />
    <glyph glyph-name="Icircumflex.alt" horiz-adv-x="281" 
d="M304 727l-148 -727h-137l148 727h137zM428 780h-92l-64 101l-109 -101h-99l158 176h118z" />
    <glyph glyph-name="Idieresis.alt" horiz-adv-x="281" 
d="M422 852c0 -45 -29 -72 -76 -72c-30 0 -59 17 -59 50c0 48 29 74 75 74c34 0 60 -18 60 -52zM204 852c0 -45 -29 -72 -76 -72c-30 0 -59 17 -59 50c0 48 29 74 75 74c34 0 60 -18 60 -52zM304 727l-148 -727h-137l148 727h137z" />
    <glyph glyph-name="Igrave.alt" horiz-adv-x="281" 
d="M304 727l-148 -727h-137l148 727h137zM304 780h-88l-130 176h128z" />
    <glyph glyph-name="dotlessi.alt" horiz-adv-x="259" 
d="M117 520h125l-105 -520h-125z" />
    <glyph glyph-name="iacute.alt" horiz-adv-x="259" 
d="M117 520h125l-105 -520h-125zM417 766l-193 -176h-100l152 176h141z" />
    <glyph glyph-name="icircumflex.alt" horiz-adv-x="259" 
d="M117 520h125l-105 -520h-125zM369 590h-92l-64 101l-109 -101h-99l158 176h118z" />
    <glyph glyph-name="idieresis.alt" horiz-adv-x="259" 
d="M117 520h125l-105 -520h-125zM377 664c0 -45 -29 -72 -76 -72c-30 0 -59 17 -59 50c0 48 29 74 75 74c34 0 60 -18 60 -52zM159 664c0 -45 -29 -72 -76 -72c-30 0 -59 17 -59 50c0 48 29 74 75 74c34 0 60 -18 60 -52z" />
    <glyph glyph-name="igrave.alt" horiz-adv-x="259" 
d="M117 520h125l-105 -520h-125zM241 590h-88l-130 176h128z" />
    <glyph glyph-name="lslash.alt" horiz-adv-x="262" 
d="M296 760l-56 -277l85 59l-21 -106l-86 -60l-76 -376h-125l56 276l-84 -58l22 106l83 58l63 310z" />
    <glyph glyph-name="f_l.alt" horiz-adv-x="580" 
d="M614 760l-154 -760h-125l126 621c-29 12 -69 21 -100 21c-47 0 -71 -20 -84 -84l-8 -38h107l-19 -93h-106l-92 -451c-21 -102 -62 -169 -205 -169c-29 0 -66 5 -96 15l35 97c17 -7 44 -12 60 -12c51 0 71 20 84 84l88 436h-74l19 93h74l11 53c21 102 62 169 205 169
c51 0 108 -15 153 -32z" />
    <glyph glyph-name="zero.tab" horiz-adv-x="622" 
d="M275 -15c-141 0 -230 76 -230 217c0 148 61 363 153 466c40 45 101 74 186 74c145 0 230 -80 230 -217c0 -147 -63 -370 -153 -467c-44 -48 -106 -73 -186 -73zM380 635c-39 0 -68 -18 -88 -41c-59 -71 -114 -262 -114 -382c0 -69 26 -120 101 -120c36 0 67 15 89 41
c61 72 113 268 113 383c0 68 -27 119 -101 119z" />
    <glyph glyph-name="one.tab" horiz-adv-x="622" 
d="M484 103l-21 -103h-373l21 103h133l93 459c-47 -24 -111 -43 -157 -50l21 102c85 25 155 65 212 128h87l-130 -639h114z" />
    <glyph glyph-name="two.tab" horiz-adv-x="622" 
d="M613 557c0 -124 -82 -221 -221 -337c-48 -40 -90 -73 -141 -111h284l-22 -109h-496l19 94c72 46 179 125 277 206c97 80 168 175 168 251c0 49 -34 83 -94 83c-74 0 -133 -40 -183 -90l-76 85c61 57 137 113 274 113c134 0 211 -70 211 -185z" />
    <glyph glyph-name="three.tab" horiz-adv-x="622" 
d="M608 727l-20 -97l-196 -192c90 -20 142 -94 142 -186c0 -176 -131 -267 -301 -267c-83 0 -174 25 -223 99l92 72c29 -43 77 -64 132 -64c98 0 168 58 168 156c0 74 -50 107 -126 107c-26 0 -52 -3 -78 -9l15 71l211 202h-286l22 108h448z" />
    <glyph glyph-name="four.tab" horiz-adv-x="622" 
d="M604 742l-97 -476h86l-21 -105h-86l-36 -175h-126l36 175h-339l23 115l443 466h117zM436 538l-258 -272h203z" />
    <glyph glyph-name="five.tab" horiz-adv-x="622" 
d="M600 727l-22 -108h-287l-51 -173c32 12 67 17 98 17c116 0 209 -72 209 -199c0 -176 -122 -279 -306 -279c-85 0 -177 18 -233 99l92 72c35 -52 87 -64 145 -64c110 0 170 73 170 162c0 60 -39 106 -134 106c-43 0 -91 -6 -130 -32h-64l117 399h396z" />
    <glyph glyph-name="seven.tab" horiz-adv-x="622" 
d="M618 727l-20 -97l-394 -645h-146l399 633h-231l-20 -99h-115l42 208h485z" />
    <glyph glyph-name="six.tab" horiz-adv-x="622" 
d="M619 676l-77 -87c-37 36 -71 48 -122 48c-108 0 -173 -117 -212 -221c51 36 106 57 170 57c109 0 197 -77 197 -203c0 -170 -109 -285 -289 -285c-165 0 -239 113 -239 256c0 229 146 501 383 501c73 0 135 -15 189 -66zM443 259c0 77 -51 106 -112 106
c-43 0 -102 -20 -142 -40c-9 -35 -14 -70 -14 -103c0 -72 34 -130 118 -130c93 0 150 72 150 167z" />
    <glyph glyph-name="eight.tab" horiz-adv-x="622" 
d="M609 585c0 -107 -75 -164 -172 -203c71 -41 116 -97 116 -173c0 -156 -140 -224 -296 -224c-116 0 -239 48 -239 176c0 129 83 185 195 229c-64 33 -102 83 -102 149c0 144 134 203 273 203c108 0 225 -40 225 -157zM478 573c0 53 -54 70 -101 70
c-69 0 -135 -28 -135 -98c0 -47 52 -82 88 -101c57 22 148 56 148 129zM421 206c0 54 -55 99 -101 122c-79 -31 -170 -77 -170 -158c0 -60 54 -86 115 -86c79 0 156 34 156 122z" />
    <glyph glyph-name="nine.tab" horiz-adv-x="622" 
d="M596 488c0 -229 -124 -503 -388 -503c-73 0 -142 15 -204 66l70 91c37 -36 88 -52 139 -52c128 0 186 118 222 226c-54 -34 -106 -57 -170 -57c-109 0 -197 77 -197 200c0 168 112 282 282 282c163 0 246 -113 246 -253zM470 507c0 69 -44 127 -120 127
c-91 0 -150 -69 -150 -164c0 -73 51 -103 112 -103c43 0 103 23 142 40c11 37 16 67 16 100z" />
    <glyph glyph-name="uni2215" unicode="&#x2215;" horiz-adv-x="140" 
d="M409 727l-569 -878h-109l569 878h109z" />
    <glyph glyph-name="IJ.alt" horiz-adv-x="704" 
d="M304 727l-148 -727h-137l148 727h137zM732 727l-142 -701c-33 -162 -107 -219 -256 -219c-55 0 -117 12 -149 25l45 111c44 -18 77 -24 112 -24c74 0 96 33 119 147l134 661h137z" />
    <glyph glyph-name="Ibreve.alt" horiz-adv-x="281" 
d="M304 727l-148 -727h-137l148 727h137zM441 918c-26 -54 -83 -138 -211 -138c-123 0 -149 81 -154 138h88c12 -33 27 -54 76 -54c47 0 87 18 114 54h87z" />
    <glyph glyph-name="Idotaccent.alt" horiz-adv-x="281" 
d="M304 727l-148 -727h-137l148 727h137zM327 854c0 -47 -30 -74 -79 -74c-31 0 -62 18 -62 52c0 50 30 76 78 76c35 0 63 -18 63 -54z" />
    <glyph glyph-name="Imacron.alt" horiz-adv-x="281" 
d="M304 727l-148 -727h-137l148 727h137zM415 865l-18 -85h-314l18 85h314z" />
    <glyph glyph-name="Iogonek.alt" horiz-adv-x="281" 
d="M251 -156c-44 -21 -91 -37 -140 -37c-54 0 -102 23 -102 83c0 34 16 76 35 110h-25l148 727h137l-148 -727h-24c-12 -23 -21 -49 -21 -72c0 -27 16 -42 43 -42s51 9 75 21z" />
    <glyph glyph-name="Itilde.alt" horiz-adv-x="281" 
d="M304 727l-148 -727h-137l148 727h137zM464 914c-20 -78 -65 -134 -149 -134c-69 0 -90 49 -130 49c-27 0 -46 -19 -53 -49h-79c20 79 67 134 148 134c68 0 94 -49 130 -49c25 0 43 12 55 49h78z" />
    <glyph glyph-name="Jcircumflex.alt" horiz-adv-x="365" 
d="M393 727l-142 -701c-33 -162 -107 -219 -256 -219c-55 0 -117 12 -149 25l45 111c44 -18 77 -24 112 -24c74 0 96 33 119 147l134 661h137zM511 780h-92l-64 101l-109 -101h-99l158 176h118z" />
    <glyph glyph-name="f_f_l.alt" horiz-adv-x="884" 
d="M918 760l-154 -760h-125l126 621c-29 12 -69 21 -100 21c-47 0 -71 -20 -84 -84l-8 -38h107l-19 -93h-106l-92 -451c-21 -102 -62 -169 -205 -169c-29 0 -66 5 -96 15l35 97c17 -7 44 -12 60 -12c51 0 71 20 84 84l88 436h-178l-92 -451c-21 -102 -62 -169 -205 -169
c-29 0 -66 5 -96 15l35 97c17 -7 44 -12 60 -12c51 0 71 20 84 84l88 436h-74l19 93h74l11 53c21 102 62 169 205 169c29 0 67 -3 97 -13l-35 -97c-17 7 -47 10 -61 10c-47 0 -71 -20 -84 -84l-8 -38h179l11 53c21 102 62 169 205 169c51 0 108 -15 153 -32z" />
    <glyph glyph-name="fraction.tab" horiz-adv-x="280" 
d="M438 727l-498 -742h-109l498 742h109z" />
    <glyph glyph-name="gbreve.alt" horiz-adv-x="578" 
d="M561 527l-103 -508c-31 -153 -107 -212 -268 -212c-59 0 -139 13 -188 36l42 93c40 -22 99 -36 149 -36c83 0 122 31 138 108l12 59c-45 -46 -100 -67 -154 -67c-111 0 -158 93 -158 197c0 170 101 338 279 338c50 0 95 -13 123 -24l84 16h44zM415 421
c-33 14 -66 24 -100 24c-104 0 -155 -148 -155 -245c0 -53 15 -106 71 -106c48 0 108 58 141 117zM548 747c-26 -54 -83 -138 -211 -138c-123 0 -149 81 -154 138h88c12 -33 27 -54 76 -54c47 0 87 18 114 54h87z" />
    <glyph glyph-name="gcircumflex.alt" horiz-adv-x="578" 
d="M561 527l-103 -508c-31 -153 -107 -212 -268 -212c-59 0 -139 13 -188 36l42 93c40 -22 99 -36 149 -36c83 0 122 31 138 108l12 59c-45 -46 -100 -67 -154 -67c-111 0 -158 93 -158 197c0 170 101 338 279 338c50 0 95 -13 123 -24l84 16h44zM415 421
c-33 14 -66 24 -100 24c-104 0 -155 -148 -155 -245c0 -53 15 -106 71 -106c48 0 108 58 141 117zM533 590h-92l-64 101l-109 -101h-99l158 176h118z" />
    <glyph glyph-name="gcommaaccent.alt" horiz-adv-x="578" 
d="M561 527l-103 -508c-31 -153 -107 -212 -268 -212c-59 0 -139 13 -188 36l42 93c40 -22 99 -36 149 -36c83 0 122 31 138 108l12 59c-45 -46 -100 -67 -154 -67c-111 0 -158 93 -158 197c0 170 101 338 279 338c50 0 95 -13 123 -24l84 16h44zM415 421
c-33 14 -66 24 -100 24c-104 0 -155 -148 -155 -245c0 -53 15 -106 71 -106c48 0 108 58 141 117zM277 659c0 39 21 78 53 104h74c-15 -13 -27 -34 -30 -54c38 0 52 -26 52 -48c0 -40 -30 -69 -83 -69c-46 0 -66 28 -66 67z" />
    <glyph glyph-name="gdotaccent.alt" horiz-adv-x="578" 
d="M561 527l-103 -508c-31 -153 -107 -212 -268 -212c-59 0 -139 13 -188 36l42 93c40 -22 99 -36 149 -36c83 0 122 31 138 108l12 59c-45 -46 -100 -67 -154 -67c-111 0 -158 93 -158 197c0 170 101 338 279 338c50 0 95 -13 123 -24l84 16h44zM415 421
c-33 14 -66 24 -100 24c-104 0 -155 -148 -155 -245c0 -53 15 -106 71 -106c48 0 108 58 141 117zM421 666c0 -47 -30 -74 -79 -74c-31 0 -62 18 -62 52c0 50 30 76 78 76c35 0 63 -18 63 -54z" />
    <glyph glyph-name="i.dot" horiz-adv-x="313" 
d="M317 664c0 -56 -35 -77 -88 -77c-41 0 -70 17 -70 56c0 57 35 78 88 78c41 0 70 -17 70 -57zM281 478c0 -20 -7 -57 -14 -91l-78 -387h-125l72 359c3 13 8 41 8 49c0 6 -2 11 -12 11c-8 0 -32 -13 -51 -25l-43 82c65 41 114 59 166 59c30 0 77 -12 77 -57z" />
    <glyph glyph-name="ibreve.alt" horiz-adv-x="259" 
d="M117 520h125l-105 -520h-125zM397 747c-26 -54 -83 -138 -211 -138c-123 0 -149 81 -154 138h88c12 -33 27 -54 76 -54c47 0 87 18 114 54h87z" />
    <glyph glyph-name="ij.alt" horiz-adv-x="563" 
d="M279 664c0 -56 -35 -77 -88 -77c-41 0 -70 17 -70 56c0 57 35 78 88 78c41 0 70 -17 70 -57zM117 520h125l-105 -520h-125zM579 664c0 -56 -35 -77 -88 -77c-41 0 -70 17 -70 56c0 57 35 78 88 78c41 0 70 -17 70 -57zM419 520h125l-105 -520
c-25 -122 -64 -193 -210 -193c-26 0 -70 6 -92 11l27 97c24 -7 49 -10 77 -10c45 0 60 35 73 97z" />
    <glyph glyph-name="imacron.alt" horiz-adv-x="259" 
d="M117 520h125l-105 -520h-125zM376 720l-18 -85h-314l18 85h314z" />
    <glyph glyph-name="iogonek.alt" horiz-adv-x="259" 
d="M117 520h125l-105 -520h-23c-12 -23 -21 -49 -21 -72c0 -27 16 -42 43 -42s51 9 75 21l22 -63c-44 -21 -91 -37 -140 -37c-54 0 -102 23 -102 83c0 34 16 76 35 110h-14zM279 664c0 -56 -35 -77 -88 -77c-41 0 -70 17 -70 56c0 57 35 78 88 78c41 0 70 -17 70 -57z" />
    <glyph glyph-name="itilde.alt" horiz-adv-x="259" 
d="M117 520h125l-105 -520h-125zM418 745c-20 -78 -65 -134 -149 -134c-69 0 -90 49 -130 49c-27 0 -46 -19 -53 -49h-79c20 79 67 134 148 134c68 0 94 -49 130 -49c25 0 43 12 55 49h78z" />
    <glyph glyph-name="jcircumflex.alt" horiz-adv-x="276" 
d="M132 520h125l-105 -520c-25 -122 -64 -193 -210 -193c-26 0 -70 6 -92 11l27 97c24 -7 49 -10 77 -10c45 0 60 35 73 97zM389 590h-92l-64 101l-109 -101h-99l158 176h118z" />
    <glyph glyph-name="lacute.alt" horiz-adv-x="262" 
d="M296 760l-154 -760h-125l140 692zM464 956l-193 -176h-100l152 176h141z" />
    <glyph glyph-name="lcaron.alt" horiz-adv-x="350" 
d="M296 760l-154 -760h-125l140 692zM464 653c0 -69 -65 -161 -117 -216h-68c25 28 85 111 85 149v3c-33 0 -58 21 -58 54c0 56 29 84 88 84c45 0 70 -27 70 -74z" />
    <glyph glyph-name="lcommaaccent.alt" horiz-adv-x="262" 
d="M296 760l-154 -760h-125l140 692zM144 -91c0 -39 -21 -78 -53 -104h-74c15 13 27 34 30 54c-38 0 -52 26 -52 48c0 40 30 69 83 69c46 0 66 -28 66 -67z" />
    <glyph glyph-name="ldot.alt" horiz-adv-x="375" 
d="M296 760l-154 -760h-125l140 692zM415 337c0 -61 -30 -86 -87 -86c-41 0 -71 17 -71 56c0 59 29 86 88 86c38 0 70 -16 70 -56z" />
    <glyph glyph-name="uni0162" unicode="&#x162;" horiz-adv-x="605" 
d="M686 727l-24 -115h-220l-124 -612h-137l124 612h-220l24 115h577zM307 -91c0 -39 -21 -78 -53 -104h-74c15 13 27 34 30 54c-38 0 -52 26 -52 48c0 40 30 69 83 69c46 0 66 -28 66 -67z" />
    <glyph glyph-name="uni021A" unicode="&#x21a;" horiz-adv-x="605" 
d="M686 727l-24 -115h-220l-124 -612h-137l124 612h-220l24 115h577zM307 -91c0 -39 -21 -78 -53 -104h-74c15 13 27 34 30 54c-38 0 -52 26 -52 48c0 40 30 69 83 69c46 0 66 -28 66 -67z" />
    <glyph glyph-name="uni0163" unicode="&#x163;" horiz-adv-x="363" 
d="M385 520l-19 -93h-121l-49 -245c-4 -19 -10 -45 -10 -57c0 -34 15 -41 47 -41c15 0 42 5 56 10l14 -91c-34 -10 -77 -18 -115 -18c-77 0 -130 21 -130 106c0 25 5 51 10 76l52 260h-74l19 93h74l29 144l138 62l-42 -206h121zM255 -91c0 -39 -21 -78 -53 -104h-74
c15 13 27 34 30 54c-38 0 -52 26 -52 48c0 40 30 69 83 69c46 0 66 -28 66 -67z" />
    <glyph glyph-name="uni021B" unicode="&#x21b;" horiz-adv-x="363" 
d="M385 520l-19 -93h-121l-49 -245c-4 -19 -10 -45 -10 -57c0 -34 15 -41 47 -41c15 0 42 5 56 10l14 -91c-34 -10 -77 -18 -115 -18c-77 0 -130 21 -130 106c0 25 5 51 10 76l52 260h-74l19 93h74l29 144l138 62l-42 -206h121zM255 -91c0 -39 -21 -78 -53 -104h-74
c15 13 27 34 30 54c-38 0 -52 26 -52 48c0 40 30 69 83 69c46 0 66 -28 66 -67z" />
    <glyph glyph-name="onesuperior" unicode="&#xb9;" 
d="M406 382l-18 -89h-295l18 89h98l43 211c-37 -15 -76 -27 -116 -33l18 88c64 17 117 44 162 94h78l-73 -360h85z" />
    <glyph glyph-name="twosuperior" unicode="&#xb2;" 
d="M471 629c0 -63 -39 -110 -83 -144c-48 -37 -100 -68 -152 -99h208l-19 -93h-389l17 80c57 35 112 69 168 105c106 68 131 94 131 130c0 20 -19 41 -62 41c-44 0 -85 -23 -121 -55l-60 71c55 50 120 77 202 77c98 0 160 -40 160 -113z" />
    <glyph glyph-name="threesuperior" unicode="&#xb3;" 
d="M478 733l-14 -75l-115 -105c53 -9 90 -49 90 -105c0 -116 -89 -167 -202 -167c-65 0 -131 19 -170 79l79 56c17 -28 49 -47 82 -47c53 0 91 27 91 78c0 36 -30 51 -66 51c-18 0 -36 -2 -53 -6l9 43l123 109h-178l18 89h306z" />
    <glyph glyph-name="dollar.alt" horiz-adv-x="622" 
d="M615 581l-104 -55c-23 41 -56 72 -88 79l-39 -191c84 -30 172 -75 172 -191c0 -128 -112 -216 -258 -223l-26 -131h-88l27 134c-83 13 -153 53 -193 141l108 58c23 -52 64 -87 106 -94l44 209c-82 30 -172 85 -172 190c0 96 74 203 255 208l18 91h89l-20 -97
c59 -12 136 -53 169 -128zM337 612c-54 -2 -107 -34 -107 -87c0 -47 28 -68 72 -84zM432 209c0 38 -29 67 -73 82l-37 -185c59 5 110 43 110 103z" />
    <glyph glyph-name="percent.alt" horiz-adv-x="1007" 
d="M820 727l-498 -742h-109l498 742h109zM746 -15c-102 0 -163 56 -163 148c0 126 62 259 221 259c105 0 163 -57 163 -146c0 -126 -62 -261 -221 -261zM795 302c-58 0 -98 -76 -98 -166c0 -38 20 -61 58 -61c58 0 98 78 98 168c0 38 -20 59 -58 59zM240 335
c-102 0 -163 56 -163 148c0 126 62 259 221 259c105 0 163 -57 163 -146c0 -126 -62 -261 -221 -261zM289 652c-58 0 -98 -76 -98 -166c0 -38 20 -61 58 -61c58 0 98 78 98 168c0 38 -20 59 -58 59z" />
    <glyph glyph-name="perthousand.alt" horiz-adv-x="1444" 
d="M820 727l-498 -742h-109l498 742h109zM1183 -15c-102 0 -163 56 -163 148c0 126 62 259 221 259c105 0 163 -57 163 -146c0 -126 -62 -261 -221 -261zM1232 302c-58 0 -98 -76 -98 -166c0 -38 20 -61 58 -61c58 0 98 78 98 168c0 38 -20 59 -58 59zM240 335
c-102 0 -163 56 -163 148c0 126 62 259 221 259c105 0 163 -57 163 -146c0 -126 -62 -261 -221 -261zM289 652c-58 0 -98 -76 -98 -166c0 -38 20 -61 58 -61c58 0 98 78 98 168c0 38 -20 59 -58 59zM746 -15c-102 0 -163 56 -163 148c0 126 62 259 221 259
c105 0 163 -57 163 -146c0 -126 -62 -261 -221 -261zM795 302c-58 0 -98 -76 -98 -166c0 -38 20 -61 58 -61c58 0 98 78 98 168c0 38 -20 59 -58 59z" />
    <glyph glyph-name="onequarter.alt" horiz-adv-x="1007" 
d="M820 727l-498 -742h-109l498 742h109zM346 346h-269l17 88h82l31 162c-29 -12 -60 -23 -97 -28l18 91c61 17 109 41 146 83h78l-60 -308h71zM913 68h-47l-17 -83h-108l17 83h-197l17 88l242 232h108l-47 -238h47zM772 149l28 124l-124 -124h96z" />
    <glyph glyph-name="onehalf.alt" horiz-adv-x="1007" 
d="M820 727l-498 -742h-109l498 742h109zM346 346h-269l17 88h82l31 162c-29 -12 -60 -23 -97 -28l18 91c61 17 109 41 146 83h78l-60 -308h71zM932 0h-350l16 82c48 25 91 49 133 73c32 18 114 67 114 115c0 19 -10 34 -42 34c-34 0 -68 -15 -108 -47l-60 62
c38 35 107 77 200 77c67 0 139 -23 139 -99c0 -63 -39 -96 -81 -130c-41 -33 -78 -53 -104 -70h162z" />
    <glyph glyph-name="threequarters.alt" horiz-adv-x="1007" 
d="M820 727l-498 -742h-109l498 742h109zM913 68h-47l-17 -83h-108l17 83h-197l17 88l242 232h108l-47 -238h47zM772 149l28 124l-124 -124h96zM430 497c0 -104 -101 -158 -195 -158c-44 0 -112 11 -147 80l89 50c11 -22 34 -38 64 -38c34 0 65 17 65 56c0 22 -19 40 -52 40
c-20 0 -34 -2 -50 -5l9 42l100 80h-151l17 89h281l-14 -70l-88 -73c42 -15 72 -51 72 -93z" />
    <glyph glyph-name="onethird.alt" horiz-adv-x="1007" 
d="M820 727l-498 -742h-109l498 742h109zM346 346h-269l17 88h82l31 162c-29 -12 -60 -23 -97 -28l18 91c61 17 109 41 146 83h78l-60 -308h71zM947 143c0 -104 -101 -158 -195 -158c-44 0 -112 11 -147 80l89 50c11 -22 34 -38 64 -38c34 0 65 17 65 56c0 22 -19 40 -52 40
c-20 0 -34 -2 -50 -5l9 42l100 80h-151l17 89h281l-14 -70l-88 -73c42 -15 72 -51 72 -93z" />
    <glyph glyph-name="twothirds.alt" horiz-adv-x="1007" 
d="M820 727l-498 -742h-109l498 742h109zM947 143c0 -104 -101 -158 -195 -158c-44 0 -112 11 -147 80l89 50c11 -22 34 -38 64 -38c34 0 65 17 65 56c0 22 -19 40 -52 40c-20 0 -34 -2 -50 -5l9 42l100 80h-151l17 89h281l-14 -70l-88 -73c42 -15 72 -51 72 -93zM375 346
h-350l16 82c48 25 91 49 133 73c32 18 114 67 114 115c0 19 -10 34 -42 34c-34 0 -68 -15 -108 -47l-60 62c38 35 107 77 200 77c67 0 139 -23 139 -99c0 -63 -39 -96 -81 -130c-41 -33 -78 -53 -104 -70h162z" />
    <glyph glyph-name="oneeighth.alt" horiz-adv-x="1007" 
d="M820 727l-498 -742h-109l498 742h109zM346 346h-269l17 88h82l31 162c-29 -12 -60 -23 -97 -28l18 91c61 17 109 41 146 83h78l-60 -308h71zM941 124c0 -93 -94 -135 -186 -135c-95 0 -154 35 -154 100c0 56 32 89 85 113c-18 14 -41 37 -41 71c0 87 100 119 180 119
c90 0 137 -36 137 -89c0 -46 -31 -74 -74 -101c31 -14 53 -42 53 -78zM848 286c0 13 -8 29 -39 29c-21 0 -49 -11 -49 -39c0 -16 9 -31 36 -42c31 10 52 32 52 52zM763 62c29 0 62 14 62 51c0 22 -15 43 -44 55c-27 -10 -67 -31 -67 -68c0 -17 15 -38 49 -38z" />
    <glyph glyph-name="threeeighths.alt" horiz-adv-x="1007" 
d="M820 727l-498 -742h-109l498 742h109zM941 124c0 -93 -94 -135 -186 -135c-95 0 -154 35 -154 100c0 56 32 89 85 113c-18 14 -41 37 -41 71c0 87 100 119 180 119c90 0 137 -36 137 -89c0 -46 -31 -74 -74 -101c31 -14 53 -42 53 -78zM848 286c0 13 -8 29 -39 29
c-21 0 -49 -11 -49 -39c0 -16 9 -31 36 -42c31 10 52 32 52 52zM763 62c29 0 62 14 62 51c0 22 -15 43 -44 55c-27 -10 -67 -31 -67 -68c0 -17 15 -38 49 -38zM408 497c0 -104 -101 -158 -195 -158c-44 0 -112 11 -147 80l89 50c11 -22 34 -38 64 -38c34 0 65 17 65 56
c0 22 -19 40 -52 40c-20 0 -34 -2 -50 -5l9 42l100 80h-151l17 89h281l-14 -70l-88 -73c42 -15 72 -51 72 -93z" />
    <glyph glyph-name="fiveeighths.alt" horiz-adv-x="1007" 
d="M820 727l-498 -742h-109l498 742h109zM941 124c0 -93 -94 -135 -186 -135c-95 0 -154 35 -154 100c0 56 32 89 85 113c-18 14 -41 37 -41 71c0 87 100 119 180 119c90 0 137 -36 137 -89c0 -46 -31 -74 -74 -101c31 -14 53 -42 53 -78zM848 286c0 13 -8 29 -39 29
c-21 0 -49 -11 -49 -39c0 -16 9 -31 36 -42c31 10 52 32 52 52zM763 62c29 0 62 14 62 51c0 22 -15 43 -44 55c-27 -10 -67 -31 -67 -68c0 -17 15 -38 49 -38zM416 496c0 -103 -95 -157 -199 -157c-74 0 -127 33 -156 79l81 52c18 -26 46 -48 83 -48c43 0 71 19 71 59
c0 30 -24 45 -60 45c-22 0 -44 -3 -73 -17h-57l74 226h263l-17 -90h-177l-16 -48c16 3 32 4 49 4c67 0 134 -27 134 -105z" />
    <glyph glyph-name="seveneighths.alt" horiz-adv-x="1007" 
d="M820 727l-498 -742h-109l498 742h109zM941 124c0 -93 -94 -135 -186 -135c-95 0 -154 35 -154 100c0 56 32 89 85 113c-18 14 -41 37 -41 71c0 87 100 119 180 119c90 0 137 -36 137 -89c0 -46 -31 -74 -74 -101c31 -14 53 -42 53 -78zM848 286c0 13 -8 29 -39 29
c-21 0 -49 -11 -49 -39c0 -16 9 -31 36 -42c31 10 52 32 52 52zM763 62c29 0 62 14 62 51c0 22 -15 43 -44 55c-27 -10 -67 -31 -67 -68c0 -17 15 -38 49 -38zM498 661l-211 -322h-122l208 306h-108l-10 -49h-86l27 139h316z" />
    <glyph glyph-name="plus.alt" horiz-adv-x="682" 
d="M624 314h-230v-230h-106v230h-230v107h230v230h106v-230h230v-107z" />
    <glyph glyph-name="minus.alt" horiz-adv-x="682" 
d="M624 314h-566v107h566v-107z" />
    <glyph glyph-name="multiply.alt" horiz-adv-x="682" 
d="M615 169l-75 -75l-199 199l-199 -199l-75 75l199 198l-199 199l75 75l199 -198l199 197l75 -75l-198 -198z" />
    <glyph glyph-name="less.alt" horiz-adv-x="682" 
d="M625 89l-567 228v101l567 227v-109l-425 -169l425 -169v-109z" />
    <glyph glyph-name="greater.alt" horiz-adv-x="682" 
d="M625 317l-567 -228v109l425 169l-425 169v109l567 -227v-101z" />
    <glyph glyph-name="logicalnot.alt" horiz-adv-x="682" 
d="M625 196h-106v227h-461v107h567v-334z" />
    <glyph glyph-name="equal.alt" horiz-adv-x="682" 
d="M625 423h-567v106h567v-106zM625 195h-567v106h567v-106z" />
    <glyph glyph-name="divide.alt" horiz-adv-x="682" 
d="M408 591c0 -47 -23 -64 -68 -64c-50 0 -66 25 -66 64c0 44 19 66 66 66c48 0 68 -21 68 -66zM625 314h-567v107h567v-107zM408 142c0 -47 -23 -64 -68 -64c-50 0 -66 25 -66 64c0 44 19 66 66 66c48 0 68 -21 68 -66z" />
    <glyph glyph-name="plusminus.alt" horiz-adv-x="682" 
d="M625 424h-231v-187h-106v187h-230v106h230v210h106v-210h231v-106zM625 75h-567v106h567v-106z" />
    <glyph glyph-name="periodcentered.alt" horiz-adv-x="266" 
d="M207 382c0 -61 -30 -86 -87 -86c-41 0 -71 17 -71 56c0 59 29 86 88 86c38 0 70 -16 70 -56z" />
    </font>
</defs>
</svg>
